# This file is brought to you by Roblox Corporation
# Generated by Roblox Studio

mtllib modem.mtl

g Modem1

v 72 5.00001 -41 
v 72 5.00001 -39 
v 72 1.19209e-05 -41 
v 72 1.19209e-05 -39 
v 68 5.00001 -39 
v 72 5.00001 -39 
v 68 5.00001 -41 
v 72 5.00001 -41 
v 72 5.00001 -39 
v 68 5.00001 -39 
v 72 1.19209e-05 -39 
v 68 1.19209e-05 -39 
v 68 5.00001 -39 
v 68 5.00001 -41 
v 68 1.19209e-05 -39 
v 68 1.19209e-05 -41 
v 68 1.19209e-05 -41 
v 72 1.19209e-05 -41 
v 68 1.19209e-05 -39 
v 72 1.19209e-05 -39 
v 68 5.00001 -41 
v 72 5.00001 -41 
v 68 1.19209e-05 -41 
v 72 1.19209e-05 -41 

vn 1 0 0 
vn 1 0 0 
vn 1 0 0 
vn 1 0 0 
vn 0 1 0 
vn 0 1 0 
vn 0 1 0 
vn 0 1 0 
vn 0 0 1 
vn 0 0 1 
vn 0 0 1 
vn 0 0 1 
vn -1 0 0 
vn -1 0 0 
vn -1 0 0 
vn -1 0 0 
vn 0 -1 0 
vn 0 -1 0 
vn 0 -1 0 
vn 0 -1 0 
vn 0 0 -1 
vn 0 0 -1 
vn 0 0 -1 
vn 0 0 -1 

vt 7.25 -1.25 
vt 7 -1.25 
vt 7.25 -1.875 
vt 7 -1.875 
vt 7.5 -1.25 
vt 7 -1.25 
vt 7.5 -1.5 
vt 7 -1.5 
vt 7.5 -1.25 
vt 7 -1.25 
vt 7.5 -1.875 
vt 7 -1.875 
vt 7.25 -1.25 
vt 7 -1.25 
vt 7.25 -1.875 
vt 7 -1.875 
vt 7.5 -1.25 
vt 7 -1.25 
vt 7.5 -1.5 
vt 7 -1.5 
vt 7.5 -1.25 
vt 7 -1.25 
vt 7.5 -1.875 
vt 7 -1.875 

usemtl Modem1Mtl

f 1/1/1 2/2/2 3/3/3 
f 3/3/3 2/2/2 4/4/4 
f 5/5/5 6/6/6 7/7/7 
f 7/7/7 6/6/6 8/8/8 
f 9/9/9 10/10/10 11/11/11 
f 11/11/11 10/10/10 12/12/12 
f 13/13/13 14/14/14 15/15/15 
f 15/15/15 14/14/14 16/16/16 
f 17/17/17 18/18/18 19/19/19 
f 19/19/19 18/18/18 20/20/20 
f 21/21/21 22/22/22 23/23/23 
f 23/23/23 22/22/22 24/24/24 

g Modem2

v 72.02 5.00001 -41 
v 72.02 5.00001 -39 
v 72.02 1.19209e-05 -41 
v 72.02 1.19209e-05 -39 

vn 1 0 0 
vn 1 0 0 
vn 1 0 0 
vn 1 0 0 

vt 1 1 
vt 0 1 
vt 1 0 
vt 0 0 

usemtl Modem2Mtl

f 25/25/25 26/26/26 27/27/27 
f 27/27/27 26/26/26 28/28/28 

g Modem3

v 68 5.00001 -41.02 
v 72 5.00001 -41.02 
v 68 1.19209e-05 -41.02 
v 72 1.19209e-05 -41.02 

vn 0 0 -1 
vn 0 0 -1 
vn 0 0 -1 
vn 0 0 -1 

vt 1 1 
vt 0 1 
vt 1 0 
vt 0 0 

usemtl Modem3Mtl

f 29/29/29 30/30/30 31/31/31 
f 31/31/31 30/30/30 32/32/32 

g Modem4

v 68 5.02001 -39 
v 72 5.02001 -39 
v 68 5.02001 -41 
v 72 5.02001 -41 

vn 0 1 0 
vn 0 1 0 
vn 0 1 0 
vn 0 1 0 

vt 1 1 
vt 0 1 
vt 1 0 
vt 0 0 

usemtl Modem3Mtl

f 33/33/33 34/34/34 35/35/35 
f 35/35/35 34/34/34 36/36/36 

g Modem5

v 72 -0.0199881 -39 
v 68 -0.0199881 -39 
v 72 -0.0199881 -41 
v 68 -0.0199881 -41 

vn 0 -1 0 
vn 0 -1 0 
vn 0 -1 0 
vn 0 -1 0 

vt 1 1 
vt 0 1 
vt 1 0 
vt 0 0 

usemtl Modem3Mtl

f 37/37/37 38/38/38 39/39/39 
f 39/39/39 38/38/38 40/40/40 

g Modem6

v 72 5.00001 -38.98 
v 68 5.00001 -38.98 
v 72 1.19209e-05 -38.98 
v 68 1.19209e-05 -38.98 

vn 0 0 1 
vn 0 0 1 
vn 0 0 1 
vn 0 0 1 

vt 0.485 1 
vt -0.515 1 
vt 0.485 -0.25 
vt -0.515 -0.25 

usemtl Modem3Mtl

f 41/41/41 42/42/42 43/43/43 
f 43/43/43 42/42/42 44/44/44 

