# This file is brought to you by Roblox Corporation
# Generated by Roblox Studio

mtllib radiator.mtl

g Radiator1

v 172 1 49 
v 169 1 49 
v 172 0 49 
v 169 0 49 
v 169 1 46 
v 169 1 49 
v 172 1 46 
v 172 1 49 
v 169 1 49 
v 169 1 46 
v 169 0 49 
v 169 0 46 
v 169 1 46 
v 172 1 46 
v 169 0 46 
v 172 0 46 
v 172 0 46 
v 172 0 49 
v 169 0 46 
v 169 0 49 
v 172 1 46 
v 172 1 49 
v 172 0 46 
v 172 0 49 

vn 0 0 1 
vn 0 0 1 
vn 0 0 1 
vn 0 0 1 
vn 0 1 0 
vn 0 1 0 
vn 0 1 0 
vn 0 1 0 
vn -1 0 0 
vn -1 0 0 
vn -1 0 0 
vn -1 0 0 
vn 0 0 -1 
vn 0 0 -1 
vn 0 0 -1 
vn 0 0 -1 
vn 0 -1 0 
vn 0 -1 0 
vn 0 -1 0 
vn 0 -1 0 
vn 1 0 0 
vn 1 0 0 
vn 1 0 0 
vn 1 0 0 

vt 0.311984 1.13361 
vt -0.0630157 1.13361 
vt 0.311984 1.00861 
vt -0.0630157 1.00861 
vt 0.311984 1.13361 
vt -0.0630157 1.13361 
vt 0.311984 0.758613 
vt -0.0630157 0.758613 
vt 0.311984 1.13361 
vt -0.0630157 1.13361 
vt 0.311984 1.00861 
vt -0.0630157 1.00861 
vt 0.311984 1.13361 
vt -0.0630157 1.13361 
vt 0.311984 1.00861 
vt -0.0630157 1.00861 
vt 0.311984 1.13361 
vt -0.0630157 1.13361 
vt 0.311984 0.758613 
vt -0.0630157 0.758613 
vt 0.311984 1.13361 
vt -0.0630157 1.13361 
vt 0.311984 1.00861 
vt -0.0630157 1.00861 

usemtl Radiator1Mtl

f 1/1/1 2/2/2 3/3/3 
f 3/3/3 2/2/2 4/4/4 
f 5/5/5 6/6/6 7/7/7 
f 7/7/7 6/6/6 8/8/8 
f 9/9/9 10/10/10 11/11/11 
f 11/11/11 10/10/10 12/12/12 
f 13/13/13 14/14/14 15/15/15 
f 15/15/15 14/14/14 16/16/16 
f 17/17/17 18/18/18 19/19/19 
f 19/19/19 18/18/18 20/20/20 
f 21/21/21 22/22/22 23/23/23 
f 23/23/23 22/22/22 24/24/24 

g Radiator2

v 169 1.02 46 
v 169 1.02 49 
v 172 1.02 46 
v 172 1.02 49 

vn 0 1 0 
vn 0 1 0 
vn 0 1 0 
vn 0 1 0 

vt 1 1 
vt 0 1 
vt 1 0 
vt 0 0 

usemtl Radiator2Mtl

f 25/25/25 26/26/26 27/27/27 
f 27/27/27 26/26/26 28/28/28 

g Radiator3

v 169 1.02 46 
v 169 1.02 49 
v 172 1.02 46 
v 172 1.02 49 

vn 0 1 0 
vn 0 1 0 
vn 0 1 0 
vn 0 1 0 

vt 1 1 
vt 0 1 
vt 1 0 
vt 0 0 

usemtl Radiator3Mtl

f 29/29/29 30/30/30 31/31/31 
f 31/31/31 30/30/30 32/32/32 

g Radiator4

v 169 1.02 46 
v 169 1.02 49 
v 172 1.02 46 
v 172 1.02 49 

vn 0 1 0 
vn 0 1 0 
vn 0 1 0 
vn 0 1 0 

vt 1 1 
vt 0 1 
vt 1 0 
vt 0 0 

usemtl Radiator4Mtl

f 33/33/33 34/34/34 35/35/35 
f 35/35/35 34/34/34 36/36/36 

g Radiator5

v 169 1.02 46 
v 169 1.02 49 
v 172 1.02 46 
v 172 1.02 49 

vn 0 1 0 
vn 0 1 0 
vn 0 1 0 
vn 0 1 0 

vt 1 1 
vt 0 1 
vt 1 0 
vt 0 0 

usemtl Radiator5Mtl

f 37/37/37 38/38/38 39/39/39 
f 39/39/39 38/38/38 40/40/40 

g Radiator6

v 169 1.02 46 
v 169 1.02 49 
v 172 1.02 46 
v 172 1.02 49 

vn 0 1 0 
vn 0 1 0 
vn 0 1 0 
vn 0 1 0 

vt 1 1 
vt 0 1 
vt 1 0 
vt 0 0 

usemtl Radiator6Mtl

f 41/41/41 42/42/42 43/43/43 
f 43/43/43 42/42/42 44/44/44 

g Radiator7

v 172.02 1 46 
v 172.02 1 49 
v 172.02 0 46 
v 172.02 0 49 

vn 1 0 0 
vn 1 0 0 
vn 1 0 0 
vn 1 0 0 

vt 1 1 
vt 0 1 
vt 1 0 
vt 0 0 

usemtl Radiator7Mtl

f 45/45/45 46/46/46 47/47/47 
f 47/47/47 46/46/46 48/48/48 

g Radiator8

v 168.98 1 49 
v 168.98 1 46 
v 168.98 0 49 
v 168.98 0 46 

vn -1 0 0 
vn -1 0 0 
vn -1 0 0 
vn -1 0 0 

vt 1 1 
vt 0 1 
vt 1 0 
vt 0 0 

usemtl Radiator7Mtl

f 49/49/49 50/50/50 51/51/51 
f 51/51/51 50/50/50 52/52/52 

g Radiator9

v 169 -0.02 49 
v 169 -0.02 46 
v 172 -0.02 49 
v 172 -0.02 46 

vn 0 -1 0 
vn 0 -1 0 
vn 0 -1 0 
vn 0 -1 0 

vt 1 1 
vt 0 1 
vt 1 0 
vt 0 0 

usemtl Radiator9Mtl

f 53/53/53 54/54/54 55/55/55 
f 55/55/55 54/54/54 56/56/56 

g Radiator10

v 169 1 45.98 
v 172 1 45.98 
v 169 0 45.98 
v 172 0 45.98 

vn 0 0 -1 
vn 0 0 -1 
vn 0 0 -1 
vn 0 0 -1 

vt 1 1 
vt 0 1 
vt 1 0 
vt 0 0 

usemtl Radiator7Mtl

f 57/57/57 58/58/58 59/59/59 
f 59/59/59 58/58/58 60/60/60 

g Radiator11

v 172 1 49.02 
v 169 1 49.02 
v 172 0 49.02 
v 169 0 49.02 

vn 0 0 1 
vn 0 0 1 
vn 0 0 1 
vn 0 0 1 

vt 1 1 
vt 0 1 
vt 1 0 
vt 0 0 

usemtl Radiator7Mtl

f 61/61/61 62/62/62 63/63/63 
f 63/63/63 62/62/62 64/64/64 

g Radiator12

v 169 -0.02 49 
v 169 -0.02 46 
v 172 -0.02 49 
v 172 -0.02 46 

vn 0 -1 0 
vn 0 -1 0 
vn 0 -1 0 
vn 0 -1 0 

vt 1 1 
vt 0 1 
vt 1 0 
vt 0 0 

usemtl Radiator12Mtl

f 65/65/65 66/66/66 67/67/67 
f 67/67/67 66/66/66 68/68/68 

