# This file is brought to you by Roblox Corporation
# Generated by Roblox Studio

mtllib generator.mtl

g Generator1

v 451 1 20 
v 451 1.70711 19.2929 
v 451 1.5547 19.1679 
v 451 1.31623 19.0513 
v 451 1 19 
v 451 0.683772 19.0513 
v 451 0.4453 19.1679 
v 451 0.292893 19.2929 
v 451 0.292893 19.2929 
v 451 0.16795 19.4453 
v 451 0.0513166 19.6838 
v 451 -1.19209e-07 20 
v 451 0.0513166 20.3162 
v 451 0.16795 20.5547 
v 451 0.292893 20.7071 
v 451 0.292893 20.7071 
v 451 0.4453 20.8321 
v 451 0.683772 20.9487 
v 451 1 21 
v 451 1.31623 20.9487 
v 451 1.5547 20.8321 
v 451 1.70711 20.7071 
v 451 1.70711 20.7071 
v 451 1.83205 20.5547 
v 451 1.94868 20.3162 
v 451 2 20 
v 451 1.94868 19.6838 
v 451 1.83205 19.4453 
v 451 1.70711 19.2929 
v 449 1.70711 20.7071 
v 451 1.70711 20.7071 
v 449 1.83205 20.5547 
v 451 1.83205 20.5547 
v 449 1.94868 20.3162 
v 451 1.94868 20.3162 
v 449 2 20 
v 451 2 20 
v 449 1.94868 19.6838 
v 451 1.94868 19.6838 
v 449 1.83205 19.4453 
v 451 1.83205 19.4453 
v 449 1.70711 19.2929 
v 451 1.70711 19.2929 
v 451 1.70711 20.7071 
v 449 1.70711 20.7071 
v 451 1.5547 20.8321 
v 449 1.5547 20.8321 
v 451 1.31623 20.9487 
v 449 1.31623 20.9487 
v 451 1 21 
v 449 1 21 
v 451 0.683772 20.9487 
v 449 0.683772 20.9487 
v 451 0.4453 20.8321 
v 449 0.4453 20.8321 
v 451 0.292893 20.7071 
v 449 0.292893 20.7071 
v 449 1 20 
v 449 1.70711 20.7071 
v 449 1.5547 20.8321 
v 449 1.31623 20.9487 
v 449 1 21 
v 449 0.683772 20.9487 
v 449 0.4453 20.8321 
v 449 0.292893 20.7071 
v 449 0.292893 20.7071 
v 449 0.16795 20.5547 
v 449 0.0513166 20.3162 
v 449 -1.19209e-07 20 
v 449 0.0513166 19.6838 
v 449 0.16795 19.4453 
v 449 0.292893 19.2929 
v 449 0.292893 19.2929 
v 449 0.4453 19.1679 
v 449 0.683772 19.0513 
v 449 1 19 
v 449 1.31623 19.0513 
v 449 1.5547 19.1679 
v 449 1.70711 19.2929 
v 449 1.70711 19.2929 
v 449 1.83205 19.4453 
v 449 1.94868 19.6838 
v 449 2 20 
v 449 1.94868 20.3162 
v 449 1.83205 20.5547 
v 449 1.70711 20.7071 
v 449 0.292893 19.2929 
v 451 0.292893 19.2929 
v 449 0.16795 19.4453 
v 451 0.16795 19.4453 
v 449 0.0513166 19.6838 
v 451 0.0513166 19.6838 
v 449 -1.19209e-07 20 
v 451 -1.19209e-07 20 
v 449 0.0513166 20.3162 
v 451 0.0513166 20.3162 
v 449 0.16795 20.5547 
v 451 0.16795 20.5547 
v 449 0.292893 20.7071 
v 451 0.292893 20.7071 
v 449 1.70711 19.2929 
v 451 1.70711 19.2929 
v 449 1.5547 19.1679 
v 451 1.5547 19.1679 
v 449 1.31623 19.0513 
v 451 1.31623 19.0513 
v 449 1 19 
v 451 1 19 
v 449 0.683772 19.0513 
v 451 0.683772 19.0513 
v 449 0.4453 19.1679 
v 451 0.4453 19.1679 
v 449 0.292893 19.2929 
v 451 0.292893 19.2929 

vn 1 0 0 
vn 1 0 0 
vn 1 0 0 
vn 1 0 0 
vn 1 0 0 
vn 1 0 0 
vn 1 0 0 
vn 1 0 0 
vn 1 0 0 
vn 1 0 0 
vn 1 0 0 
vn 1 0 0 
vn 1 0 0 
vn 1 0 0 
vn 1 0 0 
vn 1 0 0 
vn 1 0 0 
vn 1 0 0 
vn 1 0 0 
vn 1 0 0 
vn 1 0 0 
vn 1 0 0 
vn 1 0 0 
vn 1 0 0 
vn 1 0 0 
vn 1 0 0 
vn 1 0 0 
vn 1 0 0 
vn 1 0 0 
vn 0 0.708661 0.708661 
vn 0 0.708661 0.708661 
vn 0 0.834646 0.551181 
vn 0 0.834646 0.551181 
vn 0 0.944882 0.314961 
vn 0 0.944882 0.314961 
vn 0 1 0 
vn 0 1 0 
vn 0 0.944882 -0.314961 
vn 0 0.944882 -0.314961 
vn 0 0.834646 -0.551181 
vn 0 0.834646 -0.551181 
vn 0 0.708661 -0.708661 
vn 0 0.708661 -0.708661 
vn 0 0.708661 0.708661 
vn 0 0.708661 0.708661 
vn 0 0.551181 0.834646 
vn 0 0.551181 0.834646 
vn 0 0.314961 0.944882 
vn 0 0.314961 0.944882 
vn 0 0 1 
vn 0 0 1 
vn 0 -0.314961 0.944882 
vn 0 -0.314961 0.944882 
vn 0 -0.551181 0.834646 
vn 0 -0.551181 0.834646 
vn 0 -0.708661 0.708661 
vn 0 -0.708661 0.708661 
vn -1 0 0 
vn -1 0 0 
vn -1 0 0 
vn -1 0 0 
vn -1 0 0 
vn -1 0 0 
vn -1 0 0 
vn -1 0 0 
vn -1 0 0 
vn -1 0 0 
vn -1 0 0 
vn -1 0 0 
vn -1 0 0 
vn -1 0 0 
vn -1 0 0 
vn -1 0 0 
vn -1 0 0 
vn -1 0 0 
vn -1 0 0 
vn -1 0 0 
vn -1 0 0 
vn -1 0 0 
vn -1 0 0 
vn -1 0 0 
vn -1 0 0 
vn -1 0 0 
vn -1 0 0 
vn -1 0 0 
vn -1 0 0 
vn 0 -0.708661 -0.708661 
vn 0 -0.708661 -0.708661 
vn 0 -0.834646 -0.551181 
vn 0 -0.834646 -0.551181 
vn 0 -0.944882 -0.314961 
vn 0 -0.944882 -0.314961 
vn 0 -1 0 
vn 0 -1 0 
vn 0 -0.944882 0.314961 
vn 0 -0.944882 0.314961 
vn 0 -0.834646 0.551181 
vn 0 -0.834646 0.551181 
vn 0 -0.708661 0.708661 
vn 0 -0.708661 0.708661 
vn 0 0.708661 -0.708661 
vn 0 0.708661 -0.708661 
vn 0 0.551181 -0.834646 
vn 0 0.551181 -0.834646 
vn 0 0.314961 -0.944882 
vn 0 0.314961 -0.944882 
vn 0 0 -1 
vn 0 0 -1 
vn 0 -0.314961 -0.944882 
vn 0 -0.314961 -0.944882 
vn 0 -0.551181 -0.834646 
vn 0 -0.551181 -0.834646 
vn 0 -0.708661 -0.708661 
vn 0 -0.708661 -0.708661 

vt 0.0104743 0.563051 
vt 0.0988626 0.651439 
vt 0.114481 0.632388 
vt 0.12906 0.602579 
vt 0.135474 0.563051 
vt 0.12906 0.523522 
vt 0.114481 0.493713 
vt 0.0988626 0.474663 
vt 0.0988626 0.474663 
vt 0.0798118 0.459045 
vt 0.0500027 0.444466 
vt 0.0104742 0.438051 
vt -0.0290542 0.444466 
vt -0.0588633 0.459045 
vt -0.0779141 0.474663 
vt -0.0779141 0.474663 
vt -0.093532 0.493713 
vt -0.108111 0.523522 
vt -0.114526 0.563051 
vt -0.108111 0.602579 
vt -0.093532 0.632389 
vt -0.0779141 0.651439 
vt -0.0779141 0.651439 
vt -0.0588633 0.667057 
vt -0.0290542 0.681636 
vt 0.0104743 0.688051 
vt 0.0500027 0.681636 
vt 0.0798118 0.667057 
vt 0.0988626 0.651439 
vt 0.0209485 0.376102 
vt -0.229051 0.376102 
vt 0.0209485 0.334435 
vt -0.229051 0.334435 
vt 0.0209485 0.292769 
vt -0.229051 0.292769 
vt 0.0209485 0.251102 
vt -0.229051 0.251102 
vt 0.0209485 0.209435 
vt -0.229051 0.209435 
vt 0.0209485 0.167769 
vt -0.229051 0.167769 
vt 0.0209485 0.126102 
vt -0.229051 0.126102 
vt 0.0209485 0.376102 
vt -0.229051 0.376102 
vt 0.0209485 0.334435 
vt -0.229051 0.334435 
vt 0.0209485 0.292769 
vt -0.229051 0.292769 
vt 0.0209485 0.251102 
vt -0.229051 0.251102 
vt 0.0209485 0.209435 
vt -0.229051 0.209435 
vt 0.0209485 0.167769 
vt -0.229051 0.167769 
vt 0.0209485 0.126102 
vt -0.229051 0.126102 
vt 0.0104743 0.563051 
vt 0.0988626 0.651439 
vt 0.114481 0.632388 
vt 0.12906 0.602579 
vt 0.135474 0.563051 
vt 0.12906 0.523522 
vt 0.114481 0.493713 
vt 0.0988626 0.474663 
vt 0.0988626 0.474663 
vt 0.0798118 0.459045 
vt 0.0500027 0.444466 
vt 0.0104742 0.438051 
vt -0.0290542 0.444466 
vt -0.0588633 0.459045 
vt -0.0779141 0.474663 
vt -0.0779141 0.474663 
vt -0.093532 0.493713 
vt -0.108111 0.523522 
vt -0.114526 0.563051 
vt -0.108111 0.602579 
vt -0.093532 0.632389 
vt -0.0779141 0.651439 
vt -0.0779141 0.651439 
vt -0.0588633 0.667057 
vt -0.0290542 0.681636 
vt 0.0104743 0.688051 
vt 0.0500027 0.681636 
vt 0.0798118 0.667057 
vt 0.0988626 0.651439 
vt 0.0209485 0.376102 
vt -0.229051 0.376102 
vt 0.0209485 0.334435 
vt -0.229051 0.334435 
vt 0.0209485 0.292769 
vt -0.229051 0.292769 
vt 0.0209485 0.251102 
vt -0.229051 0.251102 
vt 0.0209485 0.209435 
vt -0.229051 0.209435 
vt 0.0209485 0.167769 
vt -0.229051 0.167769 
vt 0.0209485 0.126102 
vt -0.229051 0.126102 
vt 0.0209485 0.376102 
vt -0.229051 0.376102 
vt 0.0209485 0.334435 
vt -0.229051 0.334435 
vt 0.0209485 0.292769 
vt -0.229051 0.292769 
vt 0.0209485 0.251102 
vt -0.229051 0.251102 
vt 0.0209485 0.209435 
vt -0.229051 0.209435 
vt 0.0209485 0.167769 
vt -0.229051 0.167769 
vt 0.0209485 0.126102 
vt -0.229051 0.126102 

usemtl Generator1Mtl

f 1/1/1 3/3/3 2/2/2 
f 1/1/1 4/4/4 3/3/3 
f 1/1/1 5/5/5 4/4/4 
f 1/1/1 6/6/6 5/5/5 
f 1/1/1 7/7/7 6/6/6 
f 1/1/1 8/8/8 7/7/7 
f 1/1/1 10/10/10 9/9/9 
f 1/1/1 11/11/11 10/10/10 
f 1/1/1 12/12/12 11/11/11 
f 1/1/1 13/13/13 12/12/12 
f 1/1/1 14/14/14 13/13/13 
f 1/1/1 15/15/15 14/14/14 
f 1/1/1 17/17/17 16/16/16 
f 1/1/1 18/18/18 17/17/17 
f 1/1/1 19/19/19 18/18/18 
f 1/1/1 20/20/20 19/19/19 
f 1/1/1 21/21/21 20/20/20 
f 1/1/1 22/22/22 21/21/21 
f 1/1/1 24/24/24 23/23/23 
f 1/1/1 25/25/25 24/24/24 
f 1/1/1 26/26/26 25/25/25 
f 1/1/1 27/27/27 26/26/26 
f 1/1/1 28/28/28 27/27/27 
f 1/1/1 29/29/29 28/28/28 
f 30/30/30 31/31/31 32/32/32 
f 32/32/32 31/31/31 33/33/33 
f 32/32/32 33/33/33 34/34/34 
f 34/34/34 33/33/33 35/35/35 
f 34/34/34 35/35/35 36/36/36 
f 36/36/36 35/35/35 37/37/37 
f 36/36/36 37/37/37 38/38/38 
f 38/38/38 37/37/37 39/39/39 
f 38/38/38 39/39/39 40/40/40 
f 40/40/40 39/39/39 41/41/41 
f 40/40/40 41/41/41 42/42/42 
f 42/42/42 41/41/41 43/43/43 
f 44/44/44 45/45/45 46/46/46 
f 46/46/46 45/45/45 47/47/47 
f 46/46/46 47/47/47 48/48/48 
f 48/48/48 47/47/47 49/49/49 
f 48/48/48 49/49/49 50/50/50 
f 50/50/50 49/49/49 51/51/51 
f 50/50/50 51/51/51 52/52/52 
f 52/52/52 51/51/51 53/53/53 
f 52/52/52 53/53/53 54/54/54 
f 54/54/54 53/53/53 55/55/55 
f 54/54/54 55/55/55 56/56/56 
f 56/56/56 55/55/55 57/57/57 
f 58/58/58 60/60/60 59/59/59 
f 58/58/58 61/61/61 60/60/60 
f 58/58/58 62/62/62 61/61/61 
f 58/58/58 63/63/63 62/62/62 
f 58/58/58 64/64/64 63/63/63 
f 58/58/58 65/65/65 64/64/64 
f 58/58/58 67/67/67 66/66/66 
f 58/58/58 68/68/68 67/67/67 
f 58/58/58 69/69/69 68/68/68 
f 58/58/58 70/70/70 69/69/69 
f 58/58/58 71/71/71 70/70/70 
f 58/58/58 72/72/72 71/71/71 
f 58/58/58 74/74/74 73/73/73 
f 58/58/58 75/75/75 74/74/74 
f 58/58/58 76/76/76 75/75/75 
f 58/58/58 77/77/77 76/76/76 
f 58/58/58 78/78/78 77/77/77 
f 58/58/58 79/79/79 78/78/78 
f 58/58/58 81/81/81 80/80/80 
f 58/58/58 82/82/82 81/81/81 
f 58/58/58 83/83/83 82/82/82 
f 58/58/58 84/84/84 83/83/83 
f 58/58/58 85/85/85 84/84/84 
f 58/58/58 86/86/86 85/85/85 
f 87/87/87 88/88/88 89/89/89 
f 89/89/89 88/88/88 90/90/90 
f 89/89/89 90/90/90 91/91/91 
f 91/91/91 90/90/90 92/92/92 
f 91/91/91 92/92/92 93/93/93 
f 93/93/93 92/92/92 94/94/94 
f 93/93/93 94/94/94 95/95/95 
f 95/95/95 94/94/94 96/96/96 
f 95/95/95 96/96/96 97/97/97 
f 97/97/97 96/96/96 98/98/98 
f 97/97/97 98/98/98 99/99/99 
f 99/99/99 98/98/98 100/100/100 
f 101/101/101 102/102/102 103/103/103 
f 103/103/103 102/102/102 104/104/104 
f 103/103/103 104/104/104 105/105/105 
f 105/105/105 104/104/104 106/106/106 
f 105/105/105 106/106/106 107/107/107 
f 107/107/107 106/106/106 108/108/108 
f 107/107/107 108/108/108 109/109/109 
f 109/109/109 108/108/108 110/110/110 
f 109/109/109 110/110/110 111/111/111 
f 111/111/111 110/110/110 112/112/112 
f 111/111/111 112/112/112 113/113/113 
f 113/113/113 112/112/112 114/114/114 

g Generator2

v 448.98 1 20 
v 448.98 1.70711 20.7071 
v 448.98 1.5547 20.8321 
v 448.98 1.31623 20.9487 
v 448.98 1 21 
v 448.98 0.683772 20.9487 
v 448.98 0.4453 20.8321 
v 448.98 0.292893 20.7071 
v 448.98 0.292893 20.7071 
v 448.98 0.16795 20.5547 
v 448.98 0.0513166 20.3162 
v 448.98 -1.19209e-07 20 
v 448.98 0.0513166 19.6838 
v 448.98 0.16795 19.4453 
v 448.98 0.292893 19.2929 
v 448.98 0.292893 19.2929 
v 448.98 0.4453 19.1679 
v 448.98 0.683772 19.0513 
v 448.98 1 19 
v 448.98 1.31623 19.0513 
v 448.98 1.5547 19.1679 
v 448.98 1.70711 19.2929 
v 448.98 1.70711 19.2929 
v 448.98 1.83205 19.4453 
v 448.98 1.94868 19.6838 
v 448.98 2 20 
v 448.98 1.94868 20.3162 
v 448.98 1.83205 20.5547 
v 448.98 1.70711 20.7071 

vn -1 0 0 
vn -1 0 0 
vn -1 0 0 
vn -1 0 0 
vn -1 0 0 
vn -1 0 0 
vn -1 0 0 
vn -1 0 0 
vn -1 0 0 
vn -1 0 0 
vn -1 0 0 
vn -1 0 0 
vn -1 0 0 
vn -1 0 0 
vn -1 0 0 
vn -1 0 0 
vn -1 0 0 
vn -1 0 0 
vn -1 0 0 
vn -1 0 0 
vn -1 0 0 
vn -1 0 0 
vn -1 0 0 
vn -1 0 0 
vn -1 0 0 
vn -1 0 0 
vn -1 0 0 
vn -1 0 0 
vn -1 0 0 

vt 0.5 0.5 
vt 0.853553 0.853553 
vt 0.916025 0.77735 
vt 0.974342 0.658114 
vt 1 0.5 
vt 0.974342 0.341886 
vt 0.916025 0.22265 
vt 0.853553 0.146447 
vt 0.853553 0.146447 
vt 0.77735 0.0839748 
vt 0.658114 0.0256584 
vt 0.5 0 
vt 0.341886 0.0256584 
vt 0.22265 0.0839748 
vt 0.146447 0.146447 
vt 0.146447 0.146447 
vt 0.0839748 0.22265 
vt 0.0256583 0.341886 
vt 0 0.5 
vt 0.0256583 0.658114 
vt 0.0839748 0.77735 
vt 0.146447 0.853553 
vt 0.146447 0.853553 
vt 0.22265 0.916025 
vt 0.341886 0.974342 
vt 0.5 1 
vt 0.658114 0.974342 
vt 0.77735 0.916025 
vt 0.853553 0.853553 

usemtl Generator2Mtl

f 115/115/115 117/117/117 116/116/116 
f 115/115/115 118/118/118 117/117/117 
f 115/115/115 119/119/119 118/118/118 
f 115/115/115 120/120/120 119/119/119 
f 115/115/115 121/121/121 120/120/120 
f 115/115/115 122/122/122 121/121/121 
f 115/115/115 124/124/124 123/123/123 
f 115/115/115 125/125/125 124/124/124 
f 115/115/115 126/126/126 125/125/125 
f 115/115/115 127/127/127 126/126/126 
f 115/115/115 128/128/128 127/127/127 
f 115/115/115 129/129/129 128/128/128 
f 115/115/115 131/131/131 130/130/130 
f 115/115/115 132/132/132 131/131/131 
f 115/115/115 133/133/133 132/132/132 
f 115/115/115 134/134/134 133/133/133 
f 115/115/115 135/135/135 134/134/134 
f 115/115/115 136/136/136 135/135/135 
f 115/115/115 138/138/138 137/137/137 
f 115/115/115 139/139/139 138/138/138 
f 115/115/115 140/140/140 139/139/139 
f 115/115/115 141/141/141 140/140/140 
f 115/115/115 142/142/142 141/141/141 
f 115/115/115 143/143/143 142/142/142 

g Generator3

v 451.02 1 20 
v 451.02 1.70711 19.2929 
v 451.02 1.5547 19.1679 
v 451.02 1.31623 19.0513 
v 451.02 1 19 
v 451.02 0.683772 19.0513 
v 451.02 0.4453 19.1679 
v 451.02 0.292893 19.2929 
v 451.02 0.292893 19.2929 
v 451.02 0.16795 19.4453 
v 451.02 0.0513166 19.6838 
v 451.02 -1.19209e-07 20 
v 451.02 0.0513166 20.3162 
v 451.02 0.16795 20.5547 
v 451.02 0.292893 20.7071 
v 451.02 0.292893 20.7071 
v 451.02 0.4453 20.8321 
v 451.02 0.683772 20.9487 
v 451.02 1 21 
v 451.02 1.31623 20.9487 
v 451.02 1.5547 20.8321 
v 451.02 1.70711 20.7071 
v 451.02 1.70711 20.7071 
v 451.02 1.83205 20.5547 
v 451.02 1.94868 20.3162 
v 451.02 2 20 
v 451.02 1.94868 19.6838 
v 451.02 1.83205 19.4453 
v 451.02 1.70711 19.2929 

vn 1 0 0 
vn 1 0 0 
vn 1 0 0 
vn 1 0 0 
vn 1 0 0 
vn 1 0 0 
vn 1 0 0 
vn 1 0 0 
vn 1 0 0 
vn 1 0 0 
vn 1 0 0 
vn 1 0 0 
vn 1 0 0 
vn 1 0 0 
vn 1 0 0 
vn 1 0 0 
vn 1 0 0 
vn 1 0 0 
vn 1 0 0 
vn 1 0 0 
vn 1 0 0 
vn 1 0 0 
vn 1 0 0 
vn 1 0 0 
vn 1 0 0 
vn 1 0 0 
vn 1 0 0 
vn 1 0 0 
vn 1 0 0 

vt 0.5 0.5 
vt 0.853553 0.853553 
vt 0.916025 0.77735 
vt 0.974342 0.658114 
vt 1 0.5 
vt 0.974342 0.341886 
vt 0.916025 0.22265 
vt 0.853553 0.146447 
vt 0.853553 0.146447 
vt 0.77735 0.0839748 
vt 0.658114 0.0256584 
vt 0.5 0 
vt 0.341886 0.0256584 
vt 0.22265 0.0839748 
vt 0.146447 0.146447 
vt 0.146447 0.146447 
vt 0.0839748 0.22265 
vt 0.0256583 0.341886 
vt 0 0.5 
vt 0.0256583 0.658114 
vt 0.0839748 0.77735 
vt 0.146447 0.853553 
vt 0.146447 0.853553 
vt 0.22265 0.916025 
vt 0.341886 0.974342 
vt 0.5 1 
vt 0.658114 0.974342 
vt 0.77735 0.916025 
vt 0.853553 0.853553 

usemtl Generator2Mtl

f 144/144/144 146/146/146 145/145/145 
f 144/144/144 147/147/147 146/146/146 
f 144/144/144 148/148/148 147/147/147 
f 144/144/144 149/149/149 148/148/148 
f 144/144/144 150/150/150 149/149/149 
f 144/144/144 151/151/151 150/150/150 
f 144/144/144 153/153/153 152/152/152 
f 144/144/144 154/154/154 153/153/153 
f 144/144/144 155/155/155 154/154/154 
f 144/144/144 156/156/156 155/155/155 
f 144/144/144 157/157/157 156/156/156 
f 144/144/144 158/158/158 157/157/157 
f 144/144/144 160/160/160 159/159/159 
f 144/144/144 161/161/161 160/160/160 
f 144/144/144 162/162/162 161/161/161 
f 144/144/144 163/163/163 162/162/162 
f 144/144/144 164/164/164 163/163/163 
f 144/144/144 165/165/165 164/164/164 
f 144/144/144 167/167/167 166/166/166 
f 144/144/144 168/168/168 167/167/167 
f 144/144/144 169/169/169 168/168/168 
f 144/144/144 170/170/170 169/169/169 
f 144/144/144 171/171/171 170/170/170 
f 144/144/144 172/172/172 171/171/171 

g Generator4

v 449 1.72128 20.7213 
v 451 1.72128 20.7213 
v 449 1.84874 20.5657 
v 451 1.84874 20.5657 
v 449 1.96758 20.3225 
v 451 1.96758 20.3225 
v 449 2.02 20 
v 451 2.02 20 
v 449 1.96758 19.6775 
v 451 1.96758 19.6775 
v 449 1.84874 19.4343 
v 451 1.84874 19.4343 
v 449 1.72128 19.2787 
v 451 1.72128 19.2787 

vn 0 0.708661 0.708661 
vn 0 0.708661 0.708661 
vn 0 0.834646 0.551181 
vn 0 0.834646 0.551181 
vn 0 0.944882 0.314961 
vn 0 0.944882 0.314961 
vn 0 1 0 
vn 0 1 0 
vn 0 0.944882 -0.314961 
vn 0 0.944882 -0.314961 
vn 0 0.834646 -0.551181 
vn 0 0.834646 -0.551181 
vn 0 0.708661 -0.708661 
vn 0 0.708661 -0.708661 

vt 1 1 
vt 0 1 
vt 1 0.833333 
vt 0 0.833333 
vt 1 0.666667 
vt 0 0.666667 
vt 1 0.5 
vt 0 0.5 
vt 1 0.333333 
vt 0 0.333333 
vt 1 0.166667 
vt 0 0.166667 
vt 1 0 
vt 0 0 

usemtl Generator4Mtl

f 173/173/173 174/174/174 175/175/175 
f 175/175/175 174/174/174 176/176/176 
f 175/175/175 176/176/176 177/177/177 
f 177/177/177 176/176/176 178/178/178 
f 177/177/177 178/178/178 179/179/179 
f 179/179/179 178/178/178 180/180/180 
f 179/179/179 180/180/180 181/181/181 
f 181/181/181 180/180/180 182/182/182 
f 181/181/181 182/182/182 183/183/183 
f 183/183/183 182/182/182 184/184/184 
f 183/183/183 184/184/184 185/185/185 
f 185/185/185 184/184/184 186/186/186 

g Generator5

v 449 0.27872 19.2787 
v 451 0.27872 19.2787 
v 449 0.151257 19.4343 
v 451 0.151257 19.4343 
v 449 0.0324189 19.6775 
v 451 0.0324189 19.6775 
v 449 -0.0200001 20 
v 451 -0.0200001 20 
v 449 0.0324189 20.3225 
v 451 0.0324189 20.3225 
v 449 0.151257 20.5657 
v 451 0.151257 20.5657 
v 449 0.27872 20.7213 
v 451 0.27872 20.7213 

vn 0 -0.708661 -0.708661 
vn 0 -0.708661 -0.708661 
vn 0 -0.834646 -0.551181 
vn 0 -0.834646 -0.551181 
vn 0 -0.944882 -0.314961 
vn 0 -0.944882 -0.314961 
vn 0 -1 0 
vn 0 -1 0 
vn 0 -0.944882 0.314961 
vn 0 -0.944882 0.314961 
vn 0 -0.834646 0.551181 
vn 0 -0.834646 0.551181 
vn 0 -0.708661 0.708661 
vn 0 -0.708661 0.708661 

vt 1 1 
vt 0 1 
vt 1 0.833333 
vt 0 0.833333 
vt 1 0.666667 
vt 0 0.666667 
vt 1 0.5 
vt 0 0.5 
vt 1 0.333333 
vt 0 0.333333 
vt 1 0.166667 
vt 0 0.166667 
vt 1 0 
vt 0 0 

usemtl Generator4Mtl

f 187/187/187 188/188/188 189/189/189 
f 189/189/189 188/188/188 190/190/190 
f 189/189/189 190/190/190 191/191/191 
f 191/191/191 190/190/190 192/192/192 
f 191/191/191 192/192/192 193/193/193 
f 193/193/193 192/192/192 194/194/194 
f 193/193/193 194/194/194 195/195/195 
f 195/195/195 194/194/194 196/196/196 
f 195/195/195 196/196/196 197/197/197 
f 197/197/197 196/196/196 198/198/198 
f 197/197/197 198/198/198 199/199/199 
f 199/199/199 198/198/198 200/200/200 

g Generator6

v 449 1.72128 19.2787 
v 451 1.72128 19.2787 
v 449 1.56572 19.1513 
v 451 1.56572 19.1513 
v 449 1.32253 19.0324 
v 451 1.32253 19.0324 
v 449 1 18.98 
v 451 1 18.98 
v 449 0.677473 19.0324 
v 451 0.677473 19.0324 
v 449 0.434276 19.1513 
v 451 0.434276 19.1513 
v 449 0.27872 19.2787 
v 451 0.27872 19.2787 

vn 0 0.708661 -0.708661 
vn 0 0.708661 -0.708661 
vn 0 0.551181 -0.834646 
vn 0 0.551181 -0.834646 
vn 0 0.314961 -0.944882 
vn 0 0.314961 -0.944882 
vn 0 0 -1 
vn 0 0 -1 
vn 0 -0.314961 -0.944882 
vn 0 -0.314961 -0.944882 
vn 0 -0.551181 -0.834646 
vn 0 -0.551181 -0.834646 
vn 0 -0.708661 -0.708661 
vn 0 -0.708661 -0.708661 

vt 1 1 
vt 0 1 
vt 1 0.833333 
vt 0 0.833333 
vt 1 0.666667 
vt 0 0.666667 
vt 1 0.5 
vt 0 0.5 
vt 1 0.333333 
vt 0 0.333333 
vt 1 0.166667 
vt 0 0.166667 
vt 1 0 
vt 0 0 

usemtl Generator4Mtl

f 201/201/201 202/202/202 203/203/203 
f 203/203/203 202/202/202 204/204/204 
f 203/203/203 204/204/204 205/205/205 
f 205/205/205 204/204/204 206/206/206 
f 205/205/205 206/206/206 207/207/207 
f 207/207/207 206/206/206 208/208/208 
f 207/207/207 208/208/208 209/209/209 
f 209/209/209 208/208/208 210/210/210 
f 209/209/209 210/210/210 211/211/211 
f 211/211/211 210/210/210 212/212/212 
f 211/211/211 212/212/212 213/213/213 
f 213/213/213 212/212/212 214/214/214 

g Generator7

v 451 1.72128 20.7213 
v 449 1.72128 20.7213 
v 451 1.56572 20.8487 
v 449 1.56572 20.8487 
v 451 1.32253 20.9676 
v 449 1.32253 20.9676 
v 451 1 21.02 
v 449 1 21.02 
v 451 0.677473 20.9676 
v 449 0.677473 20.9676 
v 451 0.434276 20.8487 
v 449 0.434276 20.8487 
v 451 0.27872 20.7213 
v 449 0.27872 20.7213 

vn 0 0.708661 0.708661 
vn 0 0.708661 0.708661 
vn 0 0.551181 0.834646 
vn 0 0.551181 0.834646 
vn 0 0.314961 0.944882 
vn 0 0.314961 0.944882 
vn 0 0 1 
vn 0 0 1 
vn 0 -0.314961 0.944882 
vn 0 -0.314961 0.944882 
vn 0 -0.551181 0.834646 
vn 0 -0.551181 0.834646 
vn 0 -0.708661 0.708661 
vn 0 -0.708661 0.708661 

vt 1 1 
vt 0 1 
vt 1 0.833333 
vt 0 0.833333 
vt 1 0.666667 
vt 0 0.666667 
vt 1 0.5 
vt 0 0.5 
vt 1 0.333333 
vt 0 0.333333 
vt 1 0.166667 
vt 0 0.166667 
vt 1 0 
vt 0 0 

usemtl Generator4Mtl

f 215/215/215 216/216/216 217/217/217 
f 217/217/217 216/216/216 218/218/218 
f 217/217/217 218/218/218 219/219/219 
f 219/219/219 218/218/218 220/220/220 
f 219/219/219 220/220/220 221/221/221 
f 221/221/221 220/220/220 222/222/222 
f 221/221/221 222/222/222 223/223/223 
f 223/223/223 222/222/222 224/224/224 
f 223/223/223 224/224/224 225/225/225 
f 225/225/225 224/224/224 226/226/226 
f 225/225/225 226/226/226 227/227/227 
f 227/227/227 226/226/226 228/228/228 

