# This file is brought to you by Roblox Corporation
# Generated by Roblox Studio

mtllib soundmuffler.mtl

g Soundmuffler1

v 452 4 38 
v 452 4 42 
v 452 0 38 
v 452 0 42 
v 448 4 42 
v 452 4 42 
v 448 4 38 
v 452 4 38 
v 452 4 42 
v 448 4 42 
v 452 0 42 
v 448 0 42 
v 448 4 42 
v 448 4 38 
v 448 0 42 
v 448 0 38 
v 448 0 38 
v 452 0 38 
v 448 0 42 
v 452 0 42 
v 448 4 38 
v 452 4 38 
v 448 0 38 
v 452 0 38 

vn 1 0 0 
vn 1 0 0 
vn 1 0 0 
vn 1 0 0 
vn 0 1 0 
vn 0 1 0 
vn 0 1 0 
vn 0 1 0 
vn 0 0 1 
vn 0 0 1 
vn 0 0 1 
vn 0 0 1 
vn -1 0 0 
vn -1 0 0 
vn -1 0 0 
vn -1 0 0 
vn 0 -1 0 
vn 0 -1 0 
vn 0 -1 0 
vn 0 -1 0 
vn 0 0 -1 
vn 0 0 -1 
vn 0 0 -1 
vn 0 0 -1 

vt 0.79973 1.42973 
vt 0.29973 1.42973 
vt 0.79973 0.929734 
vt 0.29973 0.929734 
vt 0.79973 1.42973 
vt 0.29973 1.42973 
vt 0.79973 0.929734 
vt 0.29973 0.929734 
vt 0.79973 1.42973 
vt 0.29973 1.42973 
vt 0.79973 0.929734 
vt 0.29973 0.929734 
vt 0.79973 1.42973 
vt 0.29973 1.42973 
vt 0.79973 0.929734 
vt 0.29973 0.929734 
vt 0.79973 1.42973 
vt 0.29973 1.42973 
vt 0.79973 0.929734 
vt 0.29973 0.929734 
vt 0.79973 1.42973 
vt 0.29973 1.42973 
vt 0.79973 0.929734 
vt 0.29973 0.929734 

usemtl Soundmuffler1Mtl

f 1/1/1 2/2/2 3/3/3 
f 3/3/3 2/2/2 4/4/4 
f 5/5/5 6/6/6 7/7/7 
f 7/7/7 6/6/6 8/8/8 
f 9/9/9 10/10/10 11/11/11 
f 11/11/11 10/10/10 12/12/12 
f 13/13/13 14/14/14 15/15/15 
f 15/15/15 14/14/14 16/16/16 
f 17/17/17 18/18/18 19/19/19 
f 19/19/19 18/18/18 20/20/20 
f 21/21/21 22/22/22 23/23/23 
f 23/23/23 22/22/22 24/24/24 

g Soundmuffler2

v 448 4 37.98 
v 452 4 37.98 
v 448 0 37.98 
v 452 0 37.98 

vn 0 0 -1 
vn 0 0 -1 
vn 0 0 -1 
vn 0 0 -1 

vt 1 1 
vt 0 1 
vt 1 0 
vt 0 0 

usemtl Soundmuffler2Mtl

f 25/25/25 26/26/26 27/27/27 
f 27/27/27 26/26/26 28/28/28 

g Soundmuffler3

v 452 4 42.02 
v 448 4 42.02 
v 452 0 42.02 
v 448 0 42.02 

vn 0 0 1 
vn 0 0 1 
vn 0 0 1 
vn 0 0 1 

vt 1 1 
vt 0 1 
vt 1 0 
vt 0 0 

usemtl Soundmuffler2Mtl

f 29/29/29 30/30/30 31/31/31 
f 31/31/31 30/30/30 32/32/32 

g Soundmuffler4

v 447.98 4 42 
v 447.98 4 38 
v 447.98 0 42 
v 447.98 0 38 

vn -1 0 0 
vn -1 0 0 
vn -1 0 0 
vn -1 0 0 

vt 1 1 
vt 0 1 
vt 1 0 
vt 0 0 

usemtl Soundmuffler2Mtl

f 33/33/33 34/34/34 35/35/35 
f 35/35/35 34/34/34 36/36/36 

g Soundmuffler5

v 452.02 4 38 
v 452.02 4 42 
v 452.02 0 38 
v 452.02 0 42 

vn 1 0 0 
vn 1 0 0 
vn 1 0 0 
vn 1 0 0 

vt 1 1 
vt 0 1 
vt 1 0 
vt 0 0 

usemtl Soundmuffler2Mtl

f 37/37/37 38/38/38 39/39/39 
f 39/39/39 38/38/38 40/40/40 

