# This file is brought to you by Roblox Corporation
# Generated by Roblox Studio

mtllib router.mtl

g Router1

v 152 4 -121 
v 154 4 -121 
v 152 0 -121 
v 154 0 -121 
v 154 4 -117 
v 154 4 -121 
v 152 4 -117 
v 152 4 -121 
v 154 4 -121 
v 154 4 -117 
v 154 0 -121 
v 154 0 -117 
v 154 4 -117 
v 152 4 -117 
v 154 0 -117 
v 152 0 -117 
v 152 0 -117 
v 152 0 -121 
v 154 0 -117 
v 154 0 -121 
v 152 4 -117 
v 152 4 -121 
v 152 0 -117 
v 152 0 -121 

vn 0 0 -1 
vn 0 0 -1 
vn 0 0 -1 
vn 0 0 -1 
vn 0 1 0 
vn 0 1 0 
vn 0 1 0 
vn 0 1 0 
vn 1 0 0 
vn 1 0 0 
vn 1 0 0 
vn 1 0 0 
vn 0 0 1 
vn 0 0 1 
vn 0 0 1 
vn 0 0 1 
vn 0 -1 0 
vn 0 -1 0 
vn 0 -1 0 
vn 0 -1 0 
vn -1 0 0 
vn -1 0 0 
vn -1 0 0 
vn -1 0 0 

vt 6.25 -3 
vt 6 -3 
vt 6.25 -3.5 
vt 6 -3.5 
vt 6.5 -3 
vt 6 -3 
vt 6.5 -3.25 
vt 6 -3.25 
vt 6.5 -3 
vt 6 -3 
vt 6.5 -3.5 
vt 6 -3.5 
vt 6.25 -3 
vt 6 -3 
vt 6.25 -3.5 
vt 6 -3.5 
vt 6.5 -3 
vt 6 -3 
vt 6.5 -3.25 
vt 6 -3.25 
vt 6.5 -3 
vt 6 -3 
vt 6.5 -3.5 
vt 6 -3.5 

usemtl Router1Mtl

f 1/1/1 2/2/2 3/3/3 
f 3/3/3 2/2/2 4/4/4 
f 5/5/5 6/6/6 7/7/7 
f 7/7/7 6/6/6 8/8/8 
f 9/9/9 10/10/10 11/11/11 
f 11/11/11 10/10/10 12/12/12 
f 13/13/13 14/14/14 15/15/15 
f 15/15/15 14/14/14 16/16/16 
f 17/17/17 18/18/18 19/19/19 
f 19/19/19 18/18/18 20/20/20 
f 21/21/21 22/22/22 23/23/23 
f 23/23/23 22/22/22 24/24/24 

g Router2

v 151.98 4 -117 
v 151.98 4 -121 
v 151.98 0 -117 
v 151.98 0 -121 

vn -1 0 0 
vn -1 0 0 
vn -1 0 0 
vn -1 0 0 

vt 1 1 
vt 0 1 
vt 1 0 
vt 0 0 

usemtl Router2Mtl

f 25/25/25 26/26/26 27/27/27 
f 27/27/27 26/26/26 28/28/28 

g Router3

v 154 4.02 -117 
v 154 4.02 -121 
v 152 4.02 -117 
v 152 4.02 -121 

vn 0 1 0 
vn 0 1 0 
vn 0 1 0 
vn 0 1 0 

vt 1 1 
vt 0 1 
vt 1 0 
vt 0 0 

usemtl Router2Mtl

f 29/29/29 30/30/30 31/31/31 
f 31/31/31 30/30/30 32/32/32 

g Router4

v 154 -0.02 -121 
v 154 -0.02 -117 
v 152 -0.02 -121 
v 152 -0.02 -117 

vn 0 -1 0 
vn 0 -1 0 
vn 0 -1 0 
vn 0 -1 0 

vt 1 1 
vt 0 1 
vt 1 0 
vt 0 0 

usemtl Router2Mtl

f 33/33/33 34/34/34 35/35/35 
f 35/35/35 34/34/34 36/36/36 

g Router5

v 154 4 -116.98 
v 152 4 -116.98 
v 154 0 -116.98 
v 152 0 -116.98 

vn 0 0 1 
vn 0 0 1 
vn 0 0 1 
vn 0 0 1 

vt 1 1 
vt 0 1 
vt 1 0 
vt 0 0 

usemtl Router2Mtl

f 37/37/37 38/38/38 39/39/39 
f 39/39/39 38/38/38 40/40/40 

g Router6

v 152 4 -121.02 
v 154 4 -121.02 
v 152 0 -121.02 
v 154 0 -121.02 

vn 0 0 -1 
vn 0 0 -1 
vn 0 0 -1 
vn 0 0 -1 

vt 1 1 
vt 0 1 
vt 1 0 
vt 0 0 

usemtl Router2Mtl

f 41/41/41 42/42/42 43/43/43 
f 43/43/43 42/42/42 44/44/44 

g Router7

v 154.02 4 -121 
v 154.02 4 -117 
v 154.02 0 -121 
v 154.02 0 -117 

vn 1 0 0 
vn 1 0 0 
vn 1 0 0 
vn 1 0 0 

vt 0.485 1 
vt -0.515 1 
vt 0.485 5.96046e-08 
vt -0.515 5.96046e-08 

usemtl Router2Mtl

f 45/45/45 46/46/46 47/47/47 
f 47/47/47 46/46/46 48/48/48 

