# This file is brought to you by Roblox Corporation
# Generated by Roblox Studio

mtllib scanner.mtl

g Scanner1

v 147 5 -129 
v 147 5 -117 
v 147 0 -129 
v 147 0 -117 
v 142 5 -117 
v 147 5 -117 
v 142 5 -129 
v 147 5 -129 
v 147 5 -117 
v 142 5 -117 
v 147 0 -117 
v 142 0 -117 
v 142 5 -117 
v 142 5 -129 
v 142 0 -117 
v 142 0 -129 
v 142 0 -129 
v 147 0 -129 
v 142 0 -117 
v 147 0 -117 
v 142 5 -129 
v 147 5 -129 
v 142 0 -129 
v 147 0 -129 

vn 1 0 0 
vn 1 0 0 
vn 1 0 0 
vn 1 0 0 
vn 0 1 0 
vn 0 1 0 
vn 0 1 0 
vn 0 1 0 
vn 0 0 1 
vn 0 0 1 
vn 0 0 1 
vn 0 0 1 
vn -1 0 0 
vn -1 0 0 
vn -1 0 0 
vn -1 0 0 
vn 0 -1 0 
vn 0 -1 0 
vn 0 -1 0 
vn 0 -1 0 
vn 0 0 -1 
vn 0 0 -1 
vn 0 0 -1 
vn 0 0 -1 

vt 1.2908 0.101674 
vt -0.209198 0.101674 
vt 1.2908 -0.523326 
vt -0.209198 -0.523326 
vt 0.415802 0.101674 
vt -0.209198 0.101674 
vt 0.415802 -1.39833 
vt -0.209198 -1.39833 
vt 0.415802 0.101674 
vt -0.209198 0.101674 
vt 0.415802 -0.523326 
vt -0.209198 -0.523326 
vt 1.2908 0.101674 
vt -0.209198 0.101674 
vt 1.2908 -0.523326 
vt -0.209198 -0.523326 
vt 0.415802 0.101674 
vt -0.209198 0.101674 
vt 0.415802 -1.39833 
vt -0.209198 -1.39833 
vt 0.415802 0.101674 
vt -0.209198 0.101674 
vt 0.415802 -0.523326 
vt -0.209198 -0.523326 

usemtl Scanner1Mtl

f 1/1/1 2/2/2 3/3/3 
f 3/3/3 2/2/2 4/4/4 
f 5/5/5 6/6/6 7/7/7 
f 7/7/7 6/6/6 8/8/8 
f 9/9/9 10/10/10 11/11/11 
f 11/11/11 10/10/10 12/12/12 
f 13/13/13 14/14/14 15/15/15 
f 15/15/15 14/14/14 16/16/16 
f 17/17/17 18/18/18 19/19/19 
f 19/19/19 18/18/18 20/20/20 
f 21/21/21 22/22/22 23/23/23 
f 23/23/23 22/22/22 24/24/24 

g Scanner2

v 142 5.02 -117 
v 147 5.02 -117 
v 142 5.02 -129 
v 147 5.02 -129 

vn 0 1 0 
vn 0 1 0 
vn 0 1 0 
vn 0 1 0 

vt 1 1 
vt 0 1 
vt 1 0 
vt 0 0 

usemtl Scanner2Mtl

f 25/25/25 26/26/26 27/27/27 
f 27/27/27 26/26/26 28/28/28 

g Scanner3

v 142 5 -129.02 
v 147 5 -129.02 
v 142 0 -129.02 
v 147 0 -129.02 

vn 0 0 -1 
vn 0 0 -1 
vn 0 0 -1 
vn 0 0 -1 

vt 1 1 
vt 0 1 
vt 1 0 
vt 0 0 

usemtl Scanner2Mtl

f 29/29/29 30/30/30 31/31/31 
f 31/31/31 30/30/30 32/32/32 

g Scanner4

v 147 5 -116.98 
v 142 5 -116.98 
v 147 0 -116.98 
v 142 0 -116.98 

vn 0 0 1 
vn 0 0 1 
vn 0 0 1 
vn 0 0 1 

vt 1 1 
vt 0 1 
vt 1 0 
vt 0 0 

usemtl Scanner2Mtl

f 33/33/33 34/34/34 35/35/35 
f 35/35/35 34/34/34 36/36/36 

g Scanner5

v 147 -0.02 -117 
v 142 -0.02 -117 
v 147 -0.02 -129 
v 142 -0.02 -129 

vn 0 -1 0 
vn 0 -1 0 
vn 0 -1 0 
vn 0 -1 0 

vt 1 1 
vt 0 1 
vt 1 0 
vt 0 0 

usemtl Scanner2Mtl

f 37/37/37 38/38/38 39/39/39 
f 39/39/39 38/38/38 40/40/40 

g Scanner6

v 147.02 5 -129 
v 147.02 5 -117 
v 147.02 0 -129 
v 147.02 0 -117 

vn 1 0 0 
vn 1 0 0 
vn 1 0 0 
vn 1 0 0 

vt 1 1 
vt 0 1 
vt 1 0 
vt 0 0 

usemtl Scanner2Mtl

f 41/41/41 42/42/42 43/43/43 
f 43/43/43 42/42/42 44/44/44 

g Scanner7

v 141.98 5 -117 
v 141.98 5 -129 
v 141.98 0 -117 
v 141.98 0 -129 

vn -1 0 0 
vn -1 0 0 
vn -1 0 0 
vn -1 0 0 

vt 1 1 
vt 0 1 
vt 1 0 
vt 0 0 

usemtl Scanner2Mtl

f 45/45/45 46/46/46 47/47/47 
f 47/47/47 46/46/46 48/48/48 

