# This file is brought to you by Roblox Corporation
# Generated by Roblox Studio

mtllib rail.mtl

g Rail1

v 442 1 -101 
v 458 1 -101 
v 442 0 -101 
v 458 0 -101 
v 458 1 -99 
v 458 1 -101 
v 442 1 -99 
v 442 1 -101 
v 458 1 -101 
v 458 1 -99 
v 458 0 -101 
v 458 0 -99 
v 458 1 -99 
v 442 1 -99 
v 458 0 -99 
v 442 0 -99 
v 442 0 -99 
v 442 0 -101 
v 458 0 -99 
v 458 0 -101 
v 442 1 -99 
v 442 1 -101 
v 442 0 -99 
v 442 0 -101 

vn 0 0 -1 
vn 0 0 -1 
vn 0 0 -1 
vn 0 0 -1 
vn 0 1 0 
vn 0 1 0 
vn 0 1 0 
vn 0 1 0 
vn 1 0 0 
vn 1 0 0 
vn 1 0 0 
vn 1 0 0 
vn 0 0 1 
vn 0 0 1 
vn 0 0 1 
vn 0 0 1 
vn 0 -1 0 
vn 0 -1 0 
vn 0 -1 0 
vn 0 -1 0 
vn -1 0 0 
vn -1 0 0 
vn -1 0 0 
vn -1 0 0 

vt 8.25 1 
vt 6.25 1 
vt 8.25 0.875 
vt 6.25 0.875 
vt 6.5 1 
vt 6.25 1 
vt 6.5 -1 
vt 6.25 -1 
vt 6.5 1 
vt 6.25 1 
vt 6.5 0.875 
vt 6.25 0.875 
vt 8.25 1 
vt 6.25 1 
vt 8.25 0.875 
vt 6.25 0.875 
vt 6.5 1 
vt 6.25 1 
vt 6.5 -1 
vt 6.25 -1 
vt 6.5 1 
vt 6.25 1 
vt 6.5 0.875 
vt 6.25 0.875 

usemtl Rail1Mtl

f 1/1/1 2/2/2 3/3/3 
f 3/3/3 2/2/2 4/4/4 
f 5/5/5 6/6/6 7/7/7 
f 7/7/7 6/6/6 8/8/8 
f 9/9/9 10/10/10 11/11/11 
f 11/11/11 10/10/10 12/12/12 
f 13/13/13 14/14/14 15/15/15 
f 15/15/15 14/14/14 16/16/16 
f 17/17/17 18/18/18 19/19/19 
f 19/19/19 18/18/18 20/20/20 
f 21/21/21 22/22/22 23/23/23 
f 23/23/23 22/22/22 24/24/24 

g Rail2

v 458 -0.02 -101 
v 458 -0.02 -99 
v 442 -0.02 -101 
v 442 -0.02 -99 

vn 0 -1 0 
vn 0 -1 0 
vn 0 -1 0 
vn 0 -1 0 

vt 1 1 
vt 0 1 
vt 1 -7 
vt 0 -7 

usemtl Rail2Mtl

f 25/25/25 26/26/26 27/27/27 
f 27/27/27 26/26/26 28/28/28 

g Rail3

v 441.98 1 -99 
v 441.98 1 -101 
v 441.98 0 -99 
v 441.98 0 -101 

vn -1 0 0 
vn -1 0 0 
vn -1 0 0 
vn -1 0 0 

vt 1 1 
vt 0 1 
vt 1 0 
vt 0 0 

usemtl Rail3Mtl

f 29/29/29 30/30/30 31/31/31 
f 31/31/31 30/30/30 32/32/32 

g Rail4

v 458.02 1 -101 
v 458.02 1 -99 
v 458.02 0 -101 
v 458.02 0 -99 

vn 1 0 0 
vn 1 0 0 
vn 1 0 0 
vn 1 0 0 

vt 1 1 
vt 0 1 
vt 1 0 
vt 0 0 

usemtl Rail3Mtl

f 33/33/33 34/34/34 35/35/35 
f 35/35/35 34/34/34 36/36/36 

g Rail5

v 458 1.02 -99 
v 458 1.02 -101 
v 442 1.02 -99 
v 442 1.02 -101 

vn 0 1 0 
vn 0 1 0 
vn 0 1 0 
vn 0 1 0 

vt 1 1 
vt 0 1 
vt 1 0 
vt 0 0 

usemtl Rail5Mtl

f 37/37/37 38/38/38 39/39/39 
f 39/39/39 38/38/38 40/40/40 

g Rail6

v 458 1 -98.98 
v 442 1 -98.98 
v 458 0 -98.98 
v 442 0 -98.98 

vn 0 0 1 
vn 0 0 1 
vn 0 0 1 
vn 0 0 1 

vt 1 1 
vt 0 1 
vt 1 0 
vt 0 0 

usemtl Rail6Mtl

f 41/41/41 42/42/42 43/43/43 
f 43/43/43 42/42/42 44/44/44 

g Rail7

v 442 1 -101.02 
v 458 1 -101.02 
v 442 0 -101.02 
v 458 0 -101.02 

vn 0 0 -1 
vn 0 0 -1 
vn 0 0 -1 
vn 0 0 -1 

vt 1 1 
vt 0 1 
vt 1 0 
vt 0 0 

usemtl Rail6Mtl

f 45/45/45 46/46/46 47/47/47 
f 47/47/47 46/46/46 48/48/48 

