# This file is brought to you by Roblox Corporation
# Generated by Roblox Studio

mtllib pulverizer.mtl

g Pulverizer1

v 427.5 5.00001 57.5 
v 432.5 5.00001 57.5 
v 427.5 8.10623e-06 57.5 
v 432.5 8.10623e-06 57.5 
v 432.5 5.00001 62.5 
v 432.5 5.00001 57.5 
v 427.5 5.00001 62.5 
v 427.5 5.00001 57.5 
v 432.5 5.00001 57.5 
v 432.5 5.00001 62.5 
v 432.5 8.10623e-06 57.5 
v 432.5 8.10623e-06 62.5 
v 432.5 5.00001 62.5 
v 427.5 5.00001 62.5 
v 432.5 8.10623e-06 62.5 
v 427.5 8.10623e-06 62.5 
v 427.5 8.10623e-06 62.5 
v 427.5 8.10623e-06 57.5 
v 432.5 8.10623e-06 62.5 
v 432.5 8.10623e-06 57.5 
v 427.5 5.00001 62.5 
v 427.5 5.00001 57.5 
v 427.5 8.10623e-06 62.5 
v 427.5 8.10623e-06 57.5 

vn 0 0 -1 
vn 0 0 -1 
vn 0 0 -1 
vn 0 0 -1 
vn 0 1 0 
vn 0 1 0 
vn 0 1 0 
vn 0 1 0 
vn 1 0 0 
vn 1 0 0 
vn 1 0 0 
vn 1 0 0 
vn 0 0 1 
vn 0 0 1 
vn 0 0 1 
vn 0 0 1 
vn 0 -1 0 
vn 0 -1 0 
vn 0 -1 0 
vn 0 -1 0 
vn -1 0 0 
vn -1 0 0 
vn -1 0 0 
vn -1 0 0 

vt 5.375 0.25 
vt 4.75 0.25 
vt 5.375 -0.375 
vt 4.75 -0.375 
vt 5.375 0.25 
vt 4.75 0.25 
vt 5.375 -0.375 
vt 4.75 -0.375 
vt 5.375 0.25 
vt 4.75 0.25 
vt 5.375 -0.375 
vt 4.75 -0.375 
vt 5.375 0.25 
vt 4.75 0.25 
vt 5.375 -0.375 
vt 4.75 -0.375 
vt 5.375 0.25 
vt 4.75 0.25 
vt 5.375 -0.375 
vt 4.75 -0.375 
vt 5.375 0.25 
vt 4.75 0.25 
vt 5.375 -0.375 
vt 4.75 -0.375 

usemtl Pulverizer1Mtl

f 1/1/1 2/2/2 3/3/3 
f 3/3/3 2/2/2 4/4/4 
f 5/5/5 6/6/6 7/7/7 
f 7/7/7 6/6/6 8/8/8 
f 9/9/9 10/10/10 11/11/11 
f 11/11/11 10/10/10 12/12/12 
f 13/13/13 14/14/14 15/15/15 
f 15/15/15 14/14/14 16/16/16 
f 17/17/17 18/18/18 19/19/19 
f 19/19/19 18/18/18 20/20/20 
f 21/21/21 22/22/22 23/23/23 
f 23/23/23 22/22/22 24/24/24 

g Pulverizer2

v 432.5 5.00001 62.52 
v 427.5 5.00001 62.52 
v 432.5 8.10623e-06 62.52 
v 427.5 8.10623e-06 62.52 

vn 0 0 1 
vn 0 0 1 
vn 0 0 1 
vn 0 0 1 

vt 2.5 1 
vt 0 1 
vt 2.5 -1.5 
vt 0 -1.5 

usemtl Pulverizer2Mtl

f 25/25/25 26/26/26 27/27/27 
f 27/27/27 26/26/26 28/28/28 

g Pulverizer3

v 427.5 5.00001 57.48 
v 432.5 5.00001 57.48 
v 427.5 8.10623e-06 57.48 
v 432.5 8.10623e-06 57.48 

vn 0 0 -1 
vn 0 0 -1 
vn 0 0 -1 
vn 0 0 -1 

vt 2.5 1 
vt 0 1 
vt 2.5 -1.5 
vt 0 -1.5 

usemtl Pulverizer2Mtl

f 29/29/29 30/30/30 31/31/31 
f 31/31/31 30/30/30 32/32/32 

g Pulverizer4

v 432.5 5.02001 62.5 
v 432.5 5.02001 57.5 
v 427.5 5.02001 62.5 
v 427.5 5.02001 57.5 

vn 0 1 0 
vn 0 1 0 
vn 0 1 0 
vn 0 1 0 

vt 1 1 
vt 0 1 
vt 1 0 
vt 0 0 

usemtl Pulverizer4Mtl

f 33/33/33 34/34/34 35/35/35 
f 35/35/35 34/34/34 36/36/36 

g Pulverizer5

v 432.5 -0.0199919 57.5 
v 432.5 -0.0199919 62.5 
v 427.5 -0.0199919 57.5 
v 427.5 -0.0199919 62.5 

vn 0 -1 0 
vn 0 -1 0 
vn 0 -1 0 
vn 0 -1 0 

vt 1 1 
vt 0 1 
vt 1 0 
vt 0 0 

usemtl Pulverizer5Mtl

f 37/37/37 38/38/38 39/39/39 
f 39/39/39 38/38/38 40/40/40 

g Pulverizer6

v 432.52 5.00001 57.5 
v 432.52 5.00001 62.5 
v 432.52 8.10623e-06 57.5 
v 432.52 8.10623e-06 62.5 

vn 1 0 0 
vn 1 0 0 
vn 1 0 0 
vn 1 0 0 

vt 2.5 1 
vt 0 1 
vt 2.5 -1.5 
vt 0 -1.5 

usemtl Pulverizer2Mtl

f 41/41/41 42/42/42 43/43/43 
f 43/43/43 42/42/42 44/44/44 

g Pulverizer7

v 427.48 5.00001 62.5 
v 427.48 5.00001 57.5 
v 427.48 8.10623e-06 62.5 
v 427.48 8.10623e-06 57.5 

vn -1 0 0 
vn -1 0 0 
vn -1 0 0 
vn -1 0 0 

vt 2.5 1 
vt 0 1 
vt 2.5 -1.5 
vt 0 -1.5 

usemtl Pulverizer2Mtl

f 45/45/45 46/46/46 47/47/47 
f 47/47/47 46/46/46 48/48/48 

g Pulverizer8

v 427.48 5.00001 62.5 
v 427.48 5.00001 57.5 
v 427.48 8.10623e-06 62.5 
v 427.48 8.10623e-06 57.5 

vn -1 0 0 
vn -1 0 0 
vn -1 0 0 
vn -1 0 0 

vt 1 1 
vt 0 1 
vt 1 0 
vt 0 0 

usemtl Pulverizer8Mtl

f 49/49/49 50/50/50 51/51/51 
f 51/51/51 50/50/50 52/52/52 

