# This file is brought to you by Roblox Corporation
# Generated by Roblox Studio

mtllib turbofan.mtl

g Turbofan1

v 210 8.10623e-06 100 
v 211.414 8.10623e-06 98.5858 
v 211.109 8.10623e-06 98.3359 
v 210.632 8.10623e-06 98.1026 
v 210 8.10623e-06 98 
v 209.368 8.10623e-06 98.1026 
v 208.891 8.10623e-06 98.3359 
v 208.586 8.10623e-06 98.5858 
v 208.586 8.10623e-06 98.5858 
v 208.336 8.10623e-06 98.8906 
v 208.103 8.10623e-06 99.3675 
v 208 8.10623e-06 100 
v 208.103 8.10623e-06 100.632 
v 208.336 8.10623e-06 101.109 
v 208.586 8.10623e-06 101.414 
v 208.586 8.10623e-06 101.414 
v 208.891 8.10623e-06 101.664 
v 209.368 8.10623e-06 101.897 
v 210 8.10623e-06 102 
v 210.632 8.10623e-06 101.897 
v 211.109 8.10623e-06 101.664 
v 211.414 8.10623e-06 101.414 
v 211.414 8.10623e-06 101.414 
v 211.664 8.10623e-06 101.109 
v 211.897 8.10623e-06 100.632 
v 212 8.10623e-06 100 
v 211.897 8.10623e-06 99.3675 
v 211.664 8.10623e-06 98.8906 
v 211.414 8.10623e-06 98.5858 
v 211.414 6.00001 101.414 
v 211.414 8.10623e-06 101.414 
v 211.664 6.00001 101.109 
v 211.664 8.10623e-06 101.109 
v 211.897 6.00001 100.632 
v 211.897 8.10623e-06 100.632 
v 212 6.00001 100 
v 212 8.10623e-06 100 
v 211.897 6.00001 99.3675 
v 211.897 8.10623e-06 99.3675 
v 211.664 6.00001 98.8906 
v 211.664 8.10623e-06 98.8906 
v 211.414 6.00001 98.5858 
v 211.414 8.10623e-06 98.5858 
v 211.414 8.10623e-06 101.414 
v 211.414 6.00001 101.414 
v 211.109 8.10623e-06 101.664 
v 211.109 6.00001 101.664 
v 210.632 8.10623e-06 101.897 
v 210.632 6.00001 101.897 
v 210 8.10623e-06 102 
v 210 6.00001 102 
v 209.368 8.10623e-06 101.897 
v 209.368 6.00001 101.897 
v 208.891 8.10623e-06 101.664 
v 208.891 6.00001 101.664 
v 208.586 8.10623e-06 101.414 
v 208.586 6.00001 101.414 
v 210 6.00001 100 
v 211.414 6.00001 101.414 
v 211.109 6.00001 101.664 
v 210.632 6.00001 101.897 
v 210 6.00001 102 
v 209.368 6.00001 101.897 
v 208.891 6.00001 101.664 
v 208.586 6.00001 101.414 
v 208.586 6.00001 101.414 
v 208.336 6.00001 101.109 
v 208.103 6.00001 100.632 
v 208 6.00001 100 
v 208.103 6.00001 99.3675 
v 208.336 6.00001 98.8906 
v 208.586 6.00001 98.5858 
v 208.586 6.00001 98.5858 
v 208.891 6.00001 98.3359 
v 209.368 6.00001 98.1026 
v 210 6.00001 98 
v 210.632 6.00001 98.1026 
v 211.109 6.00001 98.3359 
v 211.414 6.00001 98.5858 
v 211.414 6.00001 98.5858 
v 211.664 6.00001 98.8906 
v 211.897 6.00001 99.3675 
v 212 6.00001 100 
v 211.897 6.00001 100.632 
v 211.664 6.00001 101.109 
v 211.414 6.00001 101.414 
v 208.586 6.00001 98.5858 
v 208.586 8.10623e-06 98.5858 
v 208.336 6.00001 98.8906 
v 208.336 8.10623e-06 98.8906 
v 208.103 6.00001 99.3675 
v 208.103 8.10623e-06 99.3675 
v 208 6.00001 100 
v 208 8.10623e-06 100 
v 208.103 6.00001 100.632 
v 208.103 8.10623e-06 100.632 
v 208.336 6.00001 101.109 
v 208.336 8.10623e-06 101.109 
v 208.586 6.00001 101.414 
v 208.586 8.10623e-06 101.414 
v 211.414 6.00001 98.5858 
v 211.414 8.10623e-06 98.5858 
v 211.109 6.00001 98.3359 
v 211.109 8.10623e-06 98.3359 
v 210.632 6.00001 98.1026 
v 210.632 8.10623e-06 98.1026 
v 210 6.00001 98 
v 210 8.10623e-06 98 
v 209.368 6.00001 98.1026 
v 209.368 8.10623e-06 98.1026 
v 208.891 6.00001 98.3359 
v 208.891 8.10623e-06 98.3359 
v 208.586 6.00001 98.5858 
v 208.586 8.10623e-06 98.5858 

vn 0 -1 0 
vn 0 -1 0 
vn 0 -1 0 
vn 0 -1 0 
vn 0 -1 0 
vn 0 -1 0 
vn 0 -1 0 
vn 0 -1 0 
vn 0 -1 0 
vn 0 -1 0 
vn 0 -1 0 
vn 0 -1 0 
vn 0 -1 0 
vn 0 -1 0 
vn 0 -1 0 
vn 0 -1 0 
vn 0 -1 0 
vn 0 -1 0 
vn 0 -1 0 
vn 0 -1 0 
vn 0 -1 0 
vn 0 -1 0 
vn 0 -1 0 
vn 0 -1 0 
vn 0 -1 0 
vn 0 -1 0 
vn 0 -1 0 
vn 0 -1 0 
vn 0 -1 0 
vn 0.708661 0 0.708661 
vn 0.708661 0 0.708661 
vn 0.834646 0 0.551181 
vn 0.834646 0 0.551181 
vn 0.944882 0 0.314961 
vn 0.944882 0 0.314961 
vn 1 0 0 
vn 1 0 0 
vn 0.944882 0 -0.314961 
vn 0.944882 0 -0.314961 
vn 0.834646 0 -0.551181 
vn 0.834646 0 -0.551181 
vn 0.708661 0 -0.708661 
vn 0.708661 0 -0.708661 
vn 0.708661 0 0.708661 
vn 0.708661 0 0.708661 
vn 0.551181 0 0.834646 
vn 0.551181 0 0.834646 
vn 0.314961 0 0.944882 
vn 0.314961 0 0.944882 
vn 0 0 1 
vn 0 0 1 
vn -0.314961 0 0.944882 
vn -0.314961 0 0.944882 
vn -0.551181 0 0.834646 
vn -0.551181 0 0.834646 
vn -0.708661 0 0.708661 
vn -0.708661 0 0.708661 
vn 0 1 0 
vn 0 1 0 
vn 0 1 0 
vn 0 1 0 
vn 0 1 0 
vn 0 1 0 
vn 0 1 0 
vn 0 1 0 
vn 0 1 0 
vn 0 1 0 
vn 0 1 0 
vn 0 1 0 
vn 0 1 0 
vn 0 1 0 
vn 0 1 0 
vn 0 1 0 
vn 0 1 0 
vn 0 1 0 
vn 0 1 0 
vn 0 1 0 
vn 0 1 0 
vn 0 1 0 
vn 0 1 0 
vn 0 1 0 
vn 0 1 0 
vn 0 1 0 
vn 0 1 0 
vn 0 1 0 
vn 0 1 0 
vn -0.708661 0 -0.708661 
vn -0.708661 0 -0.708661 
vn -0.834646 0 -0.551181 
vn -0.834646 0 -0.551181 
vn -0.944882 0 -0.314961 
vn -0.944882 0 -0.314961 
vn -1 0 0 
vn -1 0 0 
vn -0.944882 0 0.314961 
vn -0.944882 0 0.314961 
vn -0.834646 0 0.551181 
vn -0.834646 0 0.551181 
vn -0.708661 0 0.708661 
vn -0.708661 0 0.708661 
vn 0.708661 0 -0.708661 
vn 0.708661 0 -0.708661 
vn 0.551181 0 -0.834646 
vn 0.551181 0 -0.834646 
vn 0.314961 0 -0.944882 
vn 0.314961 0 -0.944882 
vn 0 0 -1 
vn 0 0 -1 
vn -0.314961 0 -0.944882 
vn -0.314961 0 -0.944882 
vn -0.551181 0 -0.834646 
vn -0.551181 0 -0.834646 
vn -0.708661 0 -0.708661 
vn -0.708661 0 -0.708661 

vt 0.5 -0.75 
vt 0.676777 -0.926777 
vt 0.638675 -0.958013 
vt 0.579057 -0.987171 
vt 0.5 -1 
vt 0.420943 -0.987171 
vt 0.361325 -0.958013 
vt 0.323223 -0.926777 
vt 0.323223 -0.926777 
vt 0.291987 -0.888675 
vt 0.262829 -0.829057 
vt 0.25 -0.75 
vt 0.262829 -0.670943 
vt 0.291987 -0.611325 
vt 0.323223 -0.573223 
vt 0.323223 -0.573223 
vt 0.361325 -0.541987 
vt 0.420943 -0.512829 
vt 0.5 -0.5 
vt 0.579057 -0.512829 
vt 0.638675 -0.541987 
vt 0.676777 -0.573223 
vt 0.676777 -0.573223 
vt 0.708013 -0.611325 
vt 0.737171 -0.670943 
vt 0.75 -0.75 
vt 0.737171 -0.829057 
vt 0.708013 -0.888675 
vt 0.676777 -0.926777 
vt 1.25 -2 
vt 0.5 -2 
vt 1.25 -2.08333 
vt 0.5 -2.08333 
vt 1.25 -2.16667 
vt 0.5 -2.16667 
vt 1.25 -2.25 
vt 0.5 -2.25 
vt 1.25 -2.33333 
vt 0.5 -2.33333 
vt 1.25 -2.41667 
vt 0.5 -2.41667 
vt 1.25 -2.5 
vt 0.5 -2.5 
vt 1.25 -2 
vt 0.5 -2 
vt 1.25 -2.08333 
vt 0.5 -2.08333 
vt 1.25 -2.16667 
vt 0.5 -2.16667 
vt 1.25 -2.25 
vt 0.5 -2.25 
vt 1.25 -2.33333 
vt 0.5 -2.33333 
vt 1.25 -2.41667 
vt 0.5 -2.41667 
vt 1.25 -2.5 
vt 0.5 -2.5 
vt 0.5 -0.75 
vt 0.323223 -0.573223 
vt 0.361325 -0.541987 
vt 0.420943 -0.512829 
vt 0.5 -0.5 
vt 0.579057 -0.512829 
vt 0.638675 -0.541987 
vt 0.676777 -0.573223 
vt 0.676777 -0.573223 
vt 0.708013 -0.611325 
vt 0.737171 -0.670943 
vt 0.75 -0.75 
vt 0.737171 -0.829057 
vt 0.708013 -0.888675 
vt 0.676777 -0.926777 
vt 0.676777 -0.926777 
vt 0.638675 -0.958013 
vt 0.579057 -0.987171 
vt 0.5 -1 
vt 0.420943 -0.987171 
vt 0.361325 -0.958013 
vt 0.323223 -0.926777 
vt 0.323223 -0.926777 
vt 0.291987 -0.888675 
vt 0.262829 -0.829057 
vt 0.25 -0.75 
vt 0.262829 -0.670943 
vt 0.291987 -0.611325 
vt 0.323223 -0.573223 
vt 1.25 -2 
vt 0.5 -2 
vt 1.25 -2.08333 
vt 0.5 -2.08333 
vt 1.25 -2.16667 
vt 0.5 -2.16667 
vt 1.25 -2.25 
vt 0.5 -2.25 
vt 1.25 -2.33333 
vt 0.5 -2.33333 
vt 1.25 -2.41667 
vt 0.5 -2.41667 
vt 1.25 -2.5 
vt 0.5 -2.5 
vt 1.25 -2 
vt 0.5 -2 
vt 1.25 -2.08333 
vt 0.5 -2.08333 
vt 1.25 -2.16667 
vt 0.5 -2.16667 
vt 1.25 -2.25 
vt 0.5 -2.25 
vt 1.25 -2.33333 
vt 0.5 -2.33333 
vt 1.25 -2.41667 
vt 0.5 -2.41667 
vt 1.25 -2.5 
vt 0.5 -2.5 

usemtl Turbofan1Mtl

f 1/1/1 3/3/3 2/2/2 
f 1/1/1 4/4/4 3/3/3 
f 1/1/1 5/5/5 4/4/4 
f 1/1/1 6/6/6 5/5/5 
f 1/1/1 7/7/7 6/6/6 
f 1/1/1 8/8/8 7/7/7 
f 1/1/1 10/10/10 9/9/9 
f 1/1/1 11/11/11 10/10/10 
f 1/1/1 12/12/12 11/11/11 
f 1/1/1 13/13/13 12/12/12 
f 1/1/1 14/14/14 13/13/13 
f 1/1/1 15/15/15 14/14/14 
f 1/1/1 17/17/17 16/16/16 
f 1/1/1 18/18/18 17/17/17 
f 1/1/1 19/19/19 18/18/18 
f 1/1/1 20/20/20 19/19/19 
f 1/1/1 21/21/21 20/20/20 
f 1/1/1 22/22/22 21/21/21 
f 1/1/1 24/24/24 23/23/23 
f 1/1/1 25/25/25 24/24/24 
f 1/1/1 26/26/26 25/25/25 
f 1/1/1 27/27/27 26/26/26 
f 1/1/1 28/28/28 27/27/27 
f 1/1/1 29/29/29 28/28/28 
f 30/30/30 31/31/31 32/32/32 
f 32/32/32 31/31/31 33/33/33 
f 32/32/32 33/33/33 34/34/34 
f 34/34/34 33/33/33 35/35/35 
f 34/34/34 35/35/35 36/36/36 
f 36/36/36 35/35/35 37/37/37 
f 36/36/36 37/37/37 38/38/38 
f 38/38/38 37/37/37 39/39/39 
f 38/38/38 39/39/39 40/40/40 
f 40/40/40 39/39/39 41/41/41 
f 40/40/40 41/41/41 42/42/42 
f 42/42/42 41/41/41 43/43/43 
f 44/44/44 45/45/45 46/46/46 
f 46/46/46 45/45/45 47/47/47 
f 46/46/46 47/47/47 48/48/48 
f 48/48/48 47/47/47 49/49/49 
f 48/48/48 49/49/49 50/50/50 
f 50/50/50 49/49/49 51/51/51 
f 50/50/50 51/51/51 52/52/52 
f 52/52/52 51/51/51 53/53/53 
f 52/52/52 53/53/53 54/54/54 
f 54/54/54 53/53/53 55/55/55 
f 54/54/54 55/55/55 56/56/56 
f 56/56/56 55/55/55 57/57/57 
f 58/58/58 60/60/60 59/59/59 
f 58/58/58 61/61/61 60/60/60 
f 58/58/58 62/62/62 61/61/61 
f 58/58/58 63/63/63 62/62/62 
f 58/58/58 64/64/64 63/63/63 
f 58/58/58 65/65/65 64/64/64 
f 58/58/58 67/67/67 66/66/66 
f 58/58/58 68/68/68 67/67/67 
f 58/58/58 69/69/69 68/68/68 
f 58/58/58 70/70/70 69/69/69 
f 58/58/58 71/71/71 70/70/70 
f 58/58/58 72/72/72 71/71/71 
f 58/58/58 74/74/74 73/73/73 
f 58/58/58 75/75/75 74/74/74 
f 58/58/58 76/76/76 75/75/75 
f 58/58/58 77/77/77 76/76/76 
f 58/58/58 78/78/78 77/77/77 
f 58/58/58 79/79/79 78/78/78 
f 58/58/58 81/81/81 80/80/80 
f 58/58/58 82/82/82 81/81/81 
f 58/58/58 83/83/83 82/82/82 
f 58/58/58 84/84/84 83/83/83 
f 58/58/58 85/85/85 84/84/84 
f 58/58/58 86/86/86 85/85/85 
f 87/87/87 88/88/88 89/89/89 
f 89/89/89 88/88/88 90/90/90 
f 89/89/89 90/90/90 91/91/91 
f 91/91/91 90/90/90 92/92/92 
f 91/91/91 92/92/92 93/93/93 
f 93/93/93 92/92/92 94/94/94 
f 93/93/93 94/94/94 95/95/95 
f 95/95/95 94/94/94 96/96/96 
f 95/95/95 96/96/96 97/97/97 
f 97/97/97 96/96/96 98/98/98 
f 97/97/97 98/98/98 99/99/99 
f 99/99/99 98/98/98 100/100/100 
f 101/101/101 102/102/102 103/103/103 
f 103/103/103 102/102/102 104/104/104 
f 103/103/103 104/104/104 105/105/105 
f 105/105/105 104/104/104 106/106/106 
f 105/105/105 106/106/106 107/107/107 
f 107/107/107 106/106/106 108/108/108 
f 107/107/107 108/108/108 109/109/109 
f 109/109/109 108/108/108 110/110/110 
f 109/109/109 110/110/110 111/111/111 
f 111/111/111 110/110/110 112/112/112 
f 111/111/111 112/112/112 113/113/113 
f 113/113/113 112/112/112 114/114/114 

g Turbofan2

v 210 -0.0199919 100 
v 211.414 -0.0199919 98.5858 
v 211.109 -0.0199919 98.3359 
v 210.632 -0.0199919 98.1026 
v 210 -0.0199919 98 
v 209.368 -0.0199919 98.1026 
v 208.891 -0.0199919 98.3359 
v 208.586 -0.0199919 98.5858 
v 208.586 -0.0199919 98.5858 
v 208.336 -0.0199919 98.8906 
v 208.103 -0.0199919 99.3675 
v 208 -0.0199919 100 
v 208.103 -0.0199919 100.632 
v 208.336 -0.0199919 101.109 
v 208.586 -0.0199919 101.414 
v 208.586 -0.0199919 101.414 
v 208.891 -0.0199919 101.664 
v 209.368 -0.0199919 101.897 
v 210 -0.0199919 102 
v 210.632 -0.0199919 101.897 
v 211.109 -0.0199919 101.664 
v 211.414 -0.0199919 101.414 
v 211.414 -0.0199919 101.414 
v 211.664 -0.0199919 101.109 
v 211.897 -0.0199919 100.632 
v 212 -0.0199919 100 
v 211.897 -0.0199919 99.3675 
v 211.664 -0.0199919 98.8906 
v 211.414 -0.0199919 98.5858 

vn 0 -1 0 
vn 0 -1 0 
vn 0 -1 0 
vn 0 -1 0 
vn 0 -1 0 
vn 0 -1 0 
vn 0 -1 0 
vn 0 -1 0 
vn 0 -1 0 
vn 0 -1 0 
vn 0 -1 0 
vn 0 -1 0 
vn 0 -1 0 
vn 0 -1 0 
vn 0 -1 0 
vn 0 -1 0 
vn 0 -1 0 
vn 0 -1 0 
vn 0 -1 0 
vn 0 -1 0 
vn 0 -1 0 
vn 0 -1 0 
vn 0 -1 0 
vn 0 -1 0 
vn 0 -1 0 
vn 0 -1 0 
vn 0 -1 0 
vn 0 -1 0 
vn 0 -1 0 

vt 0.5 0.5 
vt 0.853553 0.146447 
vt 0.77735 0.0839748 
vt 0.658114 0.0256584 
vt 0.5 0 
vt 0.341886 0.0256584 
vt 0.22265 0.0839748 
vt 0.146447 0.146447 
vt 0.146447 0.146447 
vt 0.0839748 0.22265 
vt 0.0256583 0.341886 
vt 0 0.5 
vt 0.0256583 0.658114 
vt 0.0839748 0.77735 
vt 0.146447 0.853553 
vt 0.146447 0.853553 
vt 0.22265 0.916025 
vt 0.341886 0.974342 
vt 0.5 1 
vt 0.658114 0.974342 
vt 0.77735 0.916025 
vt 0.853553 0.853553 
vt 0.853553 0.853553 
vt 0.916025 0.77735 
vt 0.974342 0.658114 
vt 1 0.5 
vt 0.974342 0.341886 
vt 0.916025 0.22265 
vt 0.853553 0.146447 

usemtl Turbofan2Mtl

f 115/115/115 117/117/117 116/116/116 
f 115/115/115 118/118/118 117/117/117 
f 115/115/115 119/119/119 118/118/118 
f 115/115/115 120/120/120 119/119/119 
f 115/115/115 121/121/121 120/120/120 
f 115/115/115 122/122/122 121/121/121 
f 115/115/115 124/124/124 123/123/123 
f 115/115/115 125/125/125 124/124/124 
f 115/115/115 126/126/126 125/125/125 
f 115/115/115 127/127/127 126/126/126 
f 115/115/115 128/128/128 127/127/127 
f 115/115/115 129/129/129 128/128/128 
f 115/115/115 131/131/131 130/130/130 
f 115/115/115 132/132/132 131/131/131 
f 115/115/115 133/133/133 132/132/132 
f 115/115/115 134/134/134 133/133/133 
f 115/115/115 135/135/135 134/134/134 
f 115/115/115 136/136/136 135/135/135 
f 115/115/115 138/138/138 137/137/137 
f 115/115/115 139/139/139 138/138/138 
f 115/115/115 140/140/140 139/139/139 
f 115/115/115 141/141/141 140/140/140 
f 115/115/115 142/142/142 141/141/141 
f 115/115/115 143/143/143 142/142/142 

