# This file is brought to you by Roblox Corporation
# Generated by Roblox Studio

mtllib darkreactor.mtl

g Darkreactor1

v 115 6 -24.5 
v 115 0 -24.5 
v 105 6 -24.5 
v 105 0 -24.5 
v 115 0 -14.5 
v 115 0 -24.5 
v 115 6 -14.5 
v 115 6 -24.5 
v 115 0 -24.5 
v 115 0 -14.5 
v 105 0 -24.5 
v 105 0 -14.5 
v 115 0 -14.5 
v 115 6 -14.5 
v 105 0 -14.5 
v 105 6 -14.5 
v 105 6 -14.5 
v 105 6 -24.5 
v 105 0 -14.5 
v 105 0 -24.5 
v 115 6 -14.5 
v 115 6 -24.5 
v 105 6 -14.5 
v 105 6 -24.5 

vn 0 0 -1 
vn 0 0 -1 
vn 0 0 -1 
vn 0 0 -1 
vn 1 0 0 
vn 1 0 0 
vn 1 0 0 
vn 1 0 0 
vn 0 -1 0 
vn 0 -1 0 
vn 0 -1 0 
vn 0 -1 0 
vn 0 0 1 
vn 0 0 1 
vn 0 0 1 
vn 0 0 1 
vn -1 0 0 
vn -1 0 0 
vn -1 0 0 
vn -1 0 0 
vn 0 1 0 
vn 0 1 0 
vn 0 1 0 
vn 0 1 0 

vt 4.25 -4.75 
vt 3.5 -4.75 
vt 4.25 -6 
vt 3.5 -6 
vt 4.75 -4.75 
vt 3.5 -4.75 
vt 4.75 -5.5 
vt 3.5 -5.5 
vt 4.75 -4.75 
vt 3.5 -4.75 
vt 4.75 -6 
vt 3.5 -6 
vt 4.25 -4.75 
vt 3.5 -4.75 
vt 4.25 -6 
vt 3.5 -6 
vt 4.75 -4.75 
vt 3.5 -4.75 
vt 4.75 -5.5 
vt 3.5 -5.5 
vt 4.75 -4.75 
vt 3.5 -4.75 
vt 4.75 -6 
vt 3.5 -6 

usemtl Darkreactor1Mtl

f 1/1/1 2/2/2 3/3/3 
f 3/3/3 2/2/2 4/4/4 
f 5/5/5 6/6/6 7/7/7 
f 7/7/7 6/6/6 8/8/8 
f 9/9/9 10/10/10 11/11/11 
f 11/11/11 10/10/10 12/12/12 
f 13/13/13 14/14/14 15/15/15 
f 15/15/15 14/14/14 16/16/16 
f 17/17/17 18/18/18 19/19/19 
f 19/19/19 18/18/18 20/20/20 
f 21/21/21 22/22/22 23/23/23 
f 23/23/23 22/22/22 24/24/24 

g Darkreactor2

v 115 0 -14.48 
v 115 6 -14.48 
v 105 0 -14.48 
v 105 6 -14.48 

vn 0 0 1 
vn 0 0 1 
vn 0 0 1 
vn 0 0 1 

vt 3 1 
vt 0 1 
vt 3 -4 
vt 0 -4 

usemtl Darkreactor2Mtl

f 25/25/25 26/26/26 27/27/27 
f 27/27/27 26/26/26 28/28/28 

g Darkreactor3

v 115 6 -24.52 
v 115 0 -24.52 
v 105 6 -24.52 
v 105 0 -24.52 

vn 0 0 -1 
vn 0 0 -1 
vn 0 0 -1 
vn 0 0 -1 

vt 3 1 
vt 0 1 
vt 3 -4 
vt 0 -4 

usemtl Darkreactor2Mtl

f 29/29/29 30/30/30 31/31/31 
f 31/31/31 30/30/30 32/32/32 

g Darkreactor4

v 104.98 0 -24.5 
v 104.98 0 -14.5 
v 104.98 6 -24.5 
v 104.98 6 -14.5 

vn -1 0 0 
vn -1 0 0 
vn -1 0 0 
vn -1 0 0 

vt 5 1 
vt 0 1 
vt 5 -2 
vt 0 -2 

usemtl Darkreactor4Mtl

f 33/33/33 34/34/34 35/35/35 
f 35/35/35 34/34/34 36/36/36 

g Darkreactor5

v 115.02 0 -14.5 
v 115.02 0 -24.5 
v 115.02 6 -14.5 
v 115.02 6 -24.5 

vn 1 0 0 
vn 1 0 0 
vn 1 0 0 
vn 1 0 0 

vt 5 1 
vt 0 1 
vt 5 -2 
vt 0 -2 

usemtl Darkreactor4Mtl

f 37/37/37 38/38/38 39/39/39 
f 39/39/39 38/38/38 40/40/40 

g Darkreactor6

v 115 -0.02 -24.5 
v 115 -0.02 -14.5 
v 105 -0.02 -24.5 
v 105 -0.02 -14.5 

vn 0 -1 0 
vn 0 -1 0 
vn 0 -1 0 
vn 0 -1 0 

vt 2.5 1 
vt 0 1 
vt 2.5 -1.5 
vt 0 -1.5 

usemtl Darkreactor6Mtl

f 41/41/41 42/42/42 43/43/43 
f 43/43/43 42/42/42 44/44/44 

g Darkreactor7

v 115 6.02 -14.5 
v 115 6.02 -24.5 
v 105 6.02 -14.5 
v 105 6.02 -24.5 

vn 0 1 0 
vn 0 1 0 
vn 0 1 0 
vn 0 1 0 

vt 1 1 
vt 0 1 
vt 1 0 
vt 0 0 

usemtl Darkreactor7Mtl

f 45/45/45 46/46/46 47/47/47 
f 47/47/47 46/46/46 48/48/48 

g Darkreactor8

v 115 6.02 -14.5 
v 115 6.02 -24.5 
v 105 6.02 -14.5 
v 105 6.02 -24.5 

vn 0 1 0 
vn 0 1 0 
vn 0 1 0 
vn 0 1 0 

vt 1 1 
vt 0 1 
vt 1 0 
vt 0 0 

usemtl Darkreactor8Mtl

f 49/49/49 50/50/50 51/51/51 
f 51/51/51 50/50/50 52/52/52 

g Darkreactor9

v 115 6.02 -14.5 
v 115 6.02 -24.5 
v 105 6.02 -14.5 
v 105 6.02 -24.5 

vn 0 1 0 
vn 0 1 0 
vn 0 1 0 
vn 0 1 0 

vt 1 1 
vt 0 1 
vt 1 0 
vt 0 0 

usemtl Darkreactor9Mtl

f 53/53/53 54/54/54 55/55/55 
f 55/55/55 54/54/54 56/56/56 

g Darkreactor10

v 115 6.02 -14.5 
v 115 6.02 -24.5 
v 105 6.02 -14.5 
v 105 6.02 -24.5 

vn 0 1 0 
vn 0 1 0 
vn 0 1 0 
vn 0 1 0 

vt 1 1 
vt 0 1 
vt 1 0 
vt 0 0 

usemtl Darkreactor10Mtl

f 57/57/57 58/58/58 59/59/59 
f 59/59/59 58/58/58 60/60/60 

g Darkreactor11

v 115 6.02 -14.5 
v 115 6.02 -24.5 
v 105 6.02 -14.5 
v 105 6.02 -24.5 

vn 0 1 0 
vn 0 1 0 
vn 0 1 0 
vn 0 1 0 

vt 1 1 
vt 0 1 
vt 1 0 
vt 0 0 

usemtl Darkreactor11Mtl

f 61/61/61 62/62/62 63/63/63 
f 63/63/63 62/62/62 64/64/64 

g Darkreactor12

v 115 6.02 -14.5 
v 115 6.02 -24.5 
v 105 6.02 -14.5 
v 105 6.02 -24.5 

vn 0 1 0 
vn 0 1 0 
vn 0 1 0 
vn 0 1 0 

vt 1 1 
vt 0 1 
vt 1 0 
vt 0 0 

usemtl Darkreactor12Mtl

f 65/65/65 66/66/66 67/67/67 
f 67/67/67 66/66/66 68/68/68 

