# This file is brought to you by Roblox Corporation
# Generated by Roblox Studio

mtllib forge.mtl

g Forge1

v 332.5 5.00001 -82.5 
v 332.5 5.00001 -77.5 
v 332.5 8.10623e-06 -82.5 
v 332.5 8.10623e-06 -77.5 
v 327.5 5.00001 -77.5 
v 332.5 5.00001 -77.5 
v 327.5 5.00001 -82.5 
v 332.5 5.00001 -82.5 
v 332.5 5.00001 -77.5 
v 327.5 5.00001 -77.5 
v 332.5 8.10623e-06 -77.5 
v 327.5 8.10623e-06 -77.5 
v 327.5 5.00001 -77.5 
v 327.5 5.00001 -82.5 
v 327.5 8.10623e-06 -77.5 
v 327.5 8.10623e-06 -82.5 
v 327.5 8.10623e-06 -82.5 
v 332.5 8.10623e-06 -82.5 
v 327.5 8.10623e-06 -77.5 
v 332.5 8.10623e-06 -77.5 
v 327.5 5.00001 -82.5 
v 332.5 5.00001 -82.5 
v 327.5 8.10623e-06 -82.5 
v 332.5 8.10623e-06 -82.5 

vn 1 0 0 
vn 1 0 0 
vn 1 0 0 
vn 1 0 0 
vn 0 1 0 
vn 0 1 0 
vn 0 1 0 
vn 0 1 0 
vn 0 0 1 
vn 0 0 1 
vn 0 0 1 
vn 0 0 1 
vn -1 0 0 
vn -1 0 0 
vn -1 0 0 
vn -1 0 0 
vn 0 -1 0 
vn 0 -1 0 
vn 0 -1 0 
vn 0 -1 0 
vn 0 0 -1 
vn 0 0 -1 
vn 0 0 -1 
vn 0 0 -1 

vt 5.375 -5.25 
vt 4.75 -5.25 
vt 5.375 -5.875 
vt 4.75 -5.875 
vt 5.375 -5.25 
vt 4.75 -5.25 
vt 5.375 -5.875 
vt 4.75 -5.875 
vt 5.375 -5.25 
vt 4.75 -5.25 
vt 5.375 -5.875 
vt 4.75 -5.875 
vt 5.375 -5.25 
vt 4.75 -5.25 
vt 5.375 -5.875 
vt 4.75 -5.875 
vt 5.375 -5.25 
vt 4.75 -5.25 
vt 5.375 -5.875 
vt 4.75 -5.875 
vt 5.375 -5.25 
vt 4.75 -5.25 
vt 5.375 -5.875 
vt 4.75 -5.875 

usemtl Forge1Mtl

f 1/1/1 2/2/2 3/3/3 
f 3/3/3 2/2/2 4/4/4 
f 5/5/5 6/6/6 7/7/7 
f 7/7/7 6/6/6 8/8/8 
f 9/9/9 10/10/10 11/11/11 
f 11/11/11 10/10/10 12/12/12 
f 13/13/13 14/14/14 15/15/15 
f 15/15/15 14/14/14 16/16/16 
f 17/17/17 18/18/18 19/19/19 
f 19/19/19 18/18/18 20/20/20 
f 21/21/21 22/22/22 23/23/23 
f 23/23/23 22/22/22 24/24/24 

g Forge2

v 327.5 5.02001 -77.5 
v 332.5 5.02001 -77.5 
v 327.5 5.02001 -82.5 
v 332.5 5.02001 -82.5 

vn 0 1 0 
vn 0 1 0 
vn 0 1 0 
vn 0 1 0 

vt 1 1 
vt 0 1 
vt 1 0 
vt 0 0 

usemtl Forge2Mtl

f 25/25/25 26/26/26 27/27/27 
f 27/27/27 26/26/26 28/28/28 

g Forge3

v 332.5 -0.0199919 -77.5 
v 327.5 -0.0199919 -77.5 
v 332.5 -0.0199919 -82.5 
v 327.5 -0.0199919 -82.5 

vn 0 -1 0 
vn 0 -1 0 
vn 0 -1 0 
vn 0 -1 0 

vt 1 1 
vt 0 1 
vt 1 0 
vt 0 0 

usemtl Forge3Mtl

f 29/29/29 30/30/30 31/31/31 
f 31/31/31 30/30/30 32/32/32 

