# This file is brought to you by Roblox Corporation
# Generated by Roblox Studio

mtllib cornerroundwedge.mtl

g Cornerroundwedge1

v 411 5 -121 
v 410.809 5.60302 -120.397 
v 410.897 5 -120.368 
v 410.897 5.63245 -121 
v 410.604 6.06904 -120.465 
v 410.809 5.60302 -120.397 
v 411 5 -121 
v 410.897 5 -120.368 
v 410.604 5.53452 -119.931 
v 410.664 5 -119.891 
v 410.664 5 -119.891 
v 410.376 5.45883 -119.624 
v 410.414 5 -119.586 
v 410.809 5.60302 -120.397 
v 410.455 5.97014 -120.03 
v 410.604 5.53452 -119.931 
v 410.897 5 -120.368 
v 410.376 5.45883 -119.624 
v 410.664 5 -119.891 
v 410.279 5.8528 -119.721 
v 410.414 6.41421 -121 
v 410.376 6.37649 -120.541 
v 410.664 6.1094 -121 
v 410.279 6.2792 -120.147 
v 410.604 6.06904 -120.465 
v 410.155 6.1547 -119.845 
v 410.455 5.97014 -120.03 
v 410.664 6.1094 -121 
v 410.376 6.37649 -120.541 
v 410.604 6.06904 -120.465 
v 410.897 5.63245 -121 
v 410.455 5.97014 -120.03 
v 410.809 5.60302 -120.397 
v 410.279 6.2792 -120.147 
v 410.279 5.8528 -119.721 
v 410.604 5.53452 -119.931 
v 410.155 6.1547 -119.845 
v 409 7 -121 
v 409 6.89737 -120.368 
v 409.632 6.89737 -121 
v 409.632 6.89737 -121 
v 409 6.89737 -120.368 
v 409.603 6.80907 -120.397 
v 410.109 6.6641 -121 
v 409 6.89737 -120.368 
v 409 6.6641 -119.891 
v 409.603 6.80907 -120.397 
v 410.109 6.6641 -121 
v 409.603 6.80907 -120.397 
v 410.069 6.60357 -120.465 
v 410.414 6.41421 -121 
v 409 6.6641 -119.891 
v 409 6.41421 -119.586 
v 409.535 6.60357 -119.931 
v 409.603 6.80907 -120.397 
v 409 6.6641 -119.891 
v 409.535 6.60357 -119.931 
v 410.069 6.60357 -120.465 
v 409.535 6.60357 -119.931 
v 409 6.41421 -119.586 
v 409.459 6.37649 -119.624 
v 409.97 6.45521 -120.03 
v 410.069 6.60357 -120.465 
v 409.535 6.60357 -119.931 
v 409.97 6.45521 -120.03 
v 410.376 6.37649 -120.541 
v 410.414 6.41421 -121 
v 410.069 6.60357 -120.465 
v 410.376 6.37649 -120.541 
v 409.97 6.45521 -120.03 
v 410.279 6.2792 -120.147 
v 409.853 6.2792 -119.721 
v 410.155 6.1547 -119.845 
v 409.97 6.45521 -120.03 
v 409.459 6.37649 -119.624 
v 409.853 6.2792 -119.721 
v 410.279 6.2792 -120.147 
v 409 5.63245 -119.103 
v 409 5 -119 
v 409.603 5.60302 -119.191 
v 409.603 5.60302 -119.191 
v 409 5 -119 
v 409.632 5 -119.103 
v 410.069 5.53452 -119.396 
v 409 6.1094 -119.336 
v 409 5.63245 -119.103 
v 409.535 6.06904 -119.396 
v 409 6.41421 -119.586 
v 409 6.1094 -119.336 
v 409.459 6.37649 -119.624 
v 409.459 6.37649 -119.624 
v 409 6.1094 -119.336 
v 409.535 6.06904 -119.396 
v 409.853 6.2792 -119.721 
v 409.603 5.60302 -119.191 
v 409.97 5.97014 -119.545 
v 409 5.63245 -119.103 
v 410.155 6.1547 -119.845 
v 409.97 5.97014 -119.545 
v 410.279 5.8528 -119.721 
v 410.069 5.53452 -119.396 
v 410.376 5.45883 -119.624 
v 410.109 5 -119.336 
v 410.414 5 -119.586 
v 409.853 6.2792 -119.721 
v 409.535 6.06904 -119.396 
v 409.97 5.97014 -119.545 
v 410.155 6.1547 -119.845 
v 410.069 5.53452 -119.396 
v 410.279 5.8528 -119.721 
v 409.603 5.60302 -119.191 
v 410.109 5 -119.336 
v 410.376 5.45883 -119.624 
v 409.632 5 -119.103 
v 409 5 -121 
v 409 6.89737 -120.368 
v 409 7 -121 
v 409 6.89737 -120.368 
v 409 5 -121 
v 409 6.6641 -119.891 
v 409 6.6641 -119.891 
v 409 5 -121 
v 409 6.41421 -119.586 
v 409 6.1094 -119.336 
v 409 6.41421 -119.586 
v 409 5 -121 
v 409 5.63245 -119.103 
v 409 6.1094 -119.336 
v 409 5 -121 
v 409 5 -119 
v 409 5.63245 -119.103 
v 409 5 -121 
v 409.632 5 -119.103 
v 409 5 -119 
v 409 5 -121 
v 410.109 5 -119.336 
v 409 5 -121 
v 410.414 5 -119.586 
v 410.109 5 -119.336 
v 409.632 5 -119.103 
v 409 5 -121 
v 410.897 5 -120.368 
v 410.664 5 -119.891 
v 409 5 -121 
v 410.664 5 -119.891 
v 410.414 5 -119.586 
v 409 5 -121 
v 409 5 -121 
v 411 5 -121 
v 410.897 5 -120.368 
v 410.664 6.1094 -121 
v 409 5 -121 
v 410.414 6.41421 -121 
v 409.632 6.89737 -121 
v 410.109 6.6641 -121 
v 409 5 -121 
v 410.414 6.41421 -121 
v 409 5 -121 
v 410.109 6.6641 -121 
v 409 5 -121 
v 409 7 -121 
v 409.632 6.89737 -121 
v 410.897 5.63245 -121 
v 409 5 -121 
v 410.664 6.1094 -121 
v 411 5 -121 
v 409 5 -121 
v 410.897 5.63245 -121 

vn 0.976378 0.15748 0.15748 
vn 0.913386 0.283465 0.283465 
vn 0.944882 0.149606 0.299213 
vn 0.944882 0.299213 0.149606 
vn 0.818898 0.519685 0.251969 
vn 0.913386 0.283465 0.283465 
vn 0.976378 0.15748 0.15748 
vn 0.944882 0.149606 0.299213 
vn 0.818898 0.251969 0.519685 
vn 0.834646 0.125984 0.535433 
vn 0.834646 0.125984 0.535433 
vn 0.692913 0.212598 0.692913 
vn 0.700787 0.11811 0.700787 
vn 0.913386 0.283465 0.283465 
vn 0.748031 0.472441 0.472441 
vn 0.818898 0.251969 0.519685 
vn 0.944882 0.149606 0.299213 
vn 0.692913 0.212598 0.692913 
vn 0.834646 0.125984 0.535433 
vn 0.645669 0.417323 0.645669 
vn 0.700787 0.708661 0.11811 
vn 0.685039 0.692913 0.220472 
vn 0.834646 0.535433 0.125984 
vn 0.629921 0.653543 0.409449 
vn 0.818898 0.519685 0.251969 
vn 0.566929 0.598425 0.566929 
vn 0.748031 0.472441 0.472441 
vn 0.834646 0.535433 0.125984 
vn 0.685039 0.692913 0.220472 
vn 0.818898 0.519685 0.251969 
vn 0.944882 0.299213 0.149606 
vn 0.748031 0.472441 0.472441 
vn 0.913386 0.283465 0.283465 
vn 0.629921 0.653543 0.409449 
vn 0.645669 0.417323 0.645669 
vn 0.818898 0.251969 0.519685 
vn 0.566929 0.598425 0.566929 
vn 0.15748 0.976378 0.15748 
vn 0.15748 0.944882 0.299213 
vn 0.299213 0.944882 0.15748 
vn 0.299213 0.944882 0.15748 
vn 0.15748 0.944882 0.299213 
vn 0.291339 0.913386 0.291339 
vn 0.527559 0.834646 0.141732 
vn 0.15748 0.944882 0.299213 
vn 0.141732 0.834646 0.527559 
vn 0.291339 0.913386 0.291339 
vn 0.527559 0.834646 0.141732 
vn 0.291339 0.913386 0.291339 
vn 0.519685 0.811024 0.259843 
vn 0.700787 0.708661 0.11811 
vn 0.141732 0.834646 0.527559 
vn 0.11811 0.708661 0.700787 
vn 0.259843 0.811024 0.519685 
vn 0.291339 0.913386 0.291339 
vn 0.141732 0.834646 0.527559 
vn 0.259843 0.811024 0.519685 
vn 0.519685 0.811024 0.259843 
vn 0.259843 0.811024 0.519685 
vn 0.11811 0.708661 0.700787 
vn 0.220472 0.692913 0.685039 
vn 0.472441 0.740157 0.472441 
vn 0.519685 0.811024 0.259843 
vn 0.259843 0.811024 0.519685 
vn 0.472441 0.740157 0.472441 
vn 0.685039 0.692913 0.220472 
vn 0.700787 0.708661 0.11811 
vn 0.519685 0.811024 0.259843 
vn 0.685039 0.692913 0.220472 
vn 0.472441 0.740157 0.472441 
vn 0.629921 0.653543 0.409449 
vn 0.409449 0.653543 0.629921 
vn 0.566929 0.598425 0.566929 
vn 0.472441 0.740157 0.472441 
vn 0.220472 0.692913 0.685039 
vn 0.409449 0.653543 0.629921 
vn 0.629921 0.653543 0.409449 
vn 0.149606 0.299213 0.944882 
vn 0.15748 0.15748 0.976378 
vn 0.283465 0.283465 0.913386 
vn 0.283465 0.283465 0.913386 
vn 0.15748 0.15748 0.976378 
vn 0.299213 0.149606 0.944882 
vn 0.519685 0.251969 0.818898 
vn 0.125984 0.535433 0.834646 
vn 0.149606 0.299213 0.944882 
vn 0.251969 0.519685 0.818898 
vn 0.11811 0.708661 0.700787 
vn 0.125984 0.535433 0.834646 
vn 0.220472 0.692913 0.685039 
vn 0.220472 0.692913 0.685039 
vn 0.125984 0.535433 0.834646 
vn 0.251969 0.519685 0.818898 
vn 0.409449 0.653543 0.629921 
vn 0.283465 0.283465 0.913386 
vn 0.472441 0.472441 0.748031 
vn 0.149606 0.299213 0.944882 
vn 0.566929 0.598425 0.566929 
vn 0.472441 0.472441 0.748031 
vn 0.645669 0.417323 0.645669 
vn 0.519685 0.251969 0.818898 
vn 0.692913 0.212598 0.692913 
vn 0.535433 0.125984 0.834646 
vn 0.700787 0.11811 0.700787 
vn 0.409449 0.653543 0.629921 
vn 0.251969 0.519685 0.818898 
vn 0.472441 0.472441 0.748031 
vn 0.566929 0.598425 0.566929 
vn 0.519685 0.251969 0.818898 
vn 0.645669 0.417323 0.645669 
vn 0.283465 0.283465 0.913386 
vn 0.535433 0.125984 0.834646 
vn 0.692913 0.212598 0.692913 
vn 0.299213 0.149606 0.944882 
vn -1 0 0 
vn -1 0 0 
vn -1 0 0 
vn -1 0 0 
vn -1 0 0 
vn -1 0 0 
vn -1 0 0 
vn -1 0 0 
vn -1 0 0 
vn -1 0 0 
vn -1 0 0 
vn -1 0 0 
vn -1 0 0 
vn -1 0 0 
vn -1 0 0 
vn -1 0 0 
vn -1 0 0 
vn -1 0 0 
vn 0 -1 0 
vn 0 -1 0 
vn 0 -1 0 
vn 0 -1 0 
vn 0 -1 0 
vn 0 -1 0 
vn 0 -1 0 
vn 0 -1 0 
vn 0 -1 0 
vn 0 -1 0 
vn 0 -1 0 
vn 0 -1 0 
vn 0 -1 0 
vn 0 -1 0 
vn 0 -1 0 
vn 0 -1 0 
vn 0 -1 0 
vn 0 -1 0 
vn 0 0 -1 
vn 0 0 -1 
vn 0 0 -1 
vn 0 0 -1 
vn 0 0 -1 
vn 0 0 -1 
vn 0 0 -1 
vn 0 0 -1 
vn 0 0 -1 
vn 0 0 -1 
vn 0 0 -1 
vn 0 0 -1 
vn 0 0 -1 
vn 0 0 -1 
vn 0 0 -1 
vn 0 0 -1 
vn 0 0 -1 
vn 0 0 -1 

vt 1.95545 -2.10748 
vt 1.88007 -2.0321 
vt 1.87639 -2.10748 
vt 1.95545 -2.02842 
vt 1.88863 -1.97385 
vt 1.88007 -2.0321 
vt 1.95545 -2.10748 
vt 1.87639 -2.10748 
vt 1.82182 -2.04066 
vt 1.81677 -2.10748 
vt 1.81677 -2.10748 
vt 1.78339 -2.05013 
vt 1.77867 -2.10748 
vt 1.88007 -2.0321 
vt 1.83418 -1.98621 
vt 1.82182 -2.04066 
vt 1.87639 -2.10748 
vt 1.78339 -2.05013 
vt 1.81677 -2.10748 
vt 1.79555 -2.00088 
vt 1.95545 -1.9307 
vt 1.8981 -1.93542 
vt 1.95545 -1.96881 
vt 1.84885 -1.94758 
vt 1.88863 -1.97385 
vt 1.81111 -1.96314 
vt 1.83418 -1.98621 
vt 1.95545 -1.96881 
vt 1.8981 -1.93542 
vt 1.88863 -1.97385 
vt 1.95545 -2.02842 
vt 1.83418 -1.98621 
vt 1.88007 -2.0321 
vt 1.84885 -1.94758 
vt 1.79555 -2.00088 
vt 1.82182 -2.04066 
vt 1.81111 -1.96314 
vt 1.95545 -2.10748 
vt 1.95545 -2.02842 
vt 1.87639 -2.10748 
vt 1.87639 -2.10748 
vt 1.95545 -2.02842 
vt 1.88007 -2.0321 
vt 1.81677 -2.10748 
vt 1.95545 -2.02842 
vt 1.95545 -1.96881 
vt 1.88007 -2.0321 
vt 1.81677 -2.10748 
vt 1.88007 -2.0321 
vt 1.82182 -2.04067 
vt 1.77867 -2.10748 
vt 1.95545 -1.96881 
vt 1.95545 -1.9307 
vt 1.88863 -1.97385 
vt 1.88007 -2.0321 
vt 1.95545 -1.96881 
vt 1.88863 -1.97385 
vt 1.82182 -2.04067 
vt 1.88863 -1.97385 
vt 1.95545 -1.9307 
vt 1.8981 -1.93542 
vt 1.83418 -1.98621 
vt 1.82182 -2.04067 
vt 1.88863 -1.97385 
vt 1.83418 -1.98621 
vt 1.78339 -2.05013 
vt 1.77867 -2.10748 
vt 1.82182 -2.04067 
vt 1.78339 -2.05013 
vt 1.83418 -1.98621 
vt 1.79555 -2.00088 
vt 1.84885 -1.94758 
vt 1.81111 -1.96314 
vt 1.83418 -1.98621 
vt 1.8981 -1.93542 
vt 1.84885 -1.94758 
vt 1.79555 -2.00088 
vt 1.70545 -2.02842 
vt 1.70545 -2.10748 
vt 1.78083 -2.0321 
vt 1.78083 -2.0321 
vt 1.70545 -2.10748 
vt 1.78451 -2.10748 
vt 1.83908 -2.04066 
vt 1.70545 -1.96881 
vt 1.70545 -2.02842 
vt 1.77227 -1.97385 
vt 1.70545 -1.9307 
vt 1.70545 -1.96881 
vt 1.7628 -1.93542 
vt 1.7628 -1.93542 
vt 1.70545 -1.96881 
vt 1.77227 -1.97385 
vt 1.81205 -1.94758 
vt 1.78083 -2.0321 
vt 1.82672 -1.98621 
vt 1.70545 -2.02842 
vt 1.84979 -1.96314 
vt 1.82672 -1.98621 
vt 1.86535 -2.00088 
vt 1.83908 -2.04066 
vt 1.87751 -2.05013 
vt 1.84412 -2.10748 
vt 1.88223 -2.10748 
vt 1.81205 -1.94758 
vt 1.77227 -1.97385 
vt 1.82672 -1.98621 
vt 1.84979 -1.96314 
vt 1.83908 -2.04066 
vt 1.86535 -2.00088 
vt 1.78083 -2.0321 
vt 1.84412 -2.10748 
vt 1.87751 -2.05013 
vt 1.78451 -2.10748 
vt 1.70545 -2.10748 
vt 1.78451 -1.87031 
vt 1.70545 -1.85748 
vt 1.78451 -1.87031 
vt 1.70545 -2.10748 
vt 1.84412 -1.89947 
vt 1.84412 -1.89947 
vt 1.70545 -2.10748 
vt 1.88223 -1.9307 
vt 1.91346 -1.96881 
vt 1.88223 -1.9307 
vt 1.70545 -2.10748 
vt 1.94262 -2.02842 
vt 1.91346 -1.96881 
vt 1.70545 -2.10748 
vt 1.95545 -2.10748 
vt 1.94262 -2.02842 
vt 1.70545 -2.10748 
vt 1.78451 -1.87031 
vt 1.70545 -1.85748 
vt 1.70545 -2.10748 
vt 1.84412 -1.89947 
vt 1.70545 -2.10748 
vt 1.88223 -1.9307 
vt 1.84412 -1.89947 
vt 1.78451 -1.87031 
vt 1.70545 -2.10748 
vt 1.94262 -2.02842 
vt 1.91346 -1.96881 
vt 1.70545 -2.10748 
vt 1.91346 -1.96881 
vt 1.88223 -1.9307 
vt 1.70545 -2.10748 
vt 1.70545 -2.10748 
vt 1.95545 -2.10748 
vt 1.94262 -2.02842 
vt 1.74744 -1.96881 
vt 1.95545 -2.10748 
vt 1.77867 -1.9307 
vt 1.87639 -1.87031 
vt 1.81677 -1.89947 
vt 1.95545 -2.10748 
vt 1.77867 -1.9307 
vt 1.95545 -2.10748 
vt 1.81677 -1.89947 
vt 1.95545 -2.10748 
vt 1.95545 -1.85748 
vt 1.87639 -1.87031 
vt 1.71828 -2.02842 
vt 1.95545 -2.10748 
vt 1.74744 -1.96881 
vt 1.70545 -2.10748 
vt 1.95545 -2.10748 
vt 1.71828 -2.02842 

usemtl Cornerroundwedge1Mtl

f 1/1/1 2/2/2 3/3/3 
f 4/4/4 5/5/5 6/6/6 
f 4/4/4 6/6/6 7/7/7 
f 8/8/8 9/9/9 10/10/10 
f 11/11/11 12/12/12 13/13/13 
f 14/14/14 15/15/15 16/16/16 
f 14/14/14 16/16/16 17/17/17 
f 16/16/16 18/18/18 19/19/19 
f 16/16/16 20/20/20 18/18/18 
f 21/21/21 22/22/22 23/23/23 
f 22/22/22 24/24/24 25/25/25 
f 24/24/24 26/26/26 27/27/27 
f 28/28/28 29/29/29 30/30/30 
f 28/28/28 30/30/30 31/31/31 
f 30/30/30 32/32/32 33/33/33 
f 30/30/30 34/34/34 32/32/32 
f 32/32/32 35/35/35 36/36/36 
f 32/32/32 37/37/37 35/35/35 
f 38/38/38 39/39/39 40/40/40 
f 41/41/41 42/42/42 43/43/43 
f 41/41/41 43/43/43 44/44/44 
f 45/45/45 46/46/46 47/47/47 
f 48/48/48 49/49/49 50/50/50 
f 48/48/48 50/50/50 51/51/51 
f 52/52/52 53/53/53 54/54/54 
f 55/55/55 56/56/56 57/57/57 
f 55/55/55 57/57/57 58/58/58 
f 59/59/59 60/60/60 61/61/61 
f 59/59/59 61/61/61 62/62/62 
f 63/63/63 64/64/64 65/65/65 
f 63/63/63 65/65/65 66/66/66 
f 67/67/67 68/68/68 69/69/69 
f 69/69/69 70/70/70 71/71/71 
f 71/71/71 72/72/72 73/73/73 
f 74/74/74 75/75/75 76/76/76 
f 74/74/74 76/76/76 77/77/77 
f 78/78/78 79/79/79 80/80/80 
f 81/81/81 82/82/82 83/83/83 
f 81/81/81 83/83/83 84/84/84 
f 85/85/85 86/86/86 87/87/87 
f 88/88/88 89/89/89 90/90/90 
f 91/91/91 92/92/92 93/93/93 
f 91/91/91 93/93/93 94/94/94 
f 93/93/93 95/95/95 96/96/96 
f 93/93/93 97/97/97 95/95/95 
f 98/98/98 99/99/99 100/100/100 
f 100/100/100 101/101/101 102/102/102 
f 102/102/102 103/103/103 104/104/104 
f 105/105/105 106/106/106 107/107/107 
f 105/105/105 107/107/107 108/108/108 
f 107/107/107 109/109/109 110/110/110 
f 107/107/107 111/111/111 109/109/109 
f 109/109/109 112/112/112 113/113/113 
f 109/109/109 114/114/114 112/112/112 
f 115/115/115 116/116/116 117/117/117 
f 118/118/118 119/119/119 120/120/120 
f 121/121/121 122/122/122 123/123/123 
f 124/124/124 125/125/125 126/126/126 
f 127/127/127 128/128/128 129/129/129 
f 130/130/130 131/131/131 132/132/132 
f 133/133/133 134/134/134 135/135/135 
f 136/136/136 137/137/137 138/138/138 
f 139/139/139 140/140/140 141/141/141 
f 142/142/142 143/143/143 144/144/144 
f 145/145/145 146/146/146 147/147/147 
f 148/148/148 149/149/149 150/150/150 
f 151/151/151 152/152/152 153/153/153 
f 154/154/154 155/155/155 156/156/156 
f 157/157/157 158/158/158 159/159/159 
f 160/160/160 161/161/161 162/162/162 
f 163/163/163 164/164/164 165/165/165 
f 166/166/166 167/167/167 168/168/168 

