# This file is brought to you by Roblox Corporation
# Generated by Roblox Studio

mtllib transporter.mtl

g Transporter1

v 131.5 5.50001 18.5 
v 131.5 5.50001 21.5 
v 131.5 0.500012 18.5 
v 131.5 0.500012 21.5 
v 128.5 5.50001 21.5 
v 131.5 5.50001 21.5 
v 128.5 5.50001 18.5 
v 131.5 5.50001 18.5 
v 131.5 5.50001 21.5 
v 128.5 5.50001 21.5 
v 131.5 0.500012 21.5 
v 128.5 0.500012 21.5 
v 128.5 5.50001 21.5 
v 128.5 5.50001 18.5 
v 128.5 0.500012 21.5 
v 128.5 0.500012 18.5 
v 128.5 0.500012 18.5 
v 131.5 0.500012 18.5 
v 128.5 0.500012 21.5 
v 131.5 0.500012 21.5 
v 128.5 5.50001 18.5 
v 131.5 5.50001 18.5 
v 128.5 0.500012 18.5 
v 131.5 0.500012 18.5 

vn 1 0 0 
vn 1 0 0 
vn 1 0 0 
vn 1 0 0 
vn 0 1 0 
vn 0 1 0 
vn 0 1 0 
vn 0 1 0 
vn 0 0 1 
vn 0 0 1 
vn 0 0 1 
vn 0 0 1 
vn -1 0 0 
vn -1 0 0 
vn -1 0 0 
vn -1 0 0 
vn 0 -1 0 
vn 0 -1 0 
vn 0 -1 0 
vn 0 -1 0 
vn 0 0 -1 
vn 0 0 -1 
vn 0 0 -1 
vn 0 0 -1 

vt 0.426043 0.795194 
vt 0.0510428 0.795194 
vt 0.426043 0.170194 
vt 0.0510428 0.170194 
vt 0.426043 0.795194 
vt 0.0510428 0.795194 
vt 0.426043 0.420194 
vt 0.0510428 0.420194 
vt 0.426043 0.795194 
vt 0.0510428 0.795194 
vt 0.426043 0.170194 
vt 0.0510428 0.170194 
vt 0.426043 0.795194 
vt 0.0510428 0.795194 
vt 0.426043 0.170194 
vt 0.0510428 0.170194 
vt 0.426043 0.795194 
vt 0.0510428 0.795194 
vt 0.426043 0.420194 
vt 0.0510428 0.420194 
vt 0.426043 0.795194 
vt 0.0510428 0.795194 
vt 0.426043 0.170194 
vt 0.0510428 0.170194 

usemtl Transporter1Mtl

f 1/1/1 2/2/2 3/3/3 
f 3/3/3 2/2/2 4/4/4 
f 5/5/5 6/6/6 7/7/7 
f 7/7/7 6/6/6 8/8/8 
f 9/9/9 10/10/10 11/11/11 
f 11/11/11 10/10/10 12/12/12 
f 13/13/13 14/14/14 15/15/15 
f 15/15/15 14/14/14 16/16/16 
f 17/17/17 18/18/18 19/19/19 
f 19/19/19 18/18/18 20/20/20 
f 21/21/21 22/22/22 23/23/23 
f 23/23/23 22/22/22 24/24/24 

g Transporter2

v 128.5 5.52001 21.5 
v 131.5 5.52001 21.5 
v 128.5 5.52001 18.5 
v 131.5 5.52001 18.5 

vn 0 1 0 
vn 0 1 0 
vn 0 1 0 
vn 0 1 0 

vt 1 1 
vt 0 1 
vt 1 0 
vt 0 0 

usemtl Transporter2Mtl

f 25/25/25 26/26/26 27/27/27 
f 27/27/27 26/26/26 28/28/28 

g Transporter3

v 128.5 5.52001 21.5 
v 131.5 5.52001 21.5 
v 128.5 5.52001 18.5 
v 131.5 5.52001 18.5 

vn 0 1 0 
vn 0 1 0 
vn 0 1 0 
vn 0 1 0 

vt 1 1 
vt 0 1 
vt 1 0 
vt 0 0 

usemtl Transporter3Mtl

f 29/29/29 30/30/30 31/31/31 
f 31/31/31 30/30/30 32/32/32 

g Transporter4

v 128.5 5.52001 21.5 
v 131.5 5.52001 21.5 
v 128.5 5.52001 18.5 
v 131.5 5.52001 18.5 

vn 0 1 0 
vn 0 1 0 
vn 0 1 0 
vn 0 1 0 

vt 1 1 
vt 0 1 
vt 1 0 
vt 0 0 

usemtl Transporter4Mtl

f 33/33/33 34/34/34 35/35/35 
f 35/35/35 34/34/34 36/36/36 

g Transporter5

v 128.5 5.52001 21.5 
v 131.5 5.52001 21.5 
v 128.5 5.52001 18.5 
v 131.5 5.52001 18.5 

vn 0 1 0 
vn 0 1 0 
vn 0 1 0 
vn 0 1 0 

vt 1 1 
vt 0 1 
vt 1 0 
vt 0 0 

usemtl Transporter5Mtl

f 37/37/37 38/38/38 39/39/39 
f 39/39/39 38/38/38 40/40/40 

g Transporter6

v 128.5 5.52001 21.5 
v 131.5 5.52001 21.5 
v 128.5 5.52001 18.5 
v 131.5 5.52001 18.5 

vn 0 1 0 
vn 0 1 0 
vn 0 1 0 
vn 0 1 0 

vt 1 1 
vt 0 1 
vt 1 0 
vt 0 0 

usemtl Transporter6Mtl

f 41/41/41 42/42/42 43/43/43 
f 43/43/43 42/42/42 44/44/44 

g Transporter7

v 131.5 0.480012 21.5 
v 128.5 0.480012 21.5 
v 131.5 0.480012 18.5 
v 128.5 0.480012 18.5 

vn 0 -1 0 
vn 0 -1 0 
vn 0 -1 0 
vn 0 -1 0 

vt 1.5 1 
vt 0 1 
vt 1.5 -0.5 
vt 0 -0.5 

usemtl Transporter7Mtl

f 45/45/45 46/46/46 47/47/47 
f 47/47/47 46/46/46 48/48/48 

g Transporter8

v 131.52 5.50001 18.5 
v 131.52 5.50001 21.5 
v 131.52 0.500012 18.5 
v 131.52 0.500012 21.5 

vn 1 0 0 
vn 1 0 0 
vn 1 0 0 
vn 1 0 0 

vt 1.5 1 
vt 0 1 
vt 1.5 -1.5 
vt 0 -1.5 

usemtl Transporter8Mtl

f 49/49/49 50/50/50 51/51/51 
f 51/51/51 50/50/50 52/52/52 

g Transporter9

v 128.5 5.50001 18.48 
v 131.5 5.50001 18.48 
v 128.5 0.500012 18.48 
v 131.5 0.500012 18.48 

vn 0 0 -1 
vn 0 0 -1 
vn 0 0 -1 
vn 0 0 -1 

vt 1.5 1 
vt 0 1 
vt 1.5 -1.5 
vt 0 -1.5 

usemtl Transporter8Mtl

f 53/53/53 54/54/54 55/55/55 
f 55/55/55 54/54/54 56/56/56 

g Transporter10

v 128.48 5.50001 21.5 
v 128.48 5.50001 18.5 
v 128.48 0.500012 21.5 
v 128.48 0.500012 18.5 

vn -1 0 0 
vn -1 0 0 
vn -1 0 0 
vn -1 0 0 

vt 1.5 1 
vt 0 1 
vt 1.5 -1.5 
vt 0 -1.5 

usemtl Transporter8Mtl

f 57/57/57 58/58/58 59/59/59 
f 59/59/59 58/58/58 60/60/60 

g Transporter11

v 131.5 5.50001 21.52 
v 128.5 5.50001 21.52 
v 131.5 0.500012 21.52 
v 128.5 0.500012 21.52 

vn 0 0 1 
vn 0 0 1 
vn 0 0 1 
vn 0 0 1 

vt 1.5 1 
vt 0 1 
vt 1.5 -1.5 
vt 0 -1.5 

usemtl Transporter8Mtl

f 61/61/61 62/62/62 63/63/63 
f 63/63/63 62/62/62 64/64/64 

