# This file is brought to you by Roblox Corporation
# Generated by Roblox Studio

mtllib chemicalsynthiser.mtl

g Chemicalsynthiser1

v 414 6.00001 -43 
v 414 6.00001 -38 
v 414 8.10623e-06 -43 
v 414 8.10623e-06 -38 
v 406 6.00001 -38 
v 414 6.00001 -38 
v 406 6.00001 -43 
v 414 6.00001 -43 
v 414 6.00001 -38 
v 406 6.00001 -38 
v 414 8.10623e-06 -38 
v 406 8.10623e-06 -38 
v 406 6.00001 -38 
v 406 6.00001 -43 
v 406 8.10623e-06 -38 
v 406 8.10623e-06 -43 
v 406 8.10623e-06 -43 
v 414 8.10623e-06 -43 
v 406 8.10623e-06 -38 
v 414 8.10623e-06 -38 
v 406 6.00001 -43 
v 414 6.00001 -43 
v 406 8.10623e-06 -43 
v 414 8.10623e-06 -43 

vn 1 0 0 
vn 1 0 0 
vn 1 0 0 
vn 1 0 0 
vn 0 1 0 
vn 0 1 0 
vn 0 1 0 
vn 0 1 0 
vn 0 0 1 
vn 0 0 1 
vn 0 0 1 
vn 0 0 1 
vn -1 0 0 
vn -1 0 0 
vn -1 0 0 
vn -1 0 0 
vn 0 -1 0 
vn 0 -1 0 
vn 0 -1 0 
vn 0 -1 0 
vn 0 0 -1 
vn 0 0 -1 
vn 0 0 -1 
vn 0 0 -1 

vt 8.125 -1.25 
vt 7.5 -1.25 
vt 8.125 -2 
vt 7.5 -2 
vt 8.5 -1.25 
vt 7.5 -1.25 
vt 8.5 -1.875 
vt 7.5 -1.875 
vt 8.5 -1.25 
vt 7.5 -1.25 
vt 8.5 -2 
vt 7.5 -2 
vt 8.125 -1.25 
vt 7.5 -1.25 
vt 8.125 -2 
vt 7.5 -2 
vt 8.5 -1.25 
vt 7.5 -1.25 
vt 8.5 -1.875 
vt 7.5 -1.875 
vt 8.5 -1.25 
vt 7.5 -1.25 
vt 8.5 -2 
vt 7.5 -2 

usemtl Chemicalsynthiser1Mtl

f 1/1/1 2/2/2 3/3/3 
f 3/3/3 2/2/2 4/4/4 
f 5/5/5 6/6/6 7/7/7 
f 7/7/7 6/6/6 8/8/8 
f 9/9/9 10/10/10 11/11/11 
f 11/11/11 10/10/10 12/12/12 
f 13/13/13 14/14/14 15/15/15 
f 15/15/15 14/14/14 16/16/16 
f 17/17/17 18/18/18 19/19/19 
f 19/19/19 18/18/18 20/20/20 
f 21/21/21 22/22/22 23/23/23 
f 23/23/23 22/22/22 24/24/24 

g Chemicalsynthiser2

v 414 -0.0199919 -38 
v 406 -0.0199919 -38 
v 414 -0.0199919 -43 
v 406 -0.0199919 -43 

vn 0 -1 0 
vn 0 -1 0 
vn 0 -1 0 
vn 0 -1 0 

vt 1 1 
vt 0 1 
vt 1 0 
vt 0 0 

usemtl Chemicalsynthiser2Mtl

f 25/25/25 26/26/26 27/27/27 
f 27/27/27 26/26/26 28/28/28 

g Chemicalsynthiser3

v 406 6.00001 -43.02 
v 414 6.00001 -43.02 
v 406 8.10623e-06 -43.02 
v 414 8.10623e-06 -43.02 

vn 0 0 -1 
vn 0 0 -1 
vn 0 0 -1 
vn 0 0 -1 

vt 1 1 
vt 0 1 
vt 1 0 
vt 0 0 

usemtl Chemicalsynthiser3Mtl

f 29/29/29 30/30/30 31/31/31 
f 31/31/31 30/30/30 32/32/32 

g Chemicalsynthiser4

v 414 6.00001 -37.98 
v 406 6.00001 -37.98 
v 414 8.10623e-06 -37.98 
v 406 8.10623e-06 -37.98 

vn 0 0 1 
vn 0 0 1 
vn 0 0 1 
vn 0 0 1 

vt 1 1 
vt 0 1 
vt 1 0 
vt 0 0 

usemtl Chemicalsynthiser4Mtl

f 33/33/33 34/34/34 35/35/35 
f 35/35/35 34/34/34 36/36/36 

