# This file is brought to you by Roblox Corporation
# Generated by Roblox Studio

mtllib burnergenerator.mtl

g Burnergenerator1

v 411 4.00001 39 
v 411 4.00001 41 
v 411 1.19209e-05 39 
v 411 1.19209e-05 41 
v 409 4.00001 41 
v 411 4.00001 41 
v 409 4.00001 39 
v 411 4.00001 39 
v 411 4.00001 41 
v 409 4.00001 41 
v 411 1.19209e-05 41 
v 409 1.19209e-05 41 
v 409 4.00001 41 
v 409 4.00001 39 
v 409 1.19209e-05 41 
v 409 1.19209e-05 39 
v 409 1.19209e-05 39 
v 411 1.19209e-05 39 
v 409 1.19209e-05 41 
v 411 1.19209e-05 41 
v 409 4.00001 39 
v 411 4.00001 39 
v 409 1.19209e-05 39 
v 411 1.19209e-05 39 

vn 1 0 0 
vn 1 0 0 
vn 1 0 0 
vn 1 0 0 
vn 0 1 0 
vn 0 1 0 
vn 0 1 0 
vn 0 1 0 
vn 0 0 1 
vn 0 0 1 
vn 0 0 1 
vn 0 0 1 
vn -1 0 0 
vn -1 0 0 
vn -1 0 0 
vn -1 0 0 
vn 0 -1 0 
vn 0 -1 0 
vn 0 -1 0 
vn 0 -1 0 
vn 0 0 -1 
vn 0 0 -1 
vn 0 0 -1 
vn 0 0 -1 

vt 0.75 -2.75 
vt 0.5 -2.75 
vt 0.75 -3.25 
vt 0.5 -3.25 
vt 0.75 -2.75 
vt 0.5 -2.75 
vt 0.75 -3 
vt 0.5 -3 
vt 0.75 -2.75 
vt 0.5 -2.75 
vt 0.75 -3.25 
vt 0.5 -3.25 
vt 0.75 -2.75 
vt 0.5 -2.75 
vt 0.75 -3.25 
vt 0.5 -3.25 
vt 0.75 -2.75 
vt 0.5 -2.75 
vt 0.75 -3 
vt 0.5 -3 
vt 0.75 -2.75 
vt 0.5 -2.75 
vt 0.75 -3.25 
vt 0.5 -3.25 

usemtl Burnergenerator1Mtl

f 1/1/1 2/2/2 3/3/3 
f 3/3/3 2/2/2 4/4/4 
f 5/5/5 6/6/6 7/7/7 
f 7/7/7 6/6/6 8/8/8 
f 9/9/9 10/10/10 11/11/11 
f 11/11/11 10/10/10 12/12/12 
f 13/13/13 14/14/14 15/15/15 
f 15/15/15 14/14/14 16/16/16 
f 17/17/17 18/18/18 19/19/19 
f 19/19/19 18/18/18 20/20/20 
f 21/21/21 22/22/22 23/23/23 
f 23/23/23 22/22/22 24/24/24 

g Burnergenerator2

v 409 4.02001 41 
v 411 4.02001 41 
v 409 4.02001 39 
v 411 4.02001 39 

vn 0 1 0 
vn 0 1 0 
vn 0 1 0 
vn 0 1 0 

vt 1 1 
vt 0 1 
vt 1 0 
vt 0 0 

usemtl Burnergenerator2Mtl

f 25/25/25 26/26/26 27/27/27 
f 27/27/27 26/26/26 28/28/28 

g Burnergenerator3

v 411 -0.0199881 41 
v 409 -0.0199881 41 
v 411 -0.0199881 39 
v 409 -0.0199881 39 

vn 0 -1 0 
vn 0 -1 0 
vn 0 -1 0 
vn 0 -1 0 

vt 1 1 
vt 0 1 
vt 1 0 
vt 0 0 

usemtl Burnergenerator3Mtl

f 29/29/29 30/30/30 31/31/31 
f 31/31/31 30/30/30 32/32/32 

g Burnergenerator4

v 408.98 4.00001 41 
v 408.98 4.00001 39 
v 408.98 1.19209e-05 41 
v 408.98 1.19209e-05 39 

vn -1 0 0 
vn -1 0 0 
vn -1 0 0 
vn -1 0 0 

vt 1 1 
vt 0 1 
vt 1 0 
vt 0 0 

usemtl Burnergenerator4Mtl

f 33/33/33 34/34/34 35/35/35 
f 35/35/35 34/34/34 36/36/36 

g Burnergenerator5

v 411 4.00001 41.02 
v 409 4.00001 41.02 
v 411 1.19209e-05 41.02 
v 409 1.19209e-05 41.02 

vn 0 0 1 
vn 0 0 1 
vn 0 0 1 
vn 0 0 1 

vt 1 1 
vt 0 1 
vt 1 0 
vt 0 0 

usemtl Burnergenerator4Mtl

f 37/37/37 38/38/38 39/39/39 
f 39/39/39 38/38/38 40/40/40 

g Burnergenerator6

v 409 4.00001 38.98 
v 411 4.00001 38.98 
v 409 1.19209e-05 38.98 
v 411 1.19209e-05 38.98 

vn 0 0 -1 
vn 0 0 -1 
vn 0 0 -1 
vn 0 0 -1 

vt 1 1 
vt 0 1 
vt 1 0 
vt 0 0 

usemtl Burnergenerator4Mtl

f 41/41/41 42/42/42 43/43/43 
f 43/43/43 42/42/42 44/44/44 

g Burnergenerator7

v 411.02 4.00001 39 
v 411.02 4.00001 41 
v 411.02 1.19209e-05 39 
v 411.02 1.19209e-05 41 

vn 1 0 0 
vn 1 0 0 
vn 1 0 0 
vn 1 0 0 

vt 1 1 
vt 0 1 
vt 1 0 
vt 0 0 

usemtl Burnergenerator4Mtl

f 45/45/45 46/46/46 47/47/47 
f 47/47/47 46/46/46 48/48/48 

