# This file is brought to you by Roblox Corporation
# Generated by Roblox Studio

mtllib cornertetra.mtl

g Cornertetra1

v 431 2.98023e-07 1 
v 431 0 -0.999999 
v 431 2 -0.999999 
v 429 2 -1 
v 429 2 0.999999 
v 431 2 -0.999999 
v 431 2.98023e-07 1 
v 431 2 -0.999999 
v 429 2 0.999999 
v 431 2.98023e-07 1 
v 429 2 0.999999 
v 429 2.98023e-07 1 
v 429 2 -1 
v 429 2.98023e-07 1 
v 429 2 0.999999 
v 429 0 -1 
v 429 2.98023e-07 1 
v 431 0 -0.999999 
v 431 2.98023e-07 1 
v 429 0 -1 
v 429 2 -1 
v 431 0 -0.999999 
v 429 0 -1 
v 431 2 -0.999999 

vn 1 0 0 
vn 1 0 0 
vn 1 0 0 
vn 0 1 0 
vn 0 1 0 
vn 0 1 0 
vn 0.574803 0.574803 0.574803 
vn 0.574803 0.574803 0.574803 
vn 0.574803 0.574803 0.574803 
vn 0 0 1 
vn 0 0 1 
vn 0 0 1 
vn -1 0 0 
vn -1 0 0 
vn -1 0 0 
vn -1 0 0 
vn 0 -1 0 
vn 0 -1 0 
vn 0 -1 0 
vn 0 -1 0 
vn 0 0 -1 
vn 0 0 -1 
vn 0 0 -1 
vn 0 0 -1 

vt -1.65322 -1.127 
vt -1.40322 -1.127 
vt -1.40322 -0.877002 
vt -1.40322 -1.127 
vt -1.40322 -0.877002 
vt -1.65322 -1.127 
vt -1.40322 -1.127 
vt -1.40322 -0.877002 
vt -1.65322 -0.877002 
vt -1.40322 -1.127 
vt -1.65322 -0.877002 
vt -1.65322 -1.127 
vt -1.65322 -0.877002 
vt -1.40322 -1.127 
vt -1.40322 -0.877002 
vt -1.65322 -1.127 
vt -1.65322 -0.877002 
vt -1.40322 -1.127 
vt -1.40322 -0.877002 
vt -1.65322 -1.127 
vt -1.40322 -0.877002 
vt -1.65322 -1.127 
vt -1.40322 -1.127 
vt -1.65322 -0.877002 

usemtl Cornertetra1Mtl

f 1/1/1 2/2/2 3/3/3 
f 4/4/4 5/5/5 6/6/6 
f 7/7/7 8/8/8 9/9/9 
f 10/10/10 11/11/11 12/12/12 
f 13/13/13 14/14/14 15/15/15 
f 14/14/14 13/13/13 16/16/16 
f 17/17/17 18/18/18 19/19/19 
f 18/18/18 17/17/17 20/20/20 
f 21/21/21 22/22/22 23/23/23 
f 22/22/22 21/21/21 24/24/24 

