# This file is brought to you by Roblox Corporation
# Generated by Roblox Studio

mtllib beryllium.mtl

g Beryllium1

v 91 2.00001 -101 
v 91 2.00001 -99 
v 91 1.19209e-05 -101 
v 91 1.19209e-05 -99 
v 89 2.00001 -99 
v 91 2.00001 -99 
v 89 2.00001 -101 
v 91 2.00001 -101 
v 91 2.00001 -99 
v 89 2.00001 -99 
v 91 1.19209e-05 -99 
v 89 1.19209e-05 -99 
v 89 2.00001 -99 
v 89 2.00001 -101 
v 89 1.19209e-05 -99 
v 89 1.19209e-05 -101 
v 89 1.19209e-05 -101 
v 91 1.19209e-05 -101 
v 89 1.19209e-05 -99 
v 91 1.19209e-05 -99 
v 89 2.00001 -101 
v 91 2.00001 -101 
v 89 1.19209e-05 -101 
v 91 1.19209e-05 -101 

vn 1 0 0 
vn 1 0 0 
vn 1 0 0 
vn 1 0 0 
vn 0 1 0 
vn 0 1 0 
vn 0 1 0 
vn 0 1 0 
vn 0 0 1 
vn 0 0 1 
vn 0 0 1 
vn 0 0 1 
vn -1 0 0 
vn -1 0 0 
vn -1 0 0 
vn -1 0 0 
vn 0 -1 0 
vn 0 -1 0 
vn 0 -1 0 
vn 0 -1 0 
vn 0 0 -1 
vn 0 0 -1 
vn 0 0 -1 
vn 0 0 -1 

vt 0.39414 1.24586 
vt 0.14414 1.24586 
vt 0.39414 0.995864 
vt 0.14414 0.995864 
vt 0.39414 1.24586 
vt 0.14414 1.24586 
vt 0.39414 0.995864 
vt 0.14414 0.995864 
vt 0.39414 1.24586 
vt 0.14414 1.24586 
vt 0.39414 0.995864 
vt 0.14414 0.995864 
vt 0.39414 1.24586 
vt 0.14414 1.24586 
vt 0.39414 0.995864 
vt 0.14414 0.995864 
vt 0.39414 1.24586 
vt 0.14414 1.24586 
vt 0.39414 0.995864 
vt 0.14414 0.995864 
vt 0.39414 1.24586 
vt 0.14414 1.24586 
vt 0.39414 0.995864 
vt 0.14414 0.995864 

usemtl Beryllium1Mtl

f 1/1/1 2/2/2 3/3/3 
f 3/3/3 2/2/2 4/4/4 
f 5/5/5 6/6/6 7/7/7 
f 7/7/7 6/6/6 8/8/8 
f 9/9/9 10/10/10 11/11/11 
f 11/11/11 10/10/10 12/12/12 
f 13/13/13 14/14/14 15/15/15 
f 15/15/15 14/14/14 16/16/16 
f 17/17/17 18/18/18 19/19/19 
f 19/19/19 18/18/18 20/20/20 
f 21/21/21 22/22/22 23/23/23 
f 23/23/23 22/22/22 24/24/24 

