# This file is brought to you by Roblox Corporation
# Generated by Roblox Studio

mtllib hydrogen.mtl

g Hydrogen1

v 451.5 3.00001 78.5 
v 451.5 3.00001 81.5 
v 451.5 5.84126e-06 78.5 
v 451.5 5.84126e-06 81.5 
v 448.5 3.00001 81.5 
v 451.5 3.00001 81.5 
v 448.5 3.00001 78.5 
v 451.5 3.00001 78.5 
v 451.5 3.00001 81.5 
v 448.5 3.00001 81.5 
v 451.5 5.84126e-06 81.5 
v 448.5 5.84126e-06 81.5 
v 448.5 3.00001 81.5 
v 448.5 3.00001 78.5 
v 448.5 5.84126e-06 81.5 
v 448.5 5.84126e-06 78.5 
v 448.5 5.84126e-06 78.5 
v 451.5 5.84126e-06 78.5 
v 448.5 5.84126e-06 81.5 
v 451.5 5.84126e-06 81.5 
v 448.5 3.00001 78.5 
v 451.5 3.00001 78.5 
v 448.5 5.84126e-06 78.5 
v 451.5 5.84126e-06 78.5 

vn 1 0 0 
vn 1 0 0 
vn 1 0 0 
vn 1 0 0 
vn 0 1 0 
vn 0 1 0 
vn 0 1 0 
vn 0 1 0 
vn 0 0 1 
vn 0 0 1 
vn 0 0 1 
vn 0 0 1 
vn -1 0 0 
vn -1 0 0 
vn -1 0 0 
vn -1 0 0 
vn 0 -1 0 
vn 0 -1 0 
vn 0 -1 0 
vn 0 -1 0 
vn 0 0 -1 
vn 0 0 -1 
vn 0 0 -1 
vn 0 0 -1 

vt 0.253228 1.3688 
vt -0.121772 1.3688 
vt 0.253228 0.993796 
vt -0.121772 0.993796 
vt 0.253228 1.3688 
vt -0.121772 1.3688 
vt 0.253228 0.993796 
vt -0.121772 0.993796 
vt 0.253228 1.3688 
vt -0.121772 1.3688 
vt 0.253228 0.993796 
vt -0.121772 0.993796 
vt 0.253228 1.3688 
vt -0.121772 1.3688 
vt 0.253228 0.993796 
vt -0.121772 0.993796 
vt 0.253228 1.3688 
vt -0.121772 1.3688 
vt 0.253228 0.993796 
vt -0.121772 0.993796 
vt 0.253228 1.3688 
vt -0.121772 1.3688 
vt 0.253228 0.993796 
vt -0.121772 0.993796 

usemtl Hydrogen1Mtl

f 1/1/1 2/2/2 3/3/3 
f 3/3/3 2/2/2 4/4/4 
f 5/5/5 6/6/6 7/7/7 
f 7/7/7 6/6/6 8/8/8 
f 9/9/9 10/10/10 11/11/11 
f 11/11/11 10/10/10 12/12/12 
f 13/13/13 14/14/14 15/15/15 
f 15/15/15 14/14/14 16/16/16 
f 17/17/17 18/18/18 19/19/19 
f 19/19/19 18/18/18 20/20/20 
f 21/21/21 22/22/22 23/23/23 
f 23/23/23 22/22/22 24/24/24 

