# This file is brought to you by Roblox Corporation
# Generated by Roblox Studio

mtllib spotlight.mtl

g Spotlight1

v 311 1.00001 -40 
v 311 1.70712 -40.7071 
v 311 1.55471 -40.8321 
v 311 1.31624 -40.9487 
v 311 1.00001 -41 
v 311 0.683784 -40.9487 
v 311 0.445312 -40.8321 
v 311 0.292905 -40.7071 
v 311 0.292905 -40.7071 
v 311 0.167962 -40.5547 
v 311 0.0513286 -40.3162 
v 311 1.19209e-05 -40 
v 311 0.0513286 -39.6838 
v 311 0.167962 -39.4453 
v 311 0.292905 -39.2929 
v 311 0.292905 -39.2929 
v 311 0.445312 -39.1679 
v 311 0.683784 -39.0513 
v 311 1.00001 -39 
v 311 1.31624 -39.0513 
v 311 1.55471 -39.1679 
v 311 1.70712 -39.2929 
v 311 1.70712 -39.2929 
v 311 1.83206 -39.4453 
v 311 1.9487 -39.6838 
v 311 2.00001 -40 
v 311 1.9487 -40.3162 
v 311 1.83206 -40.5547 
v 311 1.70712 -40.7071 
v 309 1.70712 -39.2929 
v 311 1.70712 -39.2929 
v 309 1.83206 -39.4453 
v 311 1.83206 -39.4453 
v 309 1.9487 -39.6838 
v 311 1.9487 -39.6838 
v 309 2.00001 -40 
v 311 2.00001 -40 
v 309 1.9487 -40.3162 
v 311 1.9487 -40.3162 
v 309 1.83206 -40.5547 
v 311 1.83206 -40.5547 
v 309 1.70712 -40.7071 
v 311 1.70712 -40.7071 
v 311 1.70712 -39.2929 
v 309 1.70712 -39.2929 
v 311 1.55471 -39.1679 
v 309 1.55471 -39.1679 
v 311 1.31624 -39.0513 
v 309 1.31624 -39.0513 
v 311 1.00001 -39 
v 309 1.00001 -39 
v 311 0.683784 -39.0513 
v 309 0.683784 -39.0513 
v 311 0.445312 -39.1679 
v 309 0.445312 -39.1679 
v 311 0.292905 -39.2929 
v 309 0.292905 -39.2929 
v 309 1.00001 -40 
v 309 1.70712 -39.2929 
v 309 1.55471 -39.1679 
v 309 1.31624 -39.0513 
v 309 1.00001 -39 
v 309 0.683784 -39.0513 
v 309 0.445312 -39.1679 
v 309 0.292905 -39.2929 
v 309 0.292905 -39.2929 
v 309 0.167962 -39.4453 
v 309 0.0513286 -39.6838 
v 309 1.19209e-05 -40 
v 309 0.0513286 -40.3162 
v 309 0.167962 -40.5547 
v 309 0.292905 -40.7071 
v 309 0.292905 -40.7071 
v 309 0.445312 -40.8321 
v 309 0.683784 -40.9487 
v 309 1.00001 -41 
v 309 1.31624 -40.9487 
v 309 1.55471 -40.8321 
v 309 1.70712 -40.7071 
v 309 1.70712 -40.7071 
v 309 1.83206 -40.5547 
v 309 1.9487 -40.3162 
v 309 2.00001 -40 
v 309 1.9487 -39.6838 
v 309 1.83206 -39.4453 
v 309 1.70712 -39.2929 
v 309 0.292905 -40.7071 
v 311 0.292905 -40.7071 
v 309 0.167962 -40.5547 
v 311 0.167962 -40.5547 
v 309 0.0513286 -40.3162 
v 311 0.0513286 -40.3162 
v 309 1.19209e-05 -40 
v 311 1.19209e-05 -40 
v 309 0.0513286 -39.6838 
v 311 0.0513286 -39.6838 
v 309 0.167962 -39.4453 
v 311 0.167962 -39.4453 
v 309 0.292905 -39.2929 
v 311 0.292905 -39.2929 
v 309 1.70712 -40.7071 
v 311 1.70712 -40.7071 
v 309 1.55471 -40.8321 
v 311 1.55471 -40.8321 
v 309 1.31624 -40.9487 
v 311 1.31624 -40.9487 
v 309 1.00001 -41 
v 311 1.00001 -41 
v 309 0.683784 -40.9487 
v 311 0.683784 -40.9487 
v 309 0.445312 -40.8321 
v 311 0.445312 -40.8321 
v 309 0.292905 -40.7071 
v 311 0.292905 -40.7071 

vn 1 0 0 
vn 1 0 0 
vn 1 0 0 
vn 1 0 0 
vn 1 0 0 
vn 1 0 0 
vn 1 0 0 
vn 1 0 0 
vn 1 0 0 
vn 1 0 0 
vn 1 0 0 
vn 1 0 0 
vn 1 0 0 
vn 1 0 0 
vn 1 0 0 
vn 1 0 0 
vn 1 0 0 
vn 1 0 0 
vn 1 0 0 
vn 1 0 0 
vn 1 0 0 
vn 1 0 0 
vn 1 0 0 
vn 1 0 0 
vn 1 0 0 
vn 1 0 0 
vn 1 0 0 
vn 1 0 0 
vn 1 0 0 
vn 0 0.708661 0.708661 
vn 0 0.708661 0.708661 
vn 0 0.834646 0.551181 
vn 0 0.834646 0.551181 
vn 0 0.944882 0.314961 
vn 0 0.944882 0.314961 
vn 0 1 0 
vn 0 1 0 
vn 0 0.944882 -0.314961 
vn 0 0.944882 -0.314961 
vn 0 0.834646 -0.551181 
vn 0 0.834646 -0.551181 
vn 0 0.708661 -0.708661 
vn 0 0.708661 -0.708661 
vn 0 0.708661 0.708661 
vn 0 0.708661 0.708661 
vn 0 0.551181 0.834646 
vn 0 0.551181 0.834646 
vn 0 0.314961 0.944882 
vn 0 0.314961 0.944882 
vn 0 0 1 
vn 0 0 1 
vn 0 -0.314961 0.944882 
vn 0 -0.314961 0.944882 
vn 0 -0.551181 0.834646 
vn 0 -0.551181 0.834646 
vn 0 -0.708661 0.708661 
vn 0 -0.708661 0.708661 
vn -1 0 0 
vn -1 0 0 
vn -1 0 0 
vn -1 0 0 
vn -1 0 0 
vn -1 0 0 
vn -1 0 0 
vn -1 0 0 
vn -1 0 0 
vn -1 0 0 
vn -1 0 0 
vn -1 0 0 
vn -1 0 0 
vn -1 0 0 
vn -1 0 0 
vn -1 0 0 
vn -1 0 0 
vn -1 0 0 
vn -1 0 0 
vn -1 0 0 
vn -1 0 0 
vn -1 0 0 
vn -1 0 0 
vn -1 0 0 
vn -1 0 0 
vn -1 0 0 
vn -1 0 0 
vn -1 0 0 
vn -1 0 0 
vn 0 -0.708661 -0.708661 
vn 0 -0.708661 -0.708661 
vn 0 -0.834646 -0.551181 
vn 0 -0.834646 -0.551181 
vn 0 -0.944882 -0.314961 
vn 0 -0.944882 -0.314961 
vn 0 -1 0 
vn 0 -1 0 
vn 0 -0.944882 0.314961 
vn 0 -0.944882 0.314961 
vn 0 -0.834646 0.551181 
vn 0 -0.834646 0.551181 
vn 0 -0.708661 0.708661 
vn 0 -0.708661 0.708661 
vn 0 0.708661 -0.708661 
vn 0 0.708661 -0.708661 
vn 0 0.551181 -0.834646 
vn 0 0.551181 -0.834646 
vn 0 0.314961 -0.944882 
vn 0 0.314961 -0.944882 
vn 0 0 -1 
vn 0 0 -1 
vn 0 -0.314961 -0.944882 
vn 0 -0.314961 -0.944882 
vn 0 -0.551181 -0.834646 
vn 0 -0.551181 -0.834646 
vn 0 -0.708661 -0.708661 
vn 0 -0.708661 -0.708661 

vt 0.236712 1.00671 
vt 0.325101 1.09509 
vt 0.340719 1.07604 
vt 0.355298 1.04623 
vt 0.361712 1.00671 
vt 0.355298 0.967177 
vt 0.340719 0.937368 
vt 0.325101 0.918317 
vt 0.325101 0.918317 
vt 0.30605 0.902699 
vt 0.276241 0.88812 
vt 0.236712 0.881705 
vt 0.197184 0.88812 
vt 0.167375 0.902699 
vt 0.148324 0.918317 
vt 0.148324 0.918317 
vt 0.132706 0.937368 
vt 0.118127 0.967177 
vt 0.111712 1.00671 
vt 0.118127 1.04623 
vt 0.132706 1.07604 
vt 0.148324 1.09509 
vt 0.148324 1.09509 
vt 0.167375 1.11071 
vt 0.197184 1.12529 
vt 0.236712 1.13171 
vt 0.276241 1.12529 
vt 0.30605 1.11071 
vt 0.325101 1.09509 
vt 0.473425 1.26341 
vt 0.223425 1.26341 
vt 0.473425 1.22174 
vt 0.223425 1.22174 
vt 0.473425 1.18008 
vt 0.223425 1.18008 
vt 0.473425 1.13841 
vt 0.223425 1.13841 
vt 0.473425 1.09674 
vt 0.223425 1.09674 
vt 0.473425 1.05508 
vt 0.223425 1.05508 
vt 0.473425 1.01341 
vt 0.223425 1.01341 
vt 0.473425 1.26341 
vt 0.223425 1.26341 
vt 0.473425 1.22174 
vt 0.223425 1.22174 
vt 0.473425 1.18008 
vt 0.223425 1.18008 
vt 0.473425 1.13841 
vt 0.223425 1.13841 
vt 0.473425 1.09674 
vt 0.223425 1.09674 
vt 0.473425 1.05508 
vt 0.223425 1.05508 
vt 0.473425 1.01341 
vt 0.223425 1.01341 
vt 0.236712 1.00671 
vt 0.325101 1.09509 
vt 0.340719 1.07604 
vt 0.355298 1.04623 
vt 0.361712 1.00671 
vt 0.355298 0.967177 
vt 0.340719 0.937368 
vt 0.325101 0.918317 
vt 0.325101 0.918317 
vt 0.30605 0.902699 
vt 0.276241 0.88812 
vt 0.236712 0.881705 
vt 0.197184 0.88812 
vt 0.167375 0.902699 
vt 0.148324 0.918317 
vt 0.148324 0.918317 
vt 0.132706 0.937368 
vt 0.118127 0.967177 
vt 0.111712 1.00671 
vt 0.118127 1.04623 
vt 0.132706 1.07604 
vt 0.148324 1.09509 
vt 0.148324 1.09509 
vt 0.167375 1.11071 
vt 0.197184 1.12529 
vt 0.236712 1.13171 
vt 0.276241 1.12529 
vt 0.30605 1.11071 
vt 0.325101 1.09509 
vt 0.473425 1.26341 
vt 0.223425 1.26341 
vt 0.473425 1.22174 
vt 0.223425 1.22174 
vt 0.473425 1.18008 
vt 0.223425 1.18008 
vt 0.473425 1.13841 
vt 0.223425 1.13841 
vt 0.473425 1.09674 
vt 0.223425 1.09674 
vt 0.473425 1.05508 
vt 0.223425 1.05508 
vt 0.473425 1.01341 
vt 0.223425 1.01341 
vt 0.473425 1.26341 
vt 0.223425 1.26341 
vt 0.473425 1.22174 
vt 0.223425 1.22174 
vt 0.473425 1.18008 
vt 0.223425 1.18008 
vt 0.473425 1.13841 
vt 0.223425 1.13841 
vt 0.473425 1.09674 
vt 0.223425 1.09674 
vt 0.473425 1.05508 
vt 0.223425 1.05508 
vt 0.473425 1.01341 
vt 0.223425 1.01341 

usemtl Spotlight1Mtl

f 1/1/1 3/3/3 2/2/2 
f 1/1/1 4/4/4 3/3/3 
f 1/1/1 5/5/5 4/4/4 
f 1/1/1 6/6/6 5/5/5 
f 1/1/1 7/7/7 6/6/6 
f 1/1/1 8/8/8 7/7/7 
f 1/1/1 10/10/10 9/9/9 
f 1/1/1 11/11/11 10/10/10 
f 1/1/1 12/12/12 11/11/11 
f 1/1/1 13/13/13 12/12/12 
f 1/1/1 14/14/14 13/13/13 
f 1/1/1 15/15/15 14/14/14 
f 1/1/1 17/17/17 16/16/16 
f 1/1/1 18/18/18 17/17/17 
f 1/1/1 19/19/19 18/18/18 
f 1/1/1 20/20/20 19/19/19 
f 1/1/1 21/21/21 20/20/20 
f 1/1/1 22/22/22 21/21/21 
f 1/1/1 24/24/24 23/23/23 
f 1/1/1 25/25/25 24/24/24 
f 1/1/1 26/26/26 25/25/25 
f 1/1/1 27/27/27 26/26/26 
f 1/1/1 28/28/28 27/27/27 
f 1/1/1 29/29/29 28/28/28 
f 30/30/30 31/31/31 32/32/32 
f 32/32/32 31/31/31 33/33/33 
f 32/32/32 33/33/33 34/34/34 
f 34/34/34 33/33/33 35/35/35 
f 34/34/34 35/35/35 36/36/36 
f 36/36/36 35/35/35 37/37/37 
f 36/36/36 37/37/37 38/38/38 
f 38/38/38 37/37/37 39/39/39 
f 38/38/38 39/39/39 40/40/40 
f 40/40/40 39/39/39 41/41/41 
f 40/40/40 41/41/41 42/42/42 
f 42/42/42 41/41/41 43/43/43 
f 44/44/44 45/45/45 46/46/46 
f 46/46/46 45/45/45 47/47/47 
f 46/46/46 47/47/47 48/48/48 
f 48/48/48 47/47/47 49/49/49 
f 48/48/48 49/49/49 50/50/50 
f 50/50/50 49/49/49 51/51/51 
f 50/50/50 51/51/51 52/52/52 
f 52/52/52 51/51/51 53/53/53 
f 52/52/52 53/53/53 54/54/54 
f 54/54/54 53/53/53 55/55/55 
f 54/54/54 55/55/55 56/56/56 
f 56/56/56 55/55/55 57/57/57 
f 58/58/58 60/60/60 59/59/59 
f 58/58/58 61/61/61 60/60/60 
f 58/58/58 62/62/62 61/61/61 
f 58/58/58 63/63/63 62/62/62 
f 58/58/58 64/64/64 63/63/63 
f 58/58/58 65/65/65 64/64/64 
f 58/58/58 67/67/67 66/66/66 
f 58/58/58 68/68/68 67/67/67 
f 58/58/58 69/69/69 68/68/68 
f 58/58/58 70/70/70 69/69/69 
f 58/58/58 71/71/71 70/70/70 
f 58/58/58 72/72/72 71/71/71 
f 58/58/58 74/74/74 73/73/73 
f 58/58/58 75/75/75 74/74/74 
f 58/58/58 76/76/76 75/75/75 
f 58/58/58 77/77/77 76/76/76 
f 58/58/58 78/78/78 77/77/77 
f 58/58/58 79/79/79 78/78/78 
f 58/58/58 81/81/81 80/80/80 
f 58/58/58 82/82/82 81/81/81 
f 58/58/58 83/83/83 82/82/82 
f 58/58/58 84/84/84 83/83/83 
f 58/58/58 85/85/85 84/84/84 
f 58/58/58 86/86/86 85/85/85 
f 87/87/87 88/88/88 89/89/89 
f 89/89/89 88/88/88 90/90/90 
f 89/89/89 90/90/90 91/91/91 
f 91/91/91 90/90/90 92/92/92 
f 91/91/91 92/92/92 93/93/93 
f 93/93/93 92/92/92 94/94/94 
f 93/93/93 94/94/94 95/95/95 
f 95/95/95 94/94/94 96/96/96 
f 95/95/95 96/96/96 97/97/97 
f 97/97/97 96/96/96 98/98/98 
f 97/97/97 98/98/98 99/99/99 
f 99/99/99 98/98/98 100/100/100 
f 101/101/101 102/102/102 103/103/103 
f 103/103/103 102/102/102 104/104/104 
f 103/103/103 104/104/104 105/105/105 
f 105/105/105 104/104/104 106/106/106 
f 105/105/105 106/106/106 107/107/107 
f 107/107/107 106/106/106 108/108/108 
f 107/107/107 108/108/108 109/109/109 
f 109/109/109 108/108/108 110/110/110 
f 109/109/109 110/110/110 111/111/111 
f 111/111/111 110/110/110 112/112/112 
f 111/111/111 112/112/112 113/113/113 
f 113/113/113 112/112/112 114/114/114 

g Spotlight2

v 311 1.72129 -39.2787 
v 309 1.72129 -39.2787 
v 311 1.56574 -39.1513 
v 309 1.56574 -39.1513 
v 311 1.32254 -39.0324 
v 309 1.32254 -39.0324 
v 311 1.00001 -38.98 
v 309 1.00001 -38.98 
v 311 0.677485 -39.0324 
v 309 0.677485 -39.0324 
v 311 0.434288 -39.1513 
v 309 0.434288 -39.1513 
v 311 0.278732 -39.2787 
v 309 0.278732 -39.2787 

vn 0 0.708661 0.708661 
vn 0 0.708661 0.708661 
vn 0 0.551181 0.834646 
vn 0 0.551181 0.834646 
vn 0 0.314961 0.944882 
vn 0 0.314961 0.944882 
vn 0 0 1 
vn 0 0 1 
vn 0 -0.314961 0.944882 
vn 0 -0.314961 0.944882 
vn 0 -0.551181 0.834646 
vn 0 -0.551181 0.834646 
vn 0 -0.708661 0.708661 
vn 0 -0.708661 0.708661 

vt 1 1 
vt 0 1 
vt 1 0.833333 
vt 0 0.833333 
vt 1 0.666667 
vt 0 0.666667 
vt 1 0.5 
vt 0 0.5 
vt 1 0.333333 
vt 0 0.333333 
vt 1 0.166667 
vt 0 0.166667 
vt 1 0 
vt 0 0 

usemtl Spotlight2Mtl

f 115/115/115 116/116/116 117/117/117 
f 117/117/117 116/116/116 118/118/118 
f 117/117/117 118/118/118 119/119/119 
f 119/119/119 118/118/118 120/120/120 
f 119/119/119 120/120/120 121/121/121 
f 121/121/121 120/120/120 122/122/122 
f 121/121/121 122/122/122 123/123/123 
f 123/123/123 122/122/122 124/124/124 
f 123/123/123 124/124/124 125/125/125 
f 125/125/125 124/124/124 126/126/126 
f 125/125/125 126/126/126 127/127/127 
f 127/127/127 126/126/126 128/128/128 

g Spotlight3

v 309 1.72129 -39.2787 
v 311 1.72129 -39.2787 
v 309 1.84876 -39.4343 
v 311 1.84876 -39.4343 
v 309 1.96759 -39.6775 
v 311 1.96759 -39.6775 
v 309 2.02001 -40 
v 311 2.02001 -40 
v 309 1.96759 -40.3225 
v 311 1.96759 -40.3225 
v 309 1.84876 -40.5657 
v 311 1.84876 -40.5657 
v 309 1.72129 -40.7213 
v 311 1.72129 -40.7213 

vn 0 0.708661 0.708661 
vn 0 0.708661 0.708661 
vn 0 0.834646 0.551181 
vn 0 0.834646 0.551181 
vn 0 0.944882 0.314961 
vn 0 0.944882 0.314961 
vn 0 1 0 
vn 0 1 0 
vn 0 0.944882 -0.314961 
vn 0 0.944882 -0.314961 
vn 0 0.834646 -0.551181 
vn 0 0.834646 -0.551181 
vn 0 0.708661 -0.708661 
vn 0 0.708661 -0.708661 

vt 1 1 
vt 0 1 
vt 1 0.833333 
vt 0 0.833333 
vt 1 0.666667 
vt 0 0.666667 
vt 1 0.5 
vt 0 0.5 
vt 1 0.333333 
vt 0 0.333333 
vt 1 0.166667 
vt 0 0.166667 
vt 1 0 
vt 0 0 

usemtl Spotlight2Mtl

f 129/129/129 130/130/130 131/131/131 
f 131/131/131 130/130/130 132/132/132 
f 131/131/131 132/132/132 133/133/133 
f 133/133/133 132/132/132 134/134/134 
f 133/133/133 134/134/134 135/135/135 
f 135/135/135 134/134/134 136/136/136 
f 135/135/135 136/136/136 137/137/137 
f 137/137/137 136/136/136 138/138/138 
f 137/137/137 138/138/138 139/139/139 
f 139/139/139 138/138/138 140/140/140 
f 139/139/139 140/140/140 141/141/141 
f 141/141/141 140/140/140 142/142/142 

g Spotlight4

v 309 1.72129 -40.7213 
v 311 1.72129 -40.7213 
v 309 1.56574 -40.8487 
v 311 1.56574 -40.8487 
v 309 1.32254 -40.9676 
v 311 1.32254 -40.9676 
v 309 1.00001 -41.02 
v 311 1.00001 -41.02 
v 309 0.677485 -40.9676 
v 311 0.677485 -40.9676 
v 309 0.434288 -40.8487 
v 311 0.434288 -40.8487 
v 309 0.278732 -40.7213 
v 311 0.278732 -40.7213 

vn 0 0.708661 -0.708661 
vn 0 0.708661 -0.708661 
vn 0 0.551181 -0.834646 
vn 0 0.551181 -0.834646 
vn 0 0.314961 -0.944882 
vn 0 0.314961 -0.944882 
vn 0 0 -1 
vn 0 0 -1 
vn 0 -0.314961 -0.944882 
vn 0 -0.314961 -0.944882 
vn 0 -0.551181 -0.834646 
vn 0 -0.551181 -0.834646 
vn 0 -0.708661 -0.708661 
vn 0 -0.708661 -0.708661 

vt 1 1 
vt 0 1 
vt 1 0.833333 
vt 0 0.833333 
vt 1 0.666667 
vt 0 0.666667 
vt 1 0.5 
vt 0 0.5 
vt 1 0.333333 
vt 0 0.333333 
vt 1 0.166667 
vt 0 0.166667 
vt 1 0 
vt 0 0 

usemtl Spotlight2Mtl

f 143/143/143 144/144/144 145/145/145 
f 145/145/145 144/144/144 146/146/146 
f 145/145/145 146/146/146 147/147/147 
f 147/147/147 146/146/146 148/148/148 
f 147/147/147 148/148/148 149/149/149 
f 149/149/149 148/148/148 150/150/150 
f 149/149/149 150/150/150 151/151/151 
f 151/151/151 150/150/150 152/152/152 
f 151/151/151 152/152/152 153/153/153 
f 153/153/153 152/152/152 154/154/154 
f 153/153/153 154/154/154 155/155/155 
f 155/155/155 154/154/154 156/156/156 

g Spotlight5

v 309 0.278732 -40.7213 
v 311 0.278732 -40.7213 
v 309 0.151269 -40.5657 
v 311 0.151269 -40.5657 
v 309 0.032431 -40.3225 
v 311 0.032431 -40.3225 
v 309 -0.0199881 -40 
v 311 -0.0199881 -40 
v 309 0.032431 -39.6775 
v 311 0.032431 -39.6775 
v 309 0.151269 -39.4343 
v 311 0.151269 -39.4343 
v 309 0.278732 -39.2787 
v 311 0.278732 -39.2787 

vn 0 -0.708661 -0.708661 
vn 0 -0.708661 -0.708661 
vn 0 -0.834646 -0.551181 
vn 0 -0.834646 -0.551181 
vn 0 -0.944882 -0.314961 
vn 0 -0.944882 -0.314961 
vn 0 -1 0 
vn 0 -1 0 
vn 0 -0.944882 0.314961 
vn 0 -0.944882 0.314961 
vn 0 -0.834646 0.551181 
vn 0 -0.834646 0.551181 
vn 0 -0.708661 0.708661 
vn 0 -0.708661 0.708661 

vt 1 1 
vt 0 1 
vt 1 0.833333 
vt 0 0.833333 
vt 1 0.666667 
vt 0 0.666667 
vt 1 0.5 
vt 0 0.5 
vt 1 0.333333 
vt 0 0.333333 
vt 1 0.166667 
vt 0 0.166667 
vt 1 0 
vt 0 0 

usemtl Spotlight2Mtl

f 157/157/157 158/158/158 159/159/159 
f 159/159/159 158/158/158 160/160/160 
f 159/159/159 160/160/160 161/161/161 
f 161/161/161 160/160/160 162/162/162 
f 161/161/161 162/162/162 163/163/163 
f 163/163/163 162/162/162 164/164/164 
f 163/163/163 164/164/164 165/165/165 
f 165/165/165 164/164/164 166/166/166 
f 165/165/165 166/166/166 167/167/167 
f 167/167/167 166/166/166 168/168/168 
f 167/167/167 168/168/168 169/169/169 
f 169/169/169 168/168/168 170/170/170 

g Spotlight6

v 308.98 1.00001 -40 
v 308.98 1.70712 -39.2929 
v 308.98 1.55471 -39.1679 
v 308.98 1.31624 -39.0513 
v 308.98 1.00001 -39 
v 308.98 0.683784 -39.0513 
v 308.98 0.445312 -39.1679 
v 308.98 0.292905 -39.2929 
v 308.98 0.292905 -39.2929 
v 308.98 0.167962 -39.4453 
v 308.98 0.0513286 -39.6838 
v 308.98 1.19209e-05 -40 
v 308.98 0.0513286 -40.3162 
v 308.98 0.167962 -40.5547 
v 308.98 0.292905 -40.7071 
v 308.98 0.292905 -40.7071 
v 308.98 0.445312 -40.8321 
v 308.98 0.683784 -40.9487 
v 308.98 1.00001 -41 
v 308.98 1.31624 -40.9487 
v 308.98 1.55471 -40.8321 
v 308.98 1.70712 -40.7071 
v 308.98 1.70712 -40.7071 
v 308.98 1.83206 -40.5547 
v 308.98 1.9487 -40.3162 
v 308.98 2.00001 -40 
v 308.98 1.9487 -39.6838 
v 308.98 1.83206 -39.4453 
v 308.98 1.70712 -39.2929 

vn -1 0 0 
vn -1 0 0 
vn -1 0 0 
vn -1 0 0 
vn -1 0 0 
vn -1 0 0 
vn -1 0 0 
vn -1 0 0 
vn -1 0 0 
vn -1 0 0 
vn -1 0 0 
vn -1 0 0 
vn -1 0 0 
vn -1 0 0 
vn -1 0 0 
vn -1 0 0 
vn -1 0 0 
vn -1 0 0 
vn -1 0 0 
vn -1 0 0 
vn -1 0 0 
vn -1 0 0 
vn -1 0 0 
vn -1 0 0 
vn -1 0 0 
vn -1 0 0 
vn -1 0 0 
vn -1 0 0 
vn -1 0 0 

vt 0.5 0.5 
vt 0.853553 0.853553 
vt 0.916025 0.77735 
vt 0.974342 0.658114 
vt 1 0.5 
vt 0.974342 0.341886 
vt 0.916025 0.22265 
vt 0.853553 0.146447 
vt 0.853553 0.146447 
vt 0.77735 0.0839748 
vt 0.658114 0.0256584 
vt 0.5 0 
vt 0.341886 0.0256584 
vt 0.22265 0.0839748 
vt 0.146447 0.146447 
vt 0.146447 0.146447 
vt 0.0839748 0.22265 
vt 0.0256583 0.341886 
vt 0 0.5 
vt 0.0256583 0.658114 
vt 0.0839748 0.77735 
vt 0.146447 0.853553 
vt 0.146447 0.853553 
vt 0.22265 0.916025 
vt 0.341886 0.974342 
vt 0.5 1 
vt 0.658114 0.974342 
vt 0.77735 0.916025 
vt 0.853553 0.853553 

usemtl Spotlight6Mtl

f 171/171/171 173/173/173 172/172/172 
f 171/171/171 174/174/174 173/173/173 
f 171/171/171 175/175/175 174/174/174 
f 171/171/171 176/176/176 175/175/175 
f 171/171/171 177/177/177 176/176/176 
f 171/171/171 178/178/178 177/177/177 
f 171/171/171 180/180/180 179/179/179 
f 171/171/171 181/181/181 180/180/180 
f 171/171/171 182/182/182 181/181/181 
f 171/171/171 183/183/183 182/182/182 
f 171/171/171 184/184/184 183/183/183 
f 171/171/171 185/185/185 184/184/184 
f 171/171/171 187/187/187 186/186/186 
f 171/171/171 188/188/188 187/187/187 
f 171/171/171 189/189/189 188/188/188 
f 171/171/171 190/190/190 189/189/189 
f 171/171/171 191/191/191 190/190/190 
f 171/171/171 192/192/192 191/191/191 
f 171/171/171 194/194/194 193/193/193 
f 171/171/171 195/195/195 194/194/194 
f 171/171/171 196/196/196 195/195/195 
f 171/171/171 197/197/197 196/196/196 
f 171/171/171 198/198/198 197/197/197 
f 171/171/171 199/199/199 198/198/198 

