# This file is brought to you by Roblox Corporation
# Generated by Roblox Studio

mtllib heatpump.mtl

g Heatpump1

v 170.5 25.6 59 
v 170.5 25.6 61 
v 170.5 24.6 59 
v 170.5 24.6 61 
v 169.5 25.6 61 
v 170.5 25.6 61 
v 169.5 25.6 59 
v 170.5 25.6 59 
v 170.5 25.6 61 
v 169.5 25.6 61 
v 170.5 24.6 61 
v 169.5 24.6 61 
v 169.5 25.6 61 
v 169.5 25.6 59 
v 169.5 24.6 61 
v 169.5 24.6 59 
v 169.5 24.6 59 
v 170.5 24.6 59 
v 169.5 24.6 61 
v 170.5 24.6 61 
v 169.5 25.6 59 
v 170.5 25.6 59 
v 169.5 24.6 59 
v 170.5 24.6 59 

vn 1 0 0 
vn 1 0 0 
vn 1 0 0 
vn 1 0 0 
vn 0 1 0 
vn 0 1 0 
vn 0 1 0 
vn 0 1 0 
vn 0 0 1 
vn 0 0 1 
vn 0 0 1 
vn 0 0 1 
vn -1 0 0 
vn -1 0 0 
vn -1 0 0 
vn -1 0 0 
vn 0 -1 0 
vn 0 -1 0 
vn 0 -1 0 
vn 0 -1 0 
vn 0 0 -1 
vn 0 0 -1 
vn 0 0 -1 
vn 0 0 -1 

vt 0.427458 1.07635 
vt 0.177458 1.07635 
vt 0.427458 0.951351 
vt 0.177458 0.951351 
vt 0.302458 1.07635 
vt 0.177458 1.07635 
vt 0.302458 0.826351 
vt 0.177458 0.826351 
vt 0.302458 1.07635 
vt 0.177458 1.07635 
vt 0.302458 0.951351 
vt 0.177458 0.951351 
vt 0.427458 1.07635 
vt 0.177458 1.07635 
vt 0.427458 0.951351 
vt 0.177458 0.951351 
vt 0.302458 1.07635 
vt 0.177458 1.07635 
vt 0.302458 0.826351 
vt 0.177458 0.826351 
vt 0.302458 1.07635 
vt 0.177458 1.07635 
vt 0.302458 0.951351 
vt 0.177458 0.951351 

usemtl Heatpump1Mtl

f 1/1/1 2/2/2 3/3/3 
f 3/3/3 2/2/2 4/4/4 
f 5/5/5 6/6/6 7/7/7 
f 7/7/7 6/6/6 8/8/8 
f 9/9/9 10/10/10 11/11/11 
f 11/11/11 10/10/10 12/12/12 
f 13/13/13 14/14/14 15/15/15 
f 15/15/15 14/14/14 16/16/16 
f 17/17/17 18/18/18 19/19/19 
f 19/19/19 18/18/18 20/20/20 
f 21/21/21 22/22/22 23/23/23 
f 23/23/23 22/22/22 24/24/24 

g Heatpump2

v 169.5 25.62 61 
v 170.5 25.62 61 
v 169.5 25.62 59 
v 170.5 25.62 59 

vn 0 1 0 
vn 0 1 0 
vn 0 1 0 
vn 0 1 0 

vt 1 1 
vt 0 1 
vt 1 0 
vt 0 0 

usemtl Heatpump2Mtl

f 25/25/25 26/26/26 27/27/27 
f 27/27/27 26/26/26 28/28/28 

g Heatpump3

v 170.5 24.58 61 
v 169.5 24.58 61 
v 170.5 24.58 59 
v 169.5 24.58 59 

vn 0 -1 0 
vn 0 -1 0 
vn 0 -1 0 
vn 0 -1 0 

vt 1 1 
vt 0 1 
vt 1 0 
vt 0 0 

usemtl Heatpump2Mtl

f 29/29/29 30/30/30 31/31/31 
f 31/31/31 30/30/30 32/32/32 

