# This file is brought to you by Roblox Corporation
# Generated by Roblox Studio

mtllib roundwedge2.mtl

g Roundwedge21

v 409 15 -119 
v 409.103 15 -119.632 
v 409 17 -119 
v 409.103 17 -119.632 
v 409.336 15 -120.109 
v 409.336 17 -120.109 
v 409.586 15 -120.414 
v 409.586 17 -120.414 
v 409 17 -121 
v 409 17 -119 
v 409.103 17 -119.632 
v 409 17 -121 
v 409.103 17 -119.632 
v 409.336 17 -120.109 
v 409 17 -121 
v 409.336 17 -120.109 
v 409.586 17 -120.414 
v 409 17 -121 
v 409.586 17 -120.414 
v 409.891 17 -120.664 
v 409 17 -121 
v 409.891 17 -120.664 
v 410.368 17 -120.897 
v 409 17 -121 
v 410.368 17 -120.897 
v 411 17 -121 
v 409.586 15 -120.414 
v 409.891 15 -120.664 
v 409.586 17 -120.414 
v 409.891 17 -120.664 
v 410.368 15 -120.897 
v 410.368 17 -120.897 
v 411 15 -121 
v 411 17 -121 
v 409 15 -121 
v 409 15 -119 
v 409 17 -121 
v 409 17 -119 
v 409 15 -121 
v 411 15 -121 
v 410.368 15 -120.897 
v 409 15 -121 
v 410.368 15 -120.897 
v 409.891 15 -120.664 
v 409 15 -121 
v 409.891 15 -120.664 
v 409.586 15 -120.414 
v 409 15 -121 
v 409.586 15 -120.414 
v 409.336 15 -120.109 
v 409 15 -121 
v 409.336 15 -120.109 
v 409.103 15 -119.632 
v 409 15 -121 
v 409.103 15 -119.632 
v 409 15 -119 
v 409 17 -121 
v 411 17 -121 
v 409 15 -121 
v 411 15 -121 

vn 0.984252 0 0.15748 
vn 0.952756 0 0.299213 
vn 0.984252 0 0.15748 
vn 0.952756 0 0.299213 
vn 0.84252 0 0.543307 
vn 0.84252 0 0.543307 
vn 0.708661 0 0.708661 
vn 0.708661 0 0.708661 
vn 0 1 0 
vn 0 1 0 
vn 0 1 0 
vn 0 1 0 
vn 0 1 0 
vn 0 1 0 
vn 0 1 0 
vn 0 1 0 
vn 0 1 0 
vn 0 1 0 
vn 0 1 0 
vn 0 1 0 
vn 0 1 0 
vn 0 1 0 
vn 0 1 0 
vn 0 1 0 
vn 0 1 0 
vn 0 1 0 
vn 0.708661 0 0.708661 
vn 0.543307 0 0.84252 
vn 0.708661 0 0.708661 
vn 0.543307 0 0.84252 
vn 0.299213 0 0.952756 
vn 0.299213 0 0.952756 
vn 0.15748 0 0.984252 
vn 0.15748 0 0.984252 
vn -1 0 0 
vn -1 0 0 
vn -1 0 0 
vn -1 0 0 
vn 0 -1 0 
vn 0 -1 0 
vn 0 -1 0 
vn 0 -1 0 
vn 0 -1 0 
vn 0 -1 0 
vn 0 -1 0 
vn 0 -1 0 
vn 0 -1 0 
vn 0 -1 0 
vn 0 -1 0 
vn 0 -1 0 
vn 0 -1 0 
vn 0 -1 0 
vn 0 -1 0 
vn 0 -1 0 
vn 0 -1 0 
vn 0 -1 0 
vn 0 0 -1 
vn 0 0 -1 
vn 0 0 -1 
vn 0 0 -1 

vt 2.76779 -0.910426 
vt 2.84684 -0.910426 
vt 2.76779 -0.660426 
vt 2.84684 -0.660426 
vt 2.90646 -0.910426 
vt 2.90646 -0.660426 
vt 2.94456 -0.910426 
vt 2.94456 -0.660426 
vt 3.01779 -0.910426 
vt 3.01779 -0.660426 
vt 3.00496 -0.739483 
vt 3.01779 -0.910426 
vt 3.00496 -0.739483 
vt 2.9758 -0.799101 
vt 3.01779 -0.910426 
vt 2.9758 -0.799101 
vt 2.94456 -0.837202 
vt 3.01779 -0.910426 
vt 2.94456 -0.837202 
vt 2.90646 -0.868438 
vt 3.01779 -0.910426 
vt 2.90646 -0.868438 
vt 2.84684 -0.897597 
vt 3.01779 -0.910426 
vt 2.84684 -0.897597 
vt 2.76779 -0.910426 
vt 2.84101 -0.910426 
vt 2.87911 -0.910426 
vt 2.84101 -0.660426 
vt 2.87911 -0.660426 
vt 2.93873 -0.910426 
vt 2.93873 -0.660426 
vt 3.01779 -0.910426 
vt 3.01779 -0.660426 
vt 2.76779 -0.910426 
vt 3.01779 -0.910426 
vt 2.76779 -0.660426 
vt 3.01779 -0.660426 
vt 2.76779 -0.910426 
vt 3.01779 -0.910426 
vt 2.93873 -0.897597 
vt 2.76779 -0.910426 
vt 2.93873 -0.897597 
vt 2.87911 -0.868438 
vt 2.76779 -0.910426 
vt 2.87911 -0.868438 
vt 2.84101 -0.837202 
vt 2.76779 -0.910426 
vt 2.84101 -0.837202 
vt 2.80977 -0.799101 
vt 2.76779 -0.910426 
vt 2.80977 -0.799101 
vt 2.78061 -0.739483 
vt 2.76779 -0.910426 
vt 2.78061 -0.739483 
vt 2.76779 -0.660426 
vt 3.01779 -0.660426 
vt 2.76779 -0.660426 
vt 3.01779 -0.910426 
vt 2.76779 -0.910426 

usemtl Roundwedge21Mtl

f 1/1/1 2/2/2 3/3/3 
f 2/2/2 4/4/4 3/3/3 
f 2/2/2 5/5/5 4/4/4 
f 5/5/5 6/6/6 4/4/4 
f 5/5/5 7/7/7 6/6/6 
f 7/7/7 8/8/8 6/6/6 
f 9/9/9 10/10/10 11/11/11 
f 12/12/12 13/13/13 14/14/14 
f 15/15/15 16/16/16 17/17/17 
f 18/18/18 19/19/19 20/20/20 
f 21/21/21 22/22/22 23/23/23 
f 24/24/24 25/25/25 26/26/26 
f 27/27/27 28/28/28 29/29/29 
f 28/28/28 30/30/30 29/29/29 
f 28/28/28 31/31/31 30/30/30 
f 31/31/31 32/32/32 30/30/30 
f 31/31/31 33/33/33 32/32/32 
f 33/33/33 34/34/34 32/32/32 
f 35/35/35 36/36/36 37/37/37 
f 37/37/37 36/36/36 38/38/38 
f 39/39/39 40/40/40 41/41/41 
f 42/42/42 43/43/43 44/44/44 
f 45/45/45 46/46/46 47/47/47 
f 48/48/48 49/49/49 50/50/50 
f 51/51/51 52/52/52 53/53/53 
f 54/54/54 55/55/55 56/56/56 
f 57/57/57 58/58/58 59/59/59 
f 58/58/58 60/60/60 59/59/59 

