# This file is brought to you by Roblox Corporation
# Generated by Roblox Studio

mtllib objectdetector.mtl

g Objectdetector1

v 467.875 1 -120.25 
v 467.875 1 -117.25 
v 467.875 0 -120.25 
v 467.875 0 -117.25 
v 466.875 1 -117.25 
v 467.875 1 -117.25 
v 466.875 1 -120.25 
v 467.875 1 -120.25 
v 467.875 1 -117.25 
v 466.875 1 -117.25 
v 467.875 0 -117.25 
v 466.875 0 -117.25 
v 466.875 1 -117.25 
v 466.875 1 -120.25 
v 466.875 0 -117.25 
v 466.875 0 -120.25 
v 466.875 0 -120.25 
v 467.875 0 -120.25 
v 466.875 0 -117.25 
v 467.875 0 -117.25 
v 466.875 1 -120.25 
v 467.875 1 -120.25 
v 466.875 0 -120.25 
v 467.875 0 -120.25 

vn 1 0 0 
vn 1 0 0 
vn 1 0 0 
vn 1 0 0 
vn 0 1 0 
vn 0 1 0 
vn 0 1 0 
vn 0 1 0 
vn 0 0 1 
vn 0 0 1 
vn 0 0 1 
vn 0 0 1 
vn -1 0 0 
vn -1 0 0 
vn -1 0 0 
vn -1 0 0 
vn 0 -1 0 
vn 0 -1 0 
vn 0 -1 0 
vn 0 -1 0 
vn 0 0 -1 
vn 0 0 -1 
vn 0 0 -1 
vn 0 0 -1 

vt 0.668589 0.795423 
vt 0.293589 0.795423 
vt 0.668589 0.670423 
vt 0.293589 0.670423 
vt 0.418589 0.795423 
vt 0.293589 0.795423 
vt 0.418589 0.420423 
vt 0.293589 0.420423 
vt 0.418589 0.795423 
vt 0.293589 0.795423 
vt 0.418589 0.670423 
vt 0.293589 0.670423 
vt 0.668589 0.795423 
vt 0.293589 0.795423 
vt 0.668589 0.670423 
vt 0.293589 0.670423 
vt 0.418589 0.795423 
vt 0.293589 0.795423 
vt 0.418589 0.420423 
vt 0.293589 0.420423 
vt 0.418589 0.795423 
vt 0.293589 0.795423 
vt 0.418589 0.670423 
vt 0.293589 0.670423 

usemtl Objectdetector1Mtl

f 1/1/1 2/2/2 3/3/3 
f 3/3/3 2/2/2 4/4/4 
f 5/5/5 6/6/6 7/7/7 
f 7/7/7 6/6/6 8/8/8 
f 9/9/9 10/10/10 11/11/11 
f 11/11/11 10/10/10 12/12/12 
f 13/13/13 14/14/14 15/15/15 
f 15/15/15 14/14/14 16/16/16 
f 17/17/17 18/18/18 19/19/19 
f 19/19/19 18/18/18 20/20/20 
f 21/21/21 22/22/22 23/23/23 
f 23/23/23 22/22/22 24/24/24 

g Objectdetector2

v 467.895 1 -120.25 
v 467.895 1 -117.25 
v 467.895 0 -120.25 
v 467.895 0 -117.25 

vn 1 0 0 
vn 1 0 0 
vn 1 0 0 
vn 1 0 0 

vt 1 1 
vt 0 1 
vt 1 0 
vt 0 0 

usemtl Objectdetector2Mtl

f 25/25/25 26/26/26 27/27/27 
f 27/27/27 26/26/26 28/28/28 

g Objectdetector3

v 466.855 1 -117.25 
v 466.855 1 -120.25 
v 466.855 0 -117.25 
v 466.855 0 -120.25 

vn -1 0 0 
vn -1 0 0 
vn -1 0 0 
vn -1 0 0 

vt 1 1 
vt 0 1 
vt 1 0 
vt 0 0 

usemtl Objectdetector2Mtl

f 29/29/29 30/30/30 31/31/31 
f 31/31/31 30/30/30 32/32/32 

g Objectdetector4

v 466.875 1 -120.27 
v 467.875 1 -120.27 
v 466.875 0 -120.27 
v 467.875 0 -120.27 

vn 0 0 -1 
vn 0 0 -1 
vn 0 0 -1 
vn 0 0 -1 

vt 1 1 
vt 0 1 
vt 1 0 
vt 0 0 

usemtl Objectdetector4Mtl

f 33/33/33 34/34/34 35/35/35 
f 35/35/35 34/34/34 36/36/36 

g Objectdetector5

v 466.875 1.02 -117.25 
v 467.875 1.02 -117.25 
v 466.875 1.02 -120.25 
v 467.875 1.02 -120.25 

vn 0 1 0 
vn 0 1 0 
vn 0 1 0 
vn 0 1 0 

vt 1 1 
vt 0 1 
vt 1 0 
vt 0 0 

usemtl Objectdetector2Mtl

f 37/37/37 38/38/38 39/39/39 
f 39/39/39 38/38/38 40/40/40 

g Objectdetector6

v 467.875 -0.02 -117.25 
v 466.875 -0.02 -117.25 
v 467.875 -0.02 -120.25 
v 466.875 -0.02 -120.25 

vn 0 -1 0 
vn 0 -1 0 
vn 0 -1 0 
vn 0 -1 0 

vt 1 1 
vt 0 1 
vt 1 0 
vt 0 0 

usemtl Objectdetector2Mtl

f 41/41/41 42/42/42 43/43/43 
f 43/43/43 42/42/42 44/44/44 

