# This file is brought to you by Roblox Corporation
# Generated by Roblox Studio

mtllib mininglaser.mtl

g Mininglaser1

v 110 1 15 
v 109.293 1.70711 15 
v 109.168 1.5547 15 
v 109.051 1.31623 15 
v 109 1 15 
v 109.051 0.683772 15 
v 109.168 0.4453 15 
v 109.293 0.292893 15 
v 109.293 0.292893 15 
v 109.445 0.16795 15 
v 109.684 0.0513166 15 
v 110 -1.19209e-07 15 
v 110.316 0.0513166 15 
v 110.555 0.16795 15 
v 110.707 0.292893 15 
v 110.707 0.292893 15 
v 110.832 0.4453 15 
v 110.949 0.683772 15 
v 111 1 15 
v 110.949 1.31623 15 
v 110.832 1.5547 15 
v 110.707 1.70711 15 
v 110.707 1.70711 15 
v 110.555 1.83205 15 
v 110.316 1.94868 15 
v 110 2 15 
v 109.684 1.94868 15 
v 109.445 1.83205 15 
v 109.293 1.70711 15 
v 110.707 1.70711 25 
v 110.707 1.70711 15 
v 110.555 1.83205 25 
v 110.555 1.83205 15 
v 110.316 1.94868 25 
v 110.316 1.94868 15 
v 110 2 25 
v 110 2 15 
v 109.684 1.94868 25 
v 109.684 1.94868 15 
v 109.445 1.83205 25 
v 109.445 1.83205 15 
v 109.293 1.70711 25 
v 109.293 1.70711 15 
v 110.707 1.70711 15 
v 110.707 1.70711 25 
v 110.832 1.5547 15 
v 110.832 1.5547 25 
v 110.949 1.31623 15 
v 110.949 1.31623 25 
v 111 1 15 
v 111 1 25 
v 110.949 0.683772 15 
v 110.949 0.683772 25 
v 110.832 0.4453 15 
v 110.832 0.4453 25 
v 110.707 0.292893 15 
v 110.707 0.292893 25 
v 110 1 25 
v 110.707 1.70711 25 
v 110.832 1.5547 25 
v 110.949 1.31623 25 
v 111 1 25 
v 110.949 0.683772 25 
v 110.832 0.4453 25 
v 110.707 0.292893 25 
v 110.707 0.292893 25 
v 110.555 0.16795 25 
v 110.316 0.0513166 25 
v 110 -1.19209e-07 25 
v 109.684 0.0513166 25 
v 109.445 0.16795 25 
v 109.293 0.292893 25 
v 109.293 0.292893 25 
v 109.168 0.4453 25 
v 109.051 0.683772 25 
v 109 1 25 
v 109.051 1.31623 25 
v 109.168 1.5547 25 
v 109.293 1.70711 25 
v 109.293 1.70711 25 
v 109.445 1.83205 25 
v 109.684 1.94868 25 
v 110 2 25 
v 110.316 1.94868 25 
v 110.555 1.83205 25 
v 110.707 1.70711 25 
v 109.293 0.292893 25 
v 109.293 0.292893 15 
v 109.445 0.16795 25 
v 109.445 0.16795 15 
v 109.684 0.0513166 25 
v 109.684 0.0513166 15 
v 110 -1.19209e-07 25 
v 110 -1.19209e-07 15 
v 110.316 0.0513166 25 
v 110.316 0.0513166 15 
v 110.555 0.16795 25 
v 110.555 0.16795 15 
v 110.707 0.292893 25 
v 110.707 0.292893 15 
v 109.293 1.70711 25 
v 109.293 1.70711 15 
v 109.168 1.5547 25 
v 109.168 1.5547 15 
v 109.051 1.31623 25 
v 109.051 1.31623 15 
v 109 1 25 
v 109 1 15 
v 109.051 0.683772 25 
v 109.051 0.683772 15 
v 109.168 0.4453 25 
v 109.168 0.4453 15 
v 109.293 0.292893 25 
v 109.293 0.292893 15 

vn 0 0 -1 
vn 0 0 -1 
vn 0 0 -1 
vn 0 0 -1 
vn 0 0 -1 
vn 0 0 -1 
vn 0 0 -1 
vn 0 0 -1 
vn 0 0 -1 
vn 0 0 -1 
vn 0 0 -1 
vn 0 0 -1 
vn 0 0 -1 
vn 0 0 -1 
vn 0 0 -1 
vn 0 0 -1 
vn 0 0 -1 
vn 0 0 -1 
vn 0 0 -1 
vn 0 0 -1 
vn 0 0 -1 
vn 0 0 -1 
vn 0 0 -1 
vn 0 0 -1 
vn 0 0 -1 
vn 0 0 -1 
vn 0 0 -1 
vn 0 0 -1 
vn 0 0 -1 
vn 0.708661 0.708661 0 
vn 0.708661 0.708661 0 
vn 0.551181 0.834646 0 
vn 0.551181 0.834646 0 
vn 0.314961 0.944882 0 
vn 0.314961 0.944882 0 
vn 0 1 0 
vn 0 1 0 
vn -0.314961 0.944882 0 
vn -0.314961 0.944882 0 
vn -0.551181 0.834646 0 
vn -0.551181 0.834646 0 
vn -0.708661 0.708661 0 
vn -0.708661 0.708661 0 
vn 0.708661 0.708661 0 
vn 0.708661 0.708661 0 
vn 0.834646 0.551181 0 
vn 0.834646 0.551181 0 
vn 0.944882 0.314961 0 
vn 0.944882 0.314961 0 
vn 1 0 0 
vn 1 0 0 
vn 0.944882 -0.314961 0 
vn 0.944882 -0.314961 0 
vn 0.834646 -0.551181 0 
vn 0.834646 -0.551181 0 
vn 0.708661 -0.708661 0 
vn 0.708661 -0.708661 0 
vn 0 0 1 
vn 0 0 1 
vn 0 0 1 
vn 0 0 1 
vn 0 0 1 
vn 0 0 1 
vn 0 0 1 
vn 0 0 1 
vn 0 0 1 
vn 0 0 1 
vn 0 0 1 
vn 0 0 1 
vn 0 0 1 
vn 0 0 1 
vn 0 0 1 
vn 0 0 1 
vn 0 0 1 
vn 0 0 1 
vn 0 0 1 
vn 0 0 1 
vn 0 0 1 
vn 0 0 1 
vn 0 0 1 
vn 0 0 1 
vn 0 0 1 
vn 0 0 1 
vn 0 0 1 
vn 0 0 1 
vn 0 0 1 
vn -0.708661 -0.708661 0 
vn -0.708661 -0.708661 0 
vn -0.551181 -0.834646 0 
vn -0.551181 -0.834646 0 
vn -0.314961 -0.944882 0 
vn -0.314961 -0.944882 0 
vn 0 -1 0 
vn 0 -1 0 
vn 0.314961 -0.944882 0 
vn 0.314961 -0.944882 0 
vn 0.551181 -0.834646 0 
vn 0.551181 -0.834646 0 
vn 0.708661 -0.708661 0 
vn 0.708661 -0.708661 0 
vn -0.708661 0.708661 0 
vn -0.708661 0.708661 0 
vn -0.834646 0.551181 0 
vn -0.834646 0.551181 0 
vn -0.944882 0.314961 0 
vn -0.944882 0.314961 0 
vn -1 0 0 
vn -1 0 0 
vn -0.944882 -0.314961 0 
vn -0.944882 -0.314961 0 
vn -0.834646 -0.551181 0 
vn -0.834646 -0.551181 0 
vn -0.708661 -0.708661 0 
vn -0.708661 -0.708661 0 

vt 0.345288 1.39765 
vt 0.433677 1.48604 
vt 0.449295 1.46699 
vt 0.463874 1.43718 
vt 0.470288 1.39765 
vt 0.463874 1.35812 
vt 0.449295 1.32831 
vt 0.433677 1.30926 
vt 0.433677 1.30926 
vt 0.414626 1.29364 
vt 0.384817 1.27906 
vt 0.345288 1.27265 
vt 0.30576 1.27906 
vt 0.275951 1.29364 
vt 0.2569 1.30926 
vt 0.2569 1.30926 
vt 0.241282 1.32831 
vt 0.226703 1.35812 
vt 0.220288 1.39765 
vt 0.226703 1.43718 
vt 0.241282 1.46699 
vt 0.2569 1.48604 
vt 0.2569 1.48604 
vt 0.275951 1.50166 
vt 0.30576 1.51624 
vt 0.345288 1.52265 
vt 0.384817 1.51624 
vt 0.414626 1.50166 
vt 0.433677 1.48604 
vt 1.69058 2.0453 
vt 0.440576 2.0453 
vt 1.69058 2.00363 
vt 0.440576 2.00363 
vt 1.69058 1.96197 
vt 0.440576 1.96197 
vt 1.69058 1.9203 
vt 0.440576 1.9203 
vt 1.69058 1.87863 
vt 0.440576 1.87863 
vt 1.69058 1.83697 
vt 0.440576 1.83697 
vt 1.69058 1.7953 
vt 0.440576 1.7953 
vt 1.69058 2.0453 
vt 0.440576 2.0453 
vt 1.69058 2.00363 
vt 0.440576 2.00363 
vt 1.69058 1.96197 
vt 0.440576 1.96197 
vt 1.69058 1.9203 
vt 0.440576 1.9203 
vt 1.69058 1.87863 
vt 0.440576 1.87863 
vt 1.69058 1.83697 
vt 0.440576 1.83697 
vt 1.69058 1.7953 
vt 0.440576 1.7953 
vt 0.345288 1.39765 
vt 0.433677 1.48604 
vt 0.449295 1.46699 
vt 0.463874 1.43718 
vt 0.470288 1.39765 
vt 0.463874 1.35812 
vt 0.449295 1.32831 
vt 0.433677 1.30926 
vt 0.433677 1.30926 
vt 0.414626 1.29364 
vt 0.384817 1.27906 
vt 0.345288 1.27265 
vt 0.30576 1.27906 
vt 0.275951 1.29364 
vt 0.2569 1.30926 
vt 0.2569 1.30926 
vt 0.241282 1.32831 
vt 0.226703 1.35812 
vt 0.220288 1.39765 
vt 0.226703 1.43718 
vt 0.241282 1.46699 
vt 0.2569 1.48604 
vt 0.2569 1.48604 
vt 0.275951 1.50166 
vt 0.30576 1.51624 
vt 0.345288 1.52265 
vt 0.384817 1.51624 
vt 0.414626 1.50166 
vt 0.433677 1.48604 
vt 1.69058 2.0453 
vt 0.440576 2.0453 
vt 1.69058 2.00363 
vt 0.440576 2.00363 
vt 1.69058 1.96197 
vt 0.440576 1.96197 
vt 1.69058 1.9203 
vt 0.440576 1.9203 
vt 1.69058 1.87863 
vt 0.440576 1.87863 
vt 1.69058 1.83697 
vt 0.440576 1.83697 
vt 1.69058 1.7953 
vt 0.440576 1.7953 
vt 1.69058 2.0453 
vt 0.440576 2.0453 
vt 1.69058 2.00363 
vt 0.440576 2.00363 
vt 1.69058 1.96197 
vt 0.440576 1.96197 
vt 1.69058 1.9203 
vt 0.440576 1.9203 
vt 1.69058 1.87863 
vt 0.440576 1.87863 
vt 1.69058 1.83697 
vt 0.440576 1.83697 
vt 1.69058 1.7953 
vt 0.440576 1.7953 

usemtl Mininglaser1Mtl

f 1/1/1 3/3/3 2/2/2 
f 1/1/1 4/4/4 3/3/3 
f 1/1/1 5/5/5 4/4/4 
f 1/1/1 6/6/6 5/5/5 
f 1/1/1 7/7/7 6/6/6 
f 1/1/1 8/8/8 7/7/7 
f 1/1/1 10/10/10 9/9/9 
f 1/1/1 11/11/11 10/10/10 
f 1/1/1 12/12/12 11/11/11 
f 1/1/1 13/13/13 12/12/12 
f 1/1/1 14/14/14 13/13/13 
f 1/1/1 15/15/15 14/14/14 
f 1/1/1 17/17/17 16/16/16 
f 1/1/1 18/18/18 17/17/17 
f 1/1/1 19/19/19 18/18/18 
f 1/1/1 20/20/20 19/19/19 
f 1/1/1 21/21/21 20/20/20 
f 1/1/1 22/22/22 21/21/21 
f 1/1/1 24/24/24 23/23/23 
f 1/1/1 25/25/25 24/24/24 
f 1/1/1 26/26/26 25/25/25 
f 1/1/1 27/27/27 26/26/26 
f 1/1/1 28/28/28 27/27/27 
f 1/1/1 29/29/29 28/28/28 
f 30/30/30 31/31/31 32/32/32 
f 32/32/32 31/31/31 33/33/33 
f 32/32/32 33/33/33 34/34/34 
f 34/34/34 33/33/33 35/35/35 
f 34/34/34 35/35/35 36/36/36 
f 36/36/36 35/35/35 37/37/37 
f 36/36/36 37/37/37 38/38/38 
f 38/38/38 37/37/37 39/39/39 
f 38/38/38 39/39/39 40/40/40 
f 40/40/40 39/39/39 41/41/41 
f 40/40/40 41/41/41 42/42/42 
f 42/42/42 41/41/41 43/43/43 
f 44/44/44 45/45/45 46/46/46 
f 46/46/46 45/45/45 47/47/47 
f 46/46/46 47/47/47 48/48/48 
f 48/48/48 47/47/47 49/49/49 
f 48/48/48 49/49/49 50/50/50 
f 50/50/50 49/49/49 51/51/51 
f 50/50/50 51/51/51 52/52/52 
f 52/52/52 51/51/51 53/53/53 
f 52/52/52 53/53/53 54/54/54 
f 54/54/54 53/53/53 55/55/55 
f 54/54/54 55/55/55 56/56/56 
f 56/56/56 55/55/55 57/57/57 
f 58/58/58 60/60/60 59/59/59 
f 58/58/58 61/61/61 60/60/60 
f 58/58/58 62/62/62 61/61/61 
f 58/58/58 63/63/63 62/62/62 
f 58/58/58 64/64/64 63/63/63 
f 58/58/58 65/65/65 64/64/64 
f 58/58/58 67/67/67 66/66/66 
f 58/58/58 68/68/68 67/67/67 
f 58/58/58 69/69/69 68/68/68 
f 58/58/58 70/70/70 69/69/69 
f 58/58/58 71/71/71 70/70/70 
f 58/58/58 72/72/72 71/71/71 
f 58/58/58 74/74/74 73/73/73 
f 58/58/58 75/75/75 74/74/74 
f 58/58/58 76/76/76 75/75/75 
f 58/58/58 77/77/77 76/76/76 
f 58/58/58 78/78/78 77/77/77 
f 58/58/58 79/79/79 78/78/78 
f 58/58/58 81/81/81 80/80/80 
f 58/58/58 82/82/82 81/81/81 
f 58/58/58 83/83/83 82/82/82 
f 58/58/58 84/84/84 83/83/83 
f 58/58/58 85/85/85 84/84/84 
f 58/58/58 86/86/86 85/85/85 
f 87/87/87 88/88/88 89/89/89 
f 89/89/89 88/88/88 90/90/90 
f 89/89/89 90/90/90 91/91/91 
f 91/91/91 90/90/90 92/92/92 
f 91/91/91 92/92/92 93/93/93 
f 93/93/93 92/92/92 94/94/94 
f 93/93/93 94/94/94 95/95/95 
f 95/95/95 94/94/94 96/96/96 
f 95/95/95 96/96/96 97/97/97 
f 97/97/97 96/96/96 98/98/98 
f 97/97/97 98/98/98 99/99/99 
f 99/99/99 98/98/98 100/100/100 
f 101/101/101 102/102/102 103/103/103 
f 103/103/103 102/102/102 104/104/104 
f 103/103/103 104/104/104 105/105/105 
f 105/105/105 104/104/104 106/106/106 
f 105/105/105 106/106/106 107/107/107 
f 107/107/107 106/106/106 108/108/108 
f 107/107/107 108/108/108 109/109/109 
f 109/109/109 108/108/108 110/110/110 
f 109/109/109 110/110/110 111/111/111 
f 111/111/111 110/110/110 112/112/112 
f 111/111/111 112/112/112 113/113/113 
f 113/113/113 112/112/112 114/114/114 

g Mininglaser2

v 110 1 14.98 
v 109.293 1.70711 14.98 
v 109.168 1.5547 14.98 
v 109.051 1.31623 14.98 
v 109 1 14.98 
v 109.051 0.683772 14.98 
v 109.168 0.4453 14.98 
v 109.293 0.292893 14.98 
v 109.293 0.292893 14.98 
v 109.445 0.16795 14.98 
v 109.684 0.0513166 14.98 
v 110 -1.19209e-07 14.98 
v 110.316 0.0513166 14.98 
v 110.555 0.16795 14.98 
v 110.707 0.292893 14.98 
v 110.707 0.292893 14.98 
v 110.832 0.4453 14.98 
v 110.949 0.683772 14.98 
v 111 1 14.98 
v 110.949 1.31623 14.98 
v 110.832 1.5547 14.98 
v 110.707 1.70711 14.98 
v 110.707 1.70711 14.98 
v 110.555 1.83205 14.98 
v 110.316 1.94868 14.98 
v 110 2 14.98 
v 109.684 1.94868 14.98 
v 109.445 1.83205 14.98 
v 109.293 1.70711 14.98 

vn 0 0 -1 
vn 0 0 -1 
vn 0 0 -1 
vn 0 0 -1 
vn 0 0 -1 
vn 0 0 -1 
vn 0 0 -1 
vn 0 0 -1 
vn 0 0 -1 
vn 0 0 -1 
vn 0 0 -1 
vn 0 0 -1 
vn 0 0 -1 
vn 0 0 -1 
vn 0 0 -1 
vn 0 0 -1 
vn 0 0 -1 
vn 0 0 -1 
vn 0 0 -1 
vn 0 0 -1 
vn 0 0 -1 
vn 0 0 -1 
vn 0 0 -1 
vn 0 0 -1 
vn 0 0 -1 
vn 0 0 -1 
vn 0 0 -1 
vn 0 0 -1 
vn 0 0 -1 

vt 0.5 0.5 
vt 0.853553 0.853553 
vt 0.916025 0.77735 
vt 0.974342 0.658114 
vt 1 0.5 
vt 0.974342 0.341886 
vt 0.916025 0.22265 
vt 0.853553 0.146447 
vt 0.853553 0.146447 
vt 0.77735 0.0839748 
vt 0.658114 0.0256584 
vt 0.5 0 
vt 0.341886 0.0256584 
vt 0.22265 0.0839748 
vt 0.146447 0.146447 
vt 0.146447 0.146447 
vt 0.0839748 0.22265 
vt 0.0256583 0.341886 
vt 0 0.5 
vt 0.0256583 0.658114 
vt 0.0839748 0.77735 
vt 0.146447 0.853553 
vt 0.146447 0.853553 
vt 0.22265 0.916025 
vt 0.341886 0.974342 
vt 0.5 1 
vt 0.658114 0.974342 
vt 0.77735 0.916025 
vt 0.853553 0.853553 

usemtl Mininglaser2Mtl

f 115/115/115 117/117/117 116/116/116 
f 115/115/115 118/118/118 117/117/117 
f 115/115/115 119/119/119 118/118/118 
f 115/115/115 120/120/120 119/119/119 
f 115/115/115 121/121/121 120/120/120 
f 115/115/115 122/122/122 121/121/121 
f 115/115/115 124/124/124 123/123/123 
f 115/115/115 125/125/125 124/124/124 
f 115/115/115 126/126/126 125/125/125 
f 115/115/115 127/127/127 126/126/126 
f 115/115/115 128/128/128 127/127/127 
f 115/115/115 129/129/129 128/128/128 
f 115/115/115 131/131/131 130/130/130 
f 115/115/115 132/132/132 131/131/131 
f 115/115/115 133/133/133 132/132/132 
f 115/115/115 134/134/134 133/133/133 
f 115/115/115 135/135/135 134/134/134 
f 115/115/115 136/136/136 135/135/135 
f 115/115/115 138/138/138 137/137/137 
f 115/115/115 139/139/139 138/138/138 
f 115/115/115 140/140/140 139/139/139 
f 115/115/115 141/141/141 140/140/140 
f 115/115/115 142/142/142 141/141/141 
f 115/115/115 143/143/143 142/142/142 

g Mininglaser3

v 109.279 1.72128 25 
v 109.279 1.72128 15 
v 109.151 1.56572 25 
v 109.151 1.56572 15 
v 109.032 1.32253 25 
v 109.032 1.32253 15 
v 108.98 1 25 
v 108.98 1 15 
v 109.032 0.677473 25 
v 109.032 0.677473 15 
v 109.151 0.434276 25 
v 109.151 0.434276 15 
v 109.279 0.27872 25 
v 109.279 0.27872 15 

vn -0.708661 0.708661 0 
vn -0.708661 0.708661 0 
vn -0.834646 0.551181 0 
vn -0.834646 0.551181 0 
vn -0.944882 0.314961 0 
vn -0.944882 0.314961 0 
vn -1 0 0 
vn -1 0 0 
vn -0.944882 -0.314961 0 
vn -0.944882 -0.314961 0 
vn -0.834646 -0.551181 0 
vn -0.834646 -0.551181 0 
vn -0.708661 -0.708661 0 
vn -0.708661 -0.708661 0 

vt 1 1 
vt 0 1 
vt 1 0.833333 
vt 0 0.833333 
vt 1 0.666667 
vt 0 0.666667 
vt 1 0.5 
vt 0 0.5 
vt 1 0.333333 
vt 0 0.333333 
vt 1 0.166667 
vt 0 0.166667 
vt 1 0 
vt 0 0 

usemtl Mininglaser3Mtl

f 144/144/144 145/145/145 146/146/146 
f 146/146/146 145/145/145 147/147/147 
f 146/146/146 147/147/147 148/148/148 
f 148/148/148 147/147/147 149/149/149 
f 148/148/148 149/149/149 150/150/150 
f 150/150/150 149/149/149 151/151/151 
f 150/150/150 151/151/151 152/152/152 
f 152/152/152 151/151/151 153/153/153 
f 152/152/152 153/153/153 154/154/154 
f 154/154/154 153/153/153 155/155/155 
f 154/154/154 155/155/155 156/156/156 
f 156/156/156 155/155/155 157/157/157 

g Mininglaser4

v 110.721 1.72128 25 
v 110.721 1.72128 15 
v 110.566 1.84874 25 
v 110.566 1.84874 15 
v 110.323 1.96758 25 
v 110.323 1.96758 15 
v 110 2.02 25 
v 110 2.02 15 
v 109.677 1.96758 25 
v 109.677 1.96758 15 
v 109.434 1.84874 25 
v 109.434 1.84874 15 
v 109.279 1.72128 25 
v 109.279 1.72128 15 

vn 0.708661 0.708661 0 
vn 0.708661 0.708661 0 
vn 0.551181 0.834646 0 
vn 0.551181 0.834646 0 
vn 0.314961 0.944882 0 
vn 0.314961 0.944882 0 
vn 0 1 0 
vn 0 1 0 
vn -0.314961 0.944882 0 
vn -0.314961 0.944882 0 
vn -0.551181 0.834646 0 
vn -0.551181 0.834646 0 
vn -0.708661 0.708661 0 
vn -0.708661 0.708661 0 

vt 1 1 
vt 0 1 
vt 1 0.833333 
vt 0 0.833333 
vt 1 0.666667 
vt 0 0.666667 
vt 1 0.5 
vt 0 0.5 
vt 1 0.333333 
vt 0 0.333333 
vt 1 0.166667 
vt 0 0.166667 
vt 1 0 
vt 0 0 

usemtl Mininglaser3Mtl

f 158/158/158 159/159/159 160/160/160 
f 160/160/160 159/159/159 161/161/161 
f 160/160/160 161/161/161 162/162/162 
f 162/162/162 161/161/161 163/163/163 
f 162/162/162 163/163/163 164/164/164 
f 164/164/164 163/163/163 165/165/165 
f 164/164/164 165/165/165 166/166/166 
f 166/166/166 165/165/165 167/167/167 
f 166/166/166 167/167/167 168/168/168 
f 168/168/168 167/167/167 169/169/169 
f 168/168/168 169/169/169 170/170/170 
f 170/170/170 169/169/169 171/171/171 

g Mininglaser5

v 110.721 1.72128 15 
v 110.721 1.72128 25 
v 110.849 1.56572 15 
v 110.849 1.56572 25 
v 110.968 1.32253 15 
v 110.968 1.32253 25 
v 111.02 1 15 
v 111.02 1 25 
v 110.968 0.677473 15 
v 110.968 0.677473 25 
v 110.849 0.434276 15 
v 110.849 0.434276 25 
v 110.721 0.27872 15 
v 110.721 0.27872 25 

vn 0.708661 0.708661 0 
vn 0.708661 0.708661 0 
vn 0.834646 0.551181 0 
vn 0.834646 0.551181 0 
vn 0.944882 0.314961 0 
vn 0.944882 0.314961 0 
vn 1 0 0 
vn 1 0 0 
vn 0.944882 -0.314961 0 
vn 0.944882 -0.314961 0 
vn 0.834646 -0.551181 0 
vn 0.834646 -0.551181 0 
vn 0.708661 -0.708661 0 
vn 0.708661 -0.708661 0 

vt 1 1 
vt 0 1 
vt 1 0.833333 
vt 0 0.833333 
vt 1 0.666667 
vt 0 0.666667 
vt 1 0.5 
vt 0 0.5 
vt 1 0.333333 
vt 0 0.333333 
vt 1 0.166667 
vt 0 0.166667 
vt 1 0 
vt 0 0 

usemtl Mininglaser3Mtl

f 172/172/172 173/173/173 174/174/174 
f 174/174/174 173/173/173 175/175/175 
f 174/174/174 175/175/175 176/176/176 
f 176/176/176 175/175/175 177/177/177 
f 176/176/176 177/177/177 178/178/178 
f 178/178/178 177/177/177 179/179/179 
f 178/178/178 179/179/179 180/180/180 
f 180/180/180 179/179/179 181/181/181 
f 180/180/180 181/181/181 182/182/182 
f 182/182/182 181/181/181 183/183/183 
f 182/182/182 183/183/183 184/184/184 
f 184/184/184 183/183/183 185/185/185 

g Mininglaser6

v 109.279 0.27872 25 
v 109.279 0.27872 15 
v 109.434 0.151257 25 
v 109.434 0.151257 15 
v 109.677 0.0324189 25 
v 109.677 0.0324189 15 
v 110 -0.0200001 25 
v 110 -0.0200001 15 
v 110.323 0.0324189 25 
v 110.323 0.0324189 15 
v 110.566 0.151257 25 
v 110.566 0.151257 15 
v 110.721 0.27872 25 
v 110.721 0.27872 15 

vn -0.708661 -0.708661 0 
vn -0.708661 -0.708661 0 
vn -0.551181 -0.834646 0 
vn -0.551181 -0.834646 0 
vn -0.314961 -0.944882 0 
vn -0.314961 -0.944882 0 
vn 0 -1 0 
vn 0 -1 0 
vn 0.314961 -0.944882 0 
vn 0.314961 -0.944882 0 
vn 0.551181 -0.834646 0 
vn 0.551181 -0.834646 0 
vn 0.708661 -0.708661 0 
vn 0.708661 -0.708661 0 

vt 1 1 
vt 0 1 
vt 1 0.833333 
vt 0 0.833333 
vt 1 0.666667 
vt 0 0.666667 
vt 1 0.5 
vt 0 0.5 
vt 1 0.333333 
vt 0 0.333333 
vt 1 0.166667 
vt 0 0.166667 
vt 1 0 
vt 0 0 

usemtl Mininglaser3Mtl

f 186/186/186 187/187/187 188/188/188 
f 188/188/188 187/187/187 189/189/189 
f 188/188/188 189/189/189 190/190/190 
f 190/190/190 189/189/189 191/191/191 
f 190/190/190 191/191/191 192/192/192 
f 192/192/192 191/191/191 193/193/193 
f 192/192/192 193/193/193 194/194/194 
f 194/194/194 193/193/193 195/195/195 
f 194/194/194 195/195/195 196/196/196 
f 196/196/196 195/195/195 197/197/197 
f 196/196/196 197/197/197 198/198/198 
f 198/198/198 197/197/197 199/199/199 

g Mininglaser7

v 110 1 25.02 
v 110.707 1.70711 25.02 
v 110.832 1.5547 25.02 
v 110.949 1.31623 25.02 
v 111 1 25.02 
v 110.949 0.683772 25.02 
v 110.832 0.4453 25.02 
v 110.707 0.292893 25.02 
v 110.707 0.292893 25.02 
v 110.555 0.16795 25.02 
v 110.316 0.0513166 25.02 
v 110 -1.19209e-07 25.02 
v 109.684 0.0513166 25.02 
v 109.445 0.16795 25.02 
v 109.293 0.292893 25.02 
v 109.293 0.292893 25.02 
v 109.168 0.4453 25.02 
v 109.051 0.683772 25.02 
v 109 1 25.02 
v 109.051 1.31623 25.02 
v 109.168 1.5547 25.02 
v 109.293 1.70711 25.02 
v 109.293 1.70711 25.02 
v 109.445 1.83205 25.02 
v 109.684 1.94868 25.02 
v 110 2 25.02 
v 110.316 1.94868 25.02 
v 110.555 1.83205 25.02 
v 110.707 1.70711 25.02 

vn 0 0 1 
vn 0 0 1 
vn 0 0 1 
vn 0 0 1 
vn 0 0 1 
vn 0 0 1 
vn 0 0 1 
vn 0 0 1 
vn 0 0 1 
vn 0 0 1 
vn 0 0 1 
vn 0 0 1 
vn 0 0 1 
vn 0 0 1 
vn 0 0 1 
vn 0 0 1 
vn 0 0 1 
vn 0 0 1 
vn 0 0 1 
vn 0 0 1 
vn 0 0 1 
vn 0 0 1 
vn 0 0 1 
vn 0 0 1 
vn 0 0 1 
vn 0 0 1 
vn 0 0 1 
vn 0 0 1 
vn 0 0 1 

vt 0.5 0.5 
vt 0.853553 0.853553 
vt 0.916025 0.77735 
vt 0.974342 0.658114 
vt 1 0.5 
vt 0.974342 0.341886 
vt 0.916025 0.22265 
vt 0.853553 0.146447 
vt 0.853553 0.146447 
vt 0.77735 0.0839748 
vt 0.658114 0.0256584 
vt 0.5 0 
vt 0.341886 0.0256584 
vt 0.22265 0.0839748 
vt 0.146447 0.146447 
vt 0.146447 0.146447 
vt 0.0839748 0.22265 
vt 0.0256583 0.341886 
vt 0 0.5 
vt 0.0256583 0.658114 
vt 0.0839748 0.77735 
vt 0.146447 0.853553 
vt 0.146447 0.853553 
vt 0.22265 0.916025 
vt 0.341886 0.974342 
vt 0.5 1 
vt 0.658114 0.974342 
vt 0.77735 0.916025 
vt 0.853553 0.853553 

usemtl Mininglaser7Mtl

f 200/200/200 202/202/202 201/201/201 
f 200/200/200 203/203/203 202/202/202 
f 200/200/200 204/204/204 203/203/203 
f 200/200/200 205/205/205 204/204/204 
f 200/200/200 206/206/206 205/205/205 
f 200/200/200 207/207/207 206/206/206 
f 200/200/200 209/209/209 208/208/208 
f 200/200/200 210/210/210 209/209/209 
f 200/200/200 211/211/211 210/210/210 
f 200/200/200 212/212/212 211/211/211 
f 200/200/200 213/213/213 212/212/212 
f 200/200/200 214/214/214 213/213/213 
f 200/200/200 216/216/216 215/215/215 
f 200/200/200 217/217/217 216/216/216 
f 200/200/200 218/218/218 217/217/217 
f 200/200/200 219/219/219 218/218/218 
f 200/200/200 220/220/220 219/219/219 
f 200/200/200 221/221/221 220/220/220 
f 200/200/200 223/223/223 222/222/222 
f 200/200/200 224/224/224 223/223/223 
f 200/200/200 225/225/225 224/224/224 
f 200/200/200 226/226/226 225/225/225 
f 200/200/200 227/227/227 226/226/226 
f 200/200/200 228/228/228 227/227/227 

