# This file is brought to you by Roblox Corporation
# Generated by Roblox Studio

mtllib stasisfield.mtl

g Stasisfield1

v 175 30 105 
v 175 0 105 
v 175 30 95 
v 175 0 95 
v 165 0 105 
v 175 0 105 
v 165 30 105 
v 175 30 105 
v 175 0 105 
v 165 0 105 
v 175 0 95 
v 165 0 95 
v 165 0 105 
v 165 30 105 
v 165 0 95 
v 165 30 95 
v 165 30 95 
v 175 30 95 
v 165 0 95 
v 175 0 95 
v 165 30 105 
v 175 30 105 
v 165 30 95 
v 175 30 95 

vn 1 0 0 
vn 1 0 0 
vn 1 0 0 
vn 1 0 0 
vn 0 0 1 
vn 0 0 1 
vn 0 0 1 
vn 0 0 1 
vn 0 -1 0 
vn 0 -1 0 
vn 0 -1 0 
vn 0 -1 0 
vn -1 0 0 
vn -1 0 0 
vn -1 0 0 
vn -1 0 0 
vn 0 0 -1 
vn 0 0 -1 
vn 0 0 -1 
vn 0 0 -1 
vn 0 1 0 
vn 0 1 0 
vn 0 1 0 
vn 0 1 0 

vt 8.5 -5.5 
vt 4.75 -5.5 
vt 8.5 -6.75 
vt 4.75 -6.75 
vt 6 -5.5 
vt 4.75 -5.5 
vt 6 -9.25 
vt 4.75 -9.25 
vt 6 -5.5 
vt 4.75 -5.5 
vt 6 -6.75 
vt 4.75 -6.75 
vt 8.5 -5.5 
vt 4.75 -5.5 
vt 8.5 -6.75 
vt 4.75 -6.75 
vt 6 -5.5 
vt 4.75 -5.5 
vt 6 -9.25 
vt 4.75 -9.25 
vt 6 -5.5 
vt 4.75 -5.5 
vt 6 -6.75 
vt 4.75 -6.75 

usemtl Stasisfield1Mtl

f 1/1/1 2/2/2 3/3/3 
f 3/3/3 2/2/2 4/4/4 
f 5/5/5 6/6/6 7/7/7 
f 7/7/7 6/6/6 8/8/8 
f 9/9/9 10/10/10 11/11/11 
f 11/11/11 10/10/10 12/12/12 
f 13/13/13 14/14/14 15/15/15 
f 15/15/15 14/14/14 16/16/16 
f 17/17/17 18/18/18 19/19/19 
f 19/19/19 18/18/18 20/20/20 
f 21/21/21 22/22/22 23/23/23 
f 23/23/23 22/22/22 24/24/24 

g Stasisfield2

v 164.98 0 105 
v 164.98 30 105 
v 164.98 0 95 
v 164.98 30 95 

vn -1 0 0 
vn -1 0 0 
vn -1 0 0 
vn -1 0 0 

vt 1 1 
vt 0 1 
vt 1 0 
vt 0 0 

usemtl Stasisfield2Mtl

f 25/25/25 26/26/26 27/27/27 
f 27/27/27 26/26/26 28/28/28 

g Stasisfield3

v 175.02 30 105 
v 175.02 0 105 
v 175.02 30 95 
v 175.02 0 95 

vn 1 0 0 
vn 1 0 0 
vn 1 0 0 
vn 1 0 0 

vt 1 1 
vt 0 1 
vt 1 0 
vt 0 0 

usemtl Stasisfield2Mtl

f 29/29/29 30/30/30 31/31/31 
f 31/31/31 30/30/30 32/32/32 

g Stasisfield4

v 165 0 105.02 
v 175 0 105.02 
v 165 30 105.02 
v 175 30 105.02 

vn 0 0 1 
vn 0 0 1 
vn 0 0 1 
vn 0 0 1 

vt 1 1 
vt 0 1 
vt 1 0 
vt 0 0 

usemtl Stasisfield4Mtl

f 33/33/33 34/34/34 35/35/35 
f 35/35/35 34/34/34 36/36/36 

g Stasisfield5

v 175 0 94.98 
v 165 0 94.98 
v 175 30 94.98 
v 165 30 94.98 

vn 0 0 -1 
vn 0 0 -1 
vn 0 0 -1 
vn 0 0 -1 

vt 1 1 
vt 0 1 
vt 1 0 
vt 0 0 

usemtl Stasisfield4Mtl

f 37/37/37 38/38/38 39/39/39 
f 39/39/39 38/38/38 40/40/40 

g Stasisfield6

v 175 -0.02 105 
v 165 -0.02 105 
v 175 -0.02 95 
v 165 -0.02 95 

vn 0 -1 0 
vn 0 -1 0 
vn 0 -1 0 
vn 0 -1 0 

vt 3.33333 1 
vt 0 1 
vt 3.33333 -2.33333 
vt 0 -2.33333 

usemtl Stasisfield6Mtl

f 41/41/41 42/42/42 43/43/43 
f 43/43/43 42/42/42 44/44/44 

g Stasisfield7

v 165 30.02 105 
v 175 30.02 105 
v 165 30.02 95 
v 175 30.02 95 

vn 0 1 0 
vn 0 1 0 
vn 0 1 0 
vn 0 1 0 

vt 1 1 
vt 0 1 
vt 1 0 
vt 0 0 

usemtl Stasisfield7Mtl

f 45/45/45 46/46/46 47/47/47 
f 47/47/47 46/46/46 48/48/48 

