# This file is brought to you by Roblox Corporation
# Generated by Roblox Studio

mtllib primer.mtl

g Primer1

v 509.731 0.98312 -60.4033 
v 509.524 0.98312 -59.9054 
v 509.905 0.98312 -60.4757 
v 509.524 0.98312 -60.0946 
v 509.597 0.98312 -60.2695 
v 510 0.98312 -59.515 
v 509.597 0.98312 -59.7305 
v 509.731 0.98312 -59.5967 
v 510.095 0.98312 -60.4757 
v 510.476 0.98312 -59.9054 
v 510.269 0.98312 -60.4033 
v 510.403 0.98312 -59.7305 
v 510.269 0.98312 -59.5967 
v 510.476 0.98312 -60.0946 
v 510.403 0.98312 -60.2695 
v 510.511 0.0229999 -59.6519 
v 510.511 0.215024 -59.6519 
v 510.348 0.0229999 -59.4895 
v 510.348 0.215024 -59.4895 
v 509.415 0.0473839 -59.9428 
v 509.415 0.0473839 -60.0572 
v 509.415 0.0169039 -60.0572 
v 509.415 0.0169039 -59.9428 
v 510.348 0.215024 -60.5105 
v 510.511 0.215024 -60.3481 
v 510.511 0.0229999 -60.3481 
v 510.348 0.0229999 -60.5105 
v 510.585 0.0473839 -60.0572 
v 510.585 0.0169039 -59.9428 
v 510.585 0.0169039 -60.0572 
v 510.585 0.0473839 -59.9428 
v 509.489 0.119012 -59.8144 
v 509.489 0.215024 -59.4895 
v 509.489 0.215024 -59.8144 
v 509.489 0.0229999 -59.4895 
v 509.489 0.119012 -60.1856 
v 509.489 0.0229999 -60.5105 
v 509.489 0.215024 -60.5105 
v 509.489 0.215024 -60.1856 
v 510.186 0.119012 -59.4895 
v 510.348 0.215024 -59.4895 
v 510.186 0.215024 -59.4895 
v 510.348 0.0229999 -59.4895 
v 509.814 0.119012 -59.4895 
v 509.489 0.0229999 -59.4895 
v 509.489 0.215024 -59.4895 
v 509.814 0.215024 -59.4895 
v 510.348 0.215024 -60.5105 
v 510.186 0.119012 -60.5105 
v 510.186 0.215024 -60.5105 
v 510.348 0.0229999 -60.5105 
v 509.814 0.119012 -60.5105 
v 509.489 0.0229999 -60.5105 
v 509.489 0.215024 -60.5105 
v 509.814 0.215024 -60.5105 
v 509.552 0.215024 -59.8144 
v 509.524 0.119042 -59.9054 
v 509.552 0.119042 -59.8144 
v 509.524 0.98312 -59.9054 
v 509.597 0.98312 -59.7305 
v 509.597 0.215024 -59.7305 
v 510.511 0.215024 -59.8144 
v 510.511 0.215024 -59.6519 
v 510.511 0.119012 -59.8144 
v 510.511 0.0229999 -59.6519 
v 510.511 0.119012 -60.1856 
v 510.511 0.0229999 -60.3481 
v 510.511 0.215024 -60.3481 
v 510.511 0.215024 -60.1856 
v 509.731 0.215024 -59.5967 
v 509.731 0.98312 -59.5967 
v 509.597 0.215024 -59.7305 
v 509.597 0.98312 -59.7305 
v 509.552 0.215024 -60.1856 
v 509.597 0.98312 -60.2695 
v 509.597 0.215024 -60.2695 
v 509.524 0.98312 -60.0946 
v 509.524 0.119042 -60.0946 
v 509.552 0.119042 -60.1856 
v 509.524 0.119042 -59.9054 
v 509.524 0.98312 -59.9054 
v 509.524 0.119042 -60.0946 
v 509.524 0.98312 -60.0946 
v 510 0.119042 -59.515 
v 509.814 0.215024 -59.5519 
v 509.814 0.119042 -59.5519 
v 510 0.98312 -59.515 
v 509.731 0.98312 -59.5967 
v 509.731 0.215024 -59.5967 
v 509.731 0.98312 -60.4033 
v 509.597 0.215024 -60.2695 
v 509.597 0.98312 -60.2695 
v 509.731 0.215024 -60.4033 
v 509.905 0.98312 -60.4757 
v 509.814 0.215024 -60.4481 
v 509.731 0.98312 -60.4033 
v 509.731 0.215024 -60.4033 
v 509.905 0.119042 -60.4757 
v 509.814 0.119042 -60.4481 
v 510.186 0.215024 -59.5519 
v 510 0.119042 -59.515 
v 510.186 0.119042 -59.5519 
v 510 0.98312 -59.515 
v 510.269 0.98312 -59.5967 
v 510.269 0.215024 -59.5967 
v 510.403 0.215024 -59.7305 
v 510.403 0.98312 -59.7305 
v 510.269 0.215024 -59.5967 
v 510.269 0.98312 -59.5967 
v 510.403 0.98312 -59.7305 
v 510.448 0.215024 -59.8144 
v 510.476 0.98312 -59.9054 
v 510.403 0.215024 -59.7305 
v 510.476 0.119042 -59.9054 
v 510.448 0.119042 -59.8144 
v 509.905 0.119042 -60.4757 
v 509.905 0.98312 -60.4757 
v 510.095 0.98312 -60.4757 
v 510.095 0.119042 -60.4757 
v 510.269 0.98312 -60.4033 
v 510.186 0.215024 -60.4481 
v 510.095 0.98312 -60.4757 
v 510.269 0.215024 -60.4033 
v 510.095 0.119042 -60.4757 
v 510.186 0.119042 -60.4481 
v 510.448 0.215024 -60.1856 
v 510.476 0.119042 -60.0946 
v 510.448 0.119042 -60.1856 
v 510.476 0.98312 -60.0946 
v 510.403 0.98312 -60.2695 
v 510.403 0.215024 -60.2695 
v 510.476 0.119042 -60.0946 
v 510.476 0.98312 -60.0946 
v 510.476 0.98312 -59.9054 
v 510.476 0.119042 -59.9054 
v 510.403 0.98312 -60.2695 
v 510.269 0.215024 -60.4033 
v 510.269 0.98312 -60.4033 
v 510.403 0.215024 -60.2695 
v 510.196 0.0169039 -60.0572 
v 510.585 0.0169039 -60.0572 
v 510.585 0.0169039 -59.9428 
v 510.196 0.0169039 -59.9428 
v 509.804 0.0169039 -59.9428 
v 509.415 0.0169039 -60.0572 
v 509.804 0.0169039 -60.0572 
v 509.415 0.0169039 -59.9428 
v 510.348 0.0229999 -60.5105 
v 510.511 0.0229999 -59.6519 
v 510.348 0.0229999 -59.4895 
v 510.511 0.0229999 -60.3481 
v 509.489 0.0229999 -60.5105 
v 509.489 0.0229999 -59.4895 
v 510.196 0.0169039 -59.9428 
v 510.585 0.0169039 -59.9428 
v 510.511 0.0229999 -59.9428 
v 510.196 0.0229999 -59.9428 
v 510.585 0.0473839 -59.9428 
v 510.511 0.0473839 -59.9428 
v 509.489 0.0229999 -59.9428 
v 509.804 0.0169039 -59.9428 
v 509.804 0.0229999 -59.9428 
v 509.415 0.0169039 -59.9428 
v 509.415 0.0473839 -59.9428 
v 509.489 0.0473839 -59.9428 
v 510.585 0.0169039 -60.0572 
v 510.196 0.0169039 -60.0572 
v 510.511 0.0229999 -60.0572 
v 510.196 0.0229999 -60.0572 
v 510.585 0.0473839 -60.0572 
v 510.511 0.0473839 -60.0572 
v 509.804 0.0169039 -60.0572 
v 509.415 0.0169039 -60.0572 
v 509.489 0.0229999 -60.0572 
v 509.804 0.0229999 -60.0572 
v 509.415 0.0473839 -60.0572 
v 509.489 0.0473839 -60.0572 
v 509.597 0.215024 -60.2695 
v 509.489 0.215024 -60.5105 
v 509.489 0.215024 -60.1856 
v 509.552 0.215024 -60.1856 
v 509.731 0.215024 -60.4033 
v 509.814 0.215024 -60.5105 
v 509.814 0.215024 -60.4481 
v 510.186 0.215024 -59.4895 
v 510.269 0.215024 -59.5967 
v 510.186 0.215024 -59.5519 
v 510.348 0.215024 -59.4895 
v 510.403 0.215024 -59.7305 
v 510.511 0.215024 -59.6519 
v 510.511 0.215024 -59.8144 
v 510.448 0.215024 -59.8144 
v 510.348 0.215024 -60.5105 
v 510.186 0.215024 -60.5105 
v 510.269 0.215024 -60.4033 
v 510.186 0.215024 -60.4481 
v 510.511 0.215024 -60.3481 
v 510.403 0.215024 -60.2695 
v 510.511 0.215024 -60.1856 
v 510.448 0.215024 -60.1856 
v 509.597 0.215024 -59.7305 
v 509.489 0.215024 -59.8144 
v 509.489 0.215024 -59.4895 
v 509.552 0.215024 -59.8144 
v 509.731 0.215024 -59.5967 
v 509.814 0.215024 -59.4895 
v 509.814 0.215024 -59.5519 
v 510.186 0.119012 -59.4895 
v 510.186 0.215024 -59.4895 
v 510.186 0.119042 -59.5519 
v 510.186 0.215024 -59.5519 
v 510.186 0.215024 -60.5105 
v 510.186 0.119042 -60.4481 
v 510.186 0.215024 -60.4481 
v 510.186 0.119012 -60.5105 
v 510.511 0.119012 -60.1856 
v 510.511 0.215024 -60.1856 
v 510.448 0.119042 -60.1856 
v 510.448 0.215024 -60.1856 
v 509.552 0.119042 -60.1856 
v 509.489 0.215024 -60.1856 
v 509.489 0.119012 -60.1856 
v 509.552 0.215024 -60.1856 
v 510.196 0.0229999 -59.9428 
v 510.196 0.0229999 -60.0572 
v 510.196 0.0169039 -60.0572 
v 510.196 0.0169039 -59.9428 
v 509.814 0.119012 -59.4895 
v 510.186 0.119012 -59.4895 
v 510 0.119042 -59.515 
v 510.186 0.119042 -59.5519 
v 509.814 0.119042 -59.5519 
v 510.476 0.119042 -60.0946 
v 510.511 0.119012 -60.1856 
v 510.448 0.119042 -60.1856 
v 510.476 0.119042 -59.9054 
v 510.511 0.119012 -59.8144 
v 510.448 0.119042 -59.8144 
v 509.552 0.119042 -60.1856 
v 509.489 0.119012 -60.1856 
v 509.524 0.119042 -60.0946 
v 509.524 0.119042 -59.9054 
v 509.489 0.119012 -59.8144 
v 509.552 0.119042 -59.8144 
v 509.905 0.119042 -60.4757 
v 510.186 0.119012 -60.5105 
v 509.814 0.119012 -60.5105 
v 509.814 0.119042 -60.4481 
v 510.095 0.119042 -60.4757 
v 510.186 0.119042 -60.4481 
v 509.552 0.215024 -59.8144 
v 509.552 0.119042 -59.8144 
v 509.489 0.215024 -59.8144 
v 509.489 0.119012 -59.8144 
v 510.511 0.215024 -59.8144 
v 510.448 0.119042 -59.8144 
v 510.448 0.215024 -59.8144 
v 510.511 0.119012 -59.8144 
v 509.814 0.215024 -59.4895 
v 509.814 0.119042 -59.5519 
v 509.814 0.215024 -59.5519 
v 509.814 0.119012 -59.4895 
v 509.814 0.215024 -60.5105 
v 509.814 0.119042 -60.4481 
v 509.814 0.119012 -60.5105 
v 509.814 0.215024 -60.4481 
v 509.804 0.0229999 -60.0572 
v 509.804 0.0169039 -59.9428 
v 509.804 0.0169039 -60.0572 
v 509.804 0.0229999 -59.9428 
v 509.415 0.0473839 -60.0572 
v 509.415 0.0473839 -59.9428 
v 509.489 0.0473839 -60.0572 
v 509.489 0.0473839 -59.9428 
v 510.585 0.0473839 -60.0572 
v 510.511 0.0473839 -60.0572 
v 510.511 0.0473839 -59.9428 
v 510.585 0.0473839 -59.9428 
v 509.804 0.0229999 -60.0572 
v 509.489 0.0229999 -60.0572 
v 509.489 0.0229999 -59.9428 
v 509.804 0.0229999 -59.9428 
v 510.196 0.0229999 -59.9428 
v 510.511 0.0229999 -60.0572 
v 510.196 0.0229999 -60.0572 
v 510.511 0.0229999 -59.9428 
v 510.511 0.0229999 -60.0572 
v 510.511 0.0229999 -59.9428 
v 510.511 0.0473839 -60.0572 
v 510.511 0.0473839 -59.9428 
v 509.489 0.0473839 -60.0572 
v 509.489 0.0473839 -59.9428 
v 509.489 0.0229999 -60.0572 
v 509.489 0.0229999 -59.9428 

vn 0 1 0 
vn 0 1 0 
vn 0 1 0 
vn 0 1 0 
vn 0 1 0 
vn 0 1 0 
vn 0 1 0 
vn 0 1 0 
vn 0 1 0 
vn 0 1 0 
vn 0 1 0 
vn 0 1 0 
vn 0 1 0 
vn 0 1 0 
vn 0 1 0 
vn 0.708661 0 0.708661 
vn 0.708661 0 0.708661 
vn 0.708661 0 0.708661 
vn 0.708661 0 0.708661 
vn -1 0 0 
vn -1 0 0 
vn -1 0 0 
vn -1 0 0 
vn 0.708661 0 -0.708661 
vn 0.708661 0 -0.708661 
vn 0.708661 0 -0.708661 
vn 0.708661 0 -0.708661 
vn 1 0 0 
vn 1 0 0 
vn 1 0 0 
vn 1 0 0 
vn -1 0 0 
vn -1 0 0 
vn -1 0 0 
vn -1 0 0 
vn -1 0 0 
vn -1 0 0 
vn -1 0 0 
vn -1 0 0 
vn 0 0 1 
vn 0 0 1 
vn 0 0 1 
vn 0 0 1 
vn 0 0 1 
vn 0 0 1 
vn 0 0 1 
vn 0 0 1 
vn 0 0 -1 
vn 0 0 -1 
vn 0 0 -1 
vn 0 0 -1 
vn 0 0 -1 
vn 0 0 -1 
vn 0 0 -1 
vn 0 0 -1 
vn -0.929134 0.00787402 0.377953 
vn -0.929134 0.00787402 0.377953 
vn -0.929134 0.00787402 0.377953 
vn -0.929134 0.00787402 0.377953 
vn -0.929134 0.00787402 0.377953 
vn -0.929134 0.00787402 0.377953 
vn 1 0 0 
vn 1 0 0 
vn 1 0 0 
vn 1 0 0 
vn 1 0 0 
vn 1 0 0 
vn 1 0 0 
vn 1 0 0 
vn -0.708661 0 0.708661 
vn -0.708661 0 0.708661 
vn -0.708661 0 0.708661 
vn -0.708661 0 0.708661 
vn -0.929134 0.00787402 -0.377953 
vn -0.929134 0.00787402 -0.377953 
vn -0.929134 0.00787402 -0.377953 
vn -0.929134 0.00787402 -0.377953 
vn -0.929134 0.00787402 -0.377953 
vn -0.929134 0.00787402 -0.377953 
vn -1 0 0 
vn -1 0 0 
vn -1 0 0 
vn -1 0 0 
vn -0.283465 0.00787402 0.96063 
vn -0.283465 0.00787402 0.96063 
vn -0.283465 0.00787402 0.96063 
vn -0.283465 0.00787402 0.96063 
vn -0.283465 0.00787402 0.96063 
vn -0.283465 0.00787402 0.96063 
vn -0.708661 0 -0.708661 
vn -0.708661 0 -0.708661 
vn -0.708661 0 -0.708661 
vn -0.708661 0 -0.708661 
vn -0.377953 0.00787402 -0.929134 
vn -0.377953 0.00787402 -0.929134 
vn -0.377953 0.00787402 -0.929134 
vn -0.377953 0.00787402 -0.929134 
vn -0.377953 0.00787402 -0.929134 
vn -0.377953 0.00787402 -0.929134 
vn 0.283465 0.00787402 0.96063 
vn 0.283465 0.00787402 0.96063 
vn 0.283465 0.00787402 0.96063 
vn 0.283465 0.00787402 0.96063 
vn 0.283465 0.00787402 0.96063 
vn 0.283465 0.00787402 0.96063 
vn 0.708661 0 0.708661 
vn 0.708661 0 0.708661 
vn 0.708661 0 0.708661 
vn 0.708661 0 0.708661 
vn 0.929134 0.00787402 0.377953 
vn 0.929134 0.00787402 0.377953 
vn 0.929134 0.00787402 0.377953 
vn 0.929134 0.00787402 0.377953 
vn 0.929134 0.00787402 0.377953 
vn 0.929134 0.00787402 0.377953 
vn 0 0 -1 
vn 0 0 -1 
vn 0 0 -1 
vn 0 0 -1 
vn 0.377953 0.00787402 -0.929134 
vn 0.377953 0.00787402 -0.929134 
vn 0.377953 0.00787402 -0.929134 
vn 0.377953 0.00787402 -0.929134 
vn 0.377953 0.00787402 -0.929134 
vn 0.377953 0.00787402 -0.929134 
vn 0.929134 0.00787402 -0.377953 
vn 0.929134 0.00787402 -0.377953 
vn 0.929134 0.00787402 -0.377953 
vn 0.929134 0.00787402 -0.377953 
vn 0.929134 0.00787402 -0.377953 
vn 0.929134 0.00787402 -0.377953 
vn 1 0 0 
vn 1 0 0 
vn 1 0 0 
vn 1 0 0 
vn 0.708661 0 -0.708661 
vn 0.708661 0 -0.708661 
vn 0.708661 0 -0.708661 
vn 0.708661 0 -0.708661 
vn 0 -1 0 
vn 0 -1 0 
vn 0 -1 0 
vn 0 -1 0 
vn 0 -1 0 
vn 0 -1 0 
vn 0 -1 0 
vn 0 -1 0 
vn 0 -1 0 
vn 0 -1 0 
vn 0 -1 0 
vn 0 -1 0 
vn 0 -1 0 
vn 0 -1 0 
vn 0 0 1 
vn 0 0 1 
vn 0 0 1 
vn 0 0 1 
vn 0 0 1 
vn 0 0 1 
vn 0 0 1 
vn 0 0 1 
vn 0 0 1 
vn 0 0 1 
vn 0 0 1 
vn 0 0 1 
vn 0 0 -1 
vn 0 0 -1 
vn 0 0 -1 
vn 0 0 -1 
vn 0 0 -1 
vn 0 0 -1 
vn 0 0 -1 
vn 0 0 -1 
vn 0 0 -1 
vn 0 0 -1 
vn 0 0 -1 
vn 0 0 -1 
vn 0 1 0 
vn 0 1 0 
vn 0 1 0 
vn 0 1 0 
vn 0 1 0 
vn 0 1 0 
vn 0 1 0 
vn 0 1 0 
vn 0 1 0 
vn 0 1 0 
vn 0 1 0 
vn 0 1 0 
vn 0 1 0 
vn 0 1 0 
vn 0 1 0 
vn 0 1 0 
vn 0 1 0 
vn 0 1 0 
vn 0 1 0 
vn 0 1 0 
vn 0 1 0 
vn 0 1 0 
vn 0 1 0 
vn 0 1 0 
vn 0 1 0 
vn 0 1 0 
vn 0 1 0 
vn 0 1 0 
vn 0 1 0 
vn 0 1 0 
vn -1 0 0 
vn -1 0 0 
vn -1 0 0 
vn -1 0 0 
vn -1 0 0 
vn -1 0 0 
vn -1 0 0 
vn -1 0 0 
vn 0 0 1 
vn 0 0 1 
vn 0 0 1 
vn 0 0 1 
vn 0 0 1 
vn 0 0 1 
vn 0 0 1 
vn 0 0 1 
vn -1 0 0 
vn -1 0 0 
vn -1 0 0 
vn -1 0 0 
vn 0 1 0 
vn 0 1 0 
vn 0 1 0 
vn 0 1 0 
vn 0 1 0 
vn 0 1 0 
vn 0 1 0 
vn 0 1 0 
vn 0 1 0 
vn 0 1 0 
vn 0 1 0 
vn 0 1 0 
vn 0 1 0 
vn 0 1 0 
vn 0 1 0 
vn 0 1 0 
vn 0 1 0 
vn 0 1 0 
vn 0 1 0 
vn 0 1 0 
vn 0 1 0 
vn 0 1 0 
vn 0 1 0 
vn 0 0 -1 
vn 0 0 -1 
vn 0 0 -1 
vn 0 0 -1 
vn 0 0 -1 
vn 0 0 -1 
vn 0 0 -1 
vn 0 0 -1 
vn 1 0 0 
vn 1 0 0 
vn 1 0 0 
vn 1 0 0 
vn 1 0 0 
vn 1 0 0 
vn 1 0 0 
vn 1 0 0 
vn 1 0 0 
vn 1 0 0 
vn 1 0 0 
vn 1 0 0 
vn 0 1 0 
vn 0 1 0 
vn 0 1 0 
vn 0 1 0 
vn 0 1 0 
vn 0 1 0 
vn 0 1 0 
vn 0 1 0 
vn 0 1 0 
vn 0 1 0 
vn 0 1 0 
vn 0 1 0 
vn 0 1 0 
vn 0 1 0 
vn 0 1 0 
vn 0 1 0 
vn -1 0 0 
vn -1 0 0 
vn -1 0 0 
vn -1 0 0 
vn 1 0 0 
vn 1 0 0 
vn 1 0 0 
vn 1 0 0 

vt 0 0 
vt 0 0 
vt 0 0 
vt 0 0 
vt 0 0 
vt 0 0 
vt 0 0 
vt 0 0 
vt 0 0 
vt 0 0 
vt 0 0 
vt 0 0 
vt 0 0 
vt 0 0 
vt 0 0 
vt 0 0 
vt 0 0 
vt 0 0 
vt 0 0 
vt 0 0 
vt 0 0 
vt 0 0 
vt 0 0 
vt 0 0 
vt 0 0 
vt 0 0 
vt 0 0 
vt 0 0 
vt 0 0 
vt 0 0 
vt 0 0 
vt 0 0 
vt 0 0 
vt 0 0 
vt 0 0 
vt 0 0 
vt 0 0 
vt 0 0 
vt 0 0 
vt 0 0 
vt 0 0 
vt 0 0 
vt 0 0 
vt 0 0 
vt 0 0 
vt 0 0 
vt 0 0 
vt 0 0 
vt 0 0 
vt 0 0 
vt 0 0 
vt 0 0 
vt 0 0 
vt 0 0 
vt 0 0 
vt 0 0 
vt 0 0 
vt 0 0 
vt 0 0 
vt 0 0 
vt 0 0 
vt 0 0 
vt 0 0 
vt 0 0 
vt 0 0 
vt 0 0 
vt 0 0 
vt 0 0 
vt 0 0 
vt 0 0 
vt 0 0 
vt 0 0 
vt 0 0 
vt 0 0 
vt 0 0 
vt 0 0 
vt 0 0 
vt 0 0 
vt 0 0 
vt 0 0 
vt 0 0 
vt 0 0 
vt 0 0 
vt 0 0 
vt 0 0 
vt 0 0 
vt 0 0 
vt 0 0 
vt 0 0 
vt 0 0 
vt 0 0 
vt 0 0 
vt 0 0 
vt 0 0 
vt 0 0 
vt 0 0 
vt 0 0 
vt 0 0 
vt 0 0 
vt 0 0 
vt 0 0 
vt 0 0 
vt 0 0 
vt 0 0 
vt 0 0 
vt 0 0 
vt 0 0 
vt 0 0 
vt 0 0 
vt 0 0 
vt 0 0 
vt 0 0 
vt 0 0 
vt 0 0 
vt 0 0 
vt 0 0 
vt 0 0 
vt 0 0 
vt 0 0 
vt 0 0 
vt 0 0 
vt 0 0 
vt 0 0 
vt 0 0 
vt 0 0 
vt 0 0 
vt 0 0 
vt 0 0 
vt 0 0 
vt 0 0 
vt 0 0 
vt 0 0 
vt 0 0 
vt 0 0 
vt 0 0 
vt 0 0 
vt 0 0 
vt 0 0 
vt 0 0 
vt 0 0 
vt 0 0 
vt 0 0 
vt 0 0 
vt 0 0 
vt 0 0 
vt 0 0 
vt 0 0 
vt 0 0 
vt 0 0 
vt 0 0 
vt 0 0 
vt 0 0 
vt 0 0 
vt 0 0 
vt 0 0 
vt 0 0 
vt 0 0 
vt 0 0 
vt 0 0 
vt 0 0 
vt 0 0 
vt 0 0 
vt 0 0 
vt 0 0 
vt 0 0 
vt 0 0 
vt 0 0 
vt 0 0 
vt 0 0 
vt 0 0 
vt 0 0 
vt 0 0 
vt 0 0 
vt 0 0 
vt 0 0 
vt 0 0 
vt 0 0 
vt 0 0 
vt 0 0 
vt 0 0 
vt 0 0 
vt 0 0 
vt 0 0 
vt 0 0 
vt 0 0 
vt 0 0 
vt 0 0 
vt 0 0 
vt 0 0 
vt 0 0 
vt 0 0 
vt 0 0 
vt 0 0 
vt 0 0 
vt 0 0 
vt 0 0 
vt 0 0 
vt 0 0 
vt 0 0 
vt 0 0 
vt 0 0 
vt 0 0 
vt 0 0 
vt 0 0 
vt 0 0 
vt 0 0 
vt 0 0 
vt 0 0 
vt 0 0 
vt 0 0 
vt 0 0 
vt 0 0 
vt 0 0 
vt 0 0 
vt 0 0 
vt 0 0 
vt 0 0 
vt 0 0 
vt 0 0 
vt 0 0 
vt 0 0 
vt 0 0 
vt 0 0 
vt 0 0 
vt 0 0 
vt 0 0 
vt 0 0 
vt 0 0 
vt 0 0 
vt 0 0 
vt 0 0 
vt 0 0 
vt 0 0 
vt 0 0 
vt 0 0 
vt 0 0 
vt 0 0 
vt 0 0 
vt 0 0 
vt 0 0 
vt 0 0 
vt 0 0 
vt 0 0 
vt 0 0 
vt 0 0 
vt 0 0 
vt 0 0 
vt 0 0 
vt 0 0 
vt 0 0 
vt 0 0 
vt 0 0 
vt 0 0 
vt 0 0 
vt 0 0 
vt 0 0 
vt 0 0 
vt 0 0 
vt 0 0 
vt 0 0 
vt 0 0 
vt 0 0 
vt 0 0 
vt 0 0 
vt 0 0 
vt 0 0 
vt 0 0 
vt 0 0 
vt 0 0 
vt 0 0 
vt 0 0 
vt 0 0 
vt 0 0 
vt 0 0 
vt 0 0 
vt 0 0 
vt 0 0 
vt 0 0 
vt 0 0 
vt 0 0 
vt 0 0 
vt 0 0 
vt 0 0 
vt 0 0 
vt 0 0 
vt 0 0 
vt 0 0 
vt 0 0 
vt 0 0 
vt 0 0 
vt 0 0 
vt 0 0 
vt 0 0 
vt 0 0 

usemtl Primer1Mtl

f 1/1/1 2/2/2 3/3/3 
f 2/2/2 1/1/1 4/4/4 
f 4/4/4 1/1/1 5/5/5 
f 3/3/3 2/2/2 6/6/6 
f 6/6/6 2/2/2 7/7/7 
f 6/6/6 7/7/7 8/8/8 
f 3/3/3 6/6/6 9/9/9 
f 6/6/6 10/10/10 9/9/9 
f 9/9/9 10/10/10 11/11/11 
f 10/10/10 6/6/6 12/12/12 
f 12/12/12 6/6/6 13/13/13 
f 14/14/14 11/11/11 10/10/10 
f 11/11/11 14/14/14 15/15/15 
f 16/16/16 17/17/17 18/18/18 
f 18/18/18 17/17/17 19/19/19 
f 20/20/20 21/21/21 22/22/22 
f 22/22/22 23/23/23 20/20/20 
f 24/24/24 25/25/25 26/26/26 
f 24/24/24 26/26/26 27/27/27 
f 28/28/28 29/29/29 30/30/30 
f 29/29/29 28/28/28 31/31/31 
f 32/32/32 33/33/33 34/34/34 
f 33/33/33 32/32/32 35/35/35 
f 36/36/36 35/35/35 32/32/32 
f 35/35/35 36/36/36 37/37/37 
f 36/36/36 38/38/38 37/37/37 
f 38/38/38 36/36/36 39/39/39 
f 40/40/40 41/41/41 42/42/42 
f 41/41/41 40/40/40 43/43/43 
f 40/40/40 44/44/44 43/43/43 
f 45/45/45 43/43/43 44/44/44 
f 45/45/45 44/44/44 46/46/46 
f 47/47/47 46/46/46 44/44/44 
f 48/48/48 49/49/49 50/50/50 
f 49/49/49 48/48/48 51/51/51 
f 52/52/52 49/49/49 51/51/51 
f 51/51/51 53/53/53 52/52/52 
f 54/54/54 52/52/52 53/53/53 
f 52/52/52 54/54/54 55/55/55 
f 56/56/56 57/57/57 58/58/58 
f 57/57/57 56/56/56 59/59/59 
f 56/56/56 60/60/60 59/59/59 
f 60/60/60 56/56/56 61/61/61 
f 62/62/62 63/63/63 64/64/64 
f 64/64/64 63/63/63 65/65/65 
f 65/65/65 66/66/66 64/64/64 
f 66/66/66 65/65/65 67/67/67 
f 68/68/68 66/66/66 67/67/67 
f 66/66/66 68/68/68 69/69/69 
f 70/70/70 71/71/71 72/72/72 
f 73/73/73 72/72/72 71/71/71 
f 74/74/74 75/75/75 76/76/76 
f 75/75/75 74/74/74 77/77/77 
f 78/78/78 77/77/77 74/74/74 
f 79/79/79 78/78/78 74/74/74 
f 80/80/80 81/81/81 82/82/82 
f 83/83/83 82/82/82 81/81/81 
f 84/84/84 85/85/85 86/86/86 
f 84/84/84 87/87/87 85/85/85 
f 88/88/88 85/85/85 87/87/87 
f 85/85/85 88/88/88 89/89/89 
f 90/90/90 91/91/91 92/92/92 
f 91/91/91 90/90/90 93/93/93 
f 94/94/94 95/95/95 96/96/96 
f 96/96/96 95/95/95 97/97/97 
f 94/94/94 98/98/98 95/95/95 
f 99/99/99 95/95/95 98/98/98 
f 100/100/100 101/101/101 102/102/102 
f 101/101/101 100/100/100 103/103/103 
f 100/100/100 104/104/104 103/103/103 
f 104/104/104 100/100/100 105/105/105 
f 106/106/106 107/107/107 108/108/108 
f 108/108/108 107/107/107 109/109/109 
f 110/110/110 111/111/111 112/112/112 
f 111/111/111 110/110/110 113/113/113 
f 114/114/114 112/112/112 111/111/111 
f 114/114/114 111/111/111 115/115/115 
f 116/116/116 117/117/117 118/118/118 
f 118/118/118 119/119/119 116/116/116 
f 120/120/120 121/121/121 122/122/122 
f 121/121/121 120/120/120 123/123/123 
f 124/124/124 122/122/122 121/121/121 
f 121/121/121 125/125/125 124/124/124 
f 126/126/126 127/127/127 128/128/128 
f 127/127/127 126/126/126 129/129/129 
f 130/130/130 129/129/129 126/126/126 
f 131/131/131 130/130/130 126/126/126 
f 132/132/132 133/133/133 134/134/134 
f 132/132/132 134/134/134 135/135/135 
f 136/136/136 137/137/137 138/138/138 
f 137/137/137 136/136/136 139/139/139 
f 140/140/140 141/141/141 142/142/142 
f 140/140/140 142/142/142 143/143/143 
f 144/144/144 145/145/145 146/146/146 
f 145/145/145 144/144/144 147/147/147 
f 148/148/148 149/149/149 150/150/150 
f 149/149/149 148/148/148 151/151/151 
f 148/148/148 150/150/150 152/152/152 
f 152/152/152 150/150/150 153/153/153 
f 154/154/154 155/155/155 156/156/156 
f 156/156/156 157/157/157 154/154/154 
f 158/158/158 156/156/156 155/155/155 
f 156/156/156 158/158/158 159/159/159 
f 160/160/160 161/161/161 162/162/162 
f 163/163/163 161/161/161 160/160/160 
f 164/164/164 163/163/163 160/160/160 
f 160/160/160 165/165/165 164/164/164 
f 166/166/166 167/167/167 168/168/168 
f 168/168/168 167/167/167 169/169/169 
f 170/170/170 166/166/166 168/168/168 
f 170/170/170 168/168/168 171/171/171 
f 172/172/172 173/173/173 174/174/174 
f 174/174/174 175/175/175 172/172/172 
f 176/176/176 174/174/174 173/173/173 
f 174/174/174 176/176/176 177/177/177 
f 178/178/178 179/179/179 180/180/180 
f 178/178/178 180/180/180 181/181/181 
f 182/182/182 179/179/179 178/178/178 
f 183/183/183 179/179/179 182/182/182 
f 183/183/183 182/182/182 184/184/184 
f 185/185/185 186/186/186 187/187/187 
f 186/186/186 185/185/185 188/188/188 
f 188/188/188 189/189/189 186/186/186 
f 189/189/189 188/188/188 190/190/190 
f 191/191/191 189/189/189 190/190/190 
f 189/189/189 191/191/191 192/192/192 
f 193/193/193 194/194/194 195/195/195 
f 195/195/195 194/194/194 196/196/196 
f 195/195/195 197/197/197 193/193/193 
f 197/197/197 195/195/195 198/198/198 
f 197/197/197 198/198/198 199/199/199 
f 199/199/199 198/198/198 200/200/200 
f 201/201/201 202/202/202 203/203/203 
f 202/202/202 201/201/201 204/204/204 
f 203/203/203 205/205/205 201/201/201 
f 206/206/206 205/205/205 203/203/203 
f 205/205/205 206/206/206 207/207/207 
f 208/208/208 209/209/209 210/210/210 
f 211/211/211 210/210/210 209/209/209 
f 212/212/212 213/213/213 214/214/214 
f 213/213/213 212/212/212 215/215/215 
f 216/216/216 217/217/217 218/218/218 
f 218/218/218 217/217/217 219/219/219 
f 220/220/220 221/221/221 222/222/222 
f 221/221/221 220/220/220 223/223/223 
f 224/224/224 225/225/225 226/226/226 
f 226/226/226 227/227/227 224/224/224 
f 228/228/228 229/229/229 230/230/230 
f 231/231/231 230/230/230 229/229/229 
f 230/230/230 232/232/232 228/228/228 
f 233/233/233 234/234/234 235/235/235 
f 236/236/236 234/234/234 233/233/233 
f 234/234/234 236/236/236 237/237/237 
f 236/236/236 238/238/238 237/237/237 
f 239/239/239 240/240/240 241/241/241 
f 240/240/240 242/242/242 241/241/241 
f 240/240/240 243/243/243 242/242/242 
f 243/243/243 244/244/244 242/242/242 
f 245/245/245 246/246/246 247/247/247 
f 247/247/247 248/248/248 245/245/245 
f 246/246/246 245/245/245 249/249/249 
f 246/246/246 249/249/249 250/250/250 
f 251/251/251 252/252/252 253/253/253 
f 253/253/253 252/252/252 254/254/254 
f 255/255/255 256/256/256 257/257/257 
f 256/256/256 255/255/255 258/258/258 
f 259/259/259 260/260/260 261/261/261 
f 260/260/260 259/259/259 262/262/262 
f 263/263/263 264/264/264 265/265/265 
f 264/264/264 263/263/263 266/266/266 
f 267/267/267 268/268/268 269/269/269 
f 268/268/268 267/267/267 270/270/270 
f 271/271/271 272/272/272 273/273/273 
f 273/273/273 272/272/272 274/274/274 
f 275/275/275 276/276/276 277/277/277 
f 275/275/275 277/277/277 278/278/278 
f 279/279/279 280/280/280 281/281/281 
f 279/279/279 281/281/281 282/282/282 
f 283/283/283 284/284/284 285/285/285 
f 284/284/284 283/283/283 286/286/286 
f 287/287/287 288/288/288 289/289/289 
f 289/289/289 288/288/288 290/290/290 
f 291/291/291 292/292/292 293/293/293 
f 293/293/293 292/292/292 294/294/294 

