# This file is brought to you by Roblox Corporation
# Generated by Roblox Studio

mtllib hologram.mtl

g Hologram1

v 47 2 -23 
v 53 2 -23 
v 47 0 -23 
v 53 0 -23 
v 53 2 -17 
v 53 2 -23 
v 47 2 -17 
v 47 2 -23 
v 53 2 -23 
v 53 2 -17 
v 53 0 -23 
v 53 0 -17 
v 53 2 -17 
v 47 2 -17 
v 53 0 -17 
v 47 0 -17 
v 47 0 -17 
v 47 0 -23 
v 53 0 -17 
v 53 0 -23 
v 47 2 -17 
v 47 2 -23 
v 47 0 -17 
v 47 0 -23 

vn 0 0 -1 
vn 0 0 -1 
vn 0 0 -1 
vn 0 0 -1 
vn 0 1 0 
vn 0 1 0 
vn 0 1 0 
vn 0 1 0 
vn 1 0 0 
vn 1 0 0 
vn 1 0 0 
vn 1 0 0 
vn 0 0 1 
vn 0 0 1 
vn 0 0 1 
vn 0 0 1 
vn 0 -1 0 
vn 0 -1 0 
vn 0 -1 0 
vn 0 -1 0 
vn -1 0 0 
vn -1 0 0 
vn -1 0 0 
vn -1 0 0 

vt 1.11244 1.3123 
vt 0.362441 1.3123 
vt 1.11244 1.0623 
vt 0.362441 1.0623 
vt 1.11244 1.3123 
vt 0.362441 1.3123 
vt 1.11244 0.562302 
vt 0.362441 0.562302 
vt 1.11244 1.3123 
vt 0.362441 1.3123 
vt 1.11244 1.0623 
vt 0.362441 1.0623 
vt 1.11244 1.3123 
vt 0.362441 1.3123 
vt 1.11244 1.0623 
vt 0.362441 1.0623 
vt 1.11244 1.3123 
vt 0.362441 1.3123 
vt 1.11244 0.562302 
vt 0.362441 0.562302 
vt 1.11244 1.3123 
vt 0.362441 1.3123 
vt 1.11244 1.0623 
vt 0.362441 1.0623 

usemtl Hologram1Mtl

f 1/1/1 2/2/2 3/3/3 
f 3/3/3 2/2/2 4/4/4 
f 5/5/5 6/6/6 7/7/7 
f 7/7/7 6/6/6 8/8/8 
f 9/9/9 10/10/10 11/11/11 
f 11/11/11 10/10/10 12/12/12 
f 13/13/13 14/14/14 15/15/15 
f 15/15/15 14/14/14 16/16/16 
f 17/17/17 18/18/18 19/19/19 
f 19/19/19 18/18/18 20/20/20 
f 21/21/21 22/22/22 23/23/23 
f 23/23/23 22/22/22 24/24/24 

g Hologram2

v 53 -0.02 -23 
v 53 -0.02 -17 
v 47 -0.02 -23 
v 47 -0.02 -17 

vn 0 -1 0 
vn 0 -1 0 
vn 0 -1 0 
vn 0 -1 0 

vt 3 1 
vt 0 1 
vt 3 -2 
vt 0 -2 

usemtl Hologram2Mtl

f 25/25/25 26/26/26 27/27/27 
f 27/27/27 26/26/26 28/28/28 

g Hologram3

v 53 2.02 -17 
v 53 2.02 -23 
v 47 2.02 -17 
v 47 2.02 -23 

vn 0 1 0 
vn 0 1 0 
vn 0 1 0 
vn 0 1 0 

vt 1 1 
vt 0 1 
vt 1 0 
vt 0 0 

usemtl Hologram3Mtl

f 29/29/29 30/30/30 31/31/31 
f 31/31/31 30/30/30 32/32/32 

g Hologram4

v 46.98 2 -17 
v 46.98 2 -23 
v 46.98 0 -17 
v 46.98 0 -23 

vn -1 0 0 
vn -1 0 0 
vn -1 0 0 
vn -1 0 0 

vt 1 1 
vt 0 1 
vt 1 0 
vt 0 0 

usemtl Hologram4Mtl

f 33/33/33 34/34/34 35/35/35 
f 35/35/35 34/34/34 36/36/36 

g Hologram5

v 53 2 -16.98 
v 47 2 -16.98 
v 53 0 -16.98 
v 47 0 -16.98 

vn 0 0 1 
vn 0 0 1 
vn 0 0 1 
vn 0 0 1 

vt 1 1 
vt 0 1 
vt 1 0 
vt 0 0 

usemtl Hologram4Mtl

f 37/37/37 38/38/38 39/39/39 
f 39/39/39 38/38/38 40/40/40 

g Hologram6

v 53.02 2 -23 
v 53.02 2 -17 
v 53.02 0 -23 
v 53.02 0 -17 

vn 1 0 0 
vn 1 0 0 
vn 1 0 0 
vn 1 0 0 

vt 1 1 
vt 0 1 
vt 1 0 
vt 0 0 

usemtl Hologram4Mtl

f 41/41/41 42/42/42 43/43/43 
f 43/43/43 42/42/42 44/44/44 

g Hologram7

v 47 2 -23.02 
v 53 2 -23.02 
v 47 0 -23.02 
v 53 0 -23.02 

vn 0 0 -1 
vn 0 0 -1 
vn 0 0 -1 
vn 0 0 -1 

vt 1 1 
vt 0 1 
vt 1 0 
vt 0 0 

usemtl Hologram4Mtl

f 45/45/45 46/46/46 47/47/47 
f 47/47/47 46/46/46 48/48/48 

