# This file is brought to you by Roblox Corporation
# Generated by Roblox Studio

mtllib solarscoop.mtl

g Solarscoop1

v 310 25 115 
v 292.322 42.6777 115 
v 289.199 38.8675 115 
v 286.283 32.9057 115 
v 285 25 115 
v 286.283 17.0943 115 
v 289.199 11.1325 115 
v 292.322 7.32233 115 
v 292.322 7.32233 115 
v 296.133 4.19874 115 
v 302.094 1.28292 115 
v 310 0 115 
v 317.906 1.28292 115 
v 323.867 4.19874 115 
v 327.678 7.32233 115 
v 327.678 7.32233 115 
v 330.801 11.1325 115 
v 333.717 17.0943 115 
v 335 25 115 
v 333.717 32.9057 115 
v 330.801 38.8675 115 
v 327.678 42.6777 115 
v 327.678 42.6777 115 
v 323.867 45.8013 115 
v 317.906 48.7171 115 
v 310 50 115 
v 302.094 48.7171 115 
v 296.133 45.8013 115 
v 292.322 42.6777 115 
v 327.678 42.6777 165 
v 327.678 42.6777 115 
v 323.867 45.8013 165 
v 323.867 45.8013 115 
v 317.906 48.7171 165 
v 317.906 48.7171 115 
v 310 50 165 
v 310 50 115 
v 302.094 48.7171 165 
v 302.094 48.7171 115 
v 296.133 45.8013 165 
v 296.133 45.8013 115 
v 292.322 42.6777 165 
v 292.322 42.6777 115 
v 327.678 42.6777 115 
v 327.678 42.6777 165 
v 330.801 38.8675 115 
v 330.801 38.8675 165 
v 333.717 32.9057 115 
v 333.717 32.9057 165 
v 335 25 115 
v 335 25 165 
v 333.717 17.0943 115 
v 333.717 17.0943 165 
v 330.801 11.1325 115 
v 330.801 11.1325 165 
v 327.678 7.32233 115 
v 327.678 7.32233 165 
v 310 25 165 
v 327.678 42.6777 165 
v 330.801 38.8675 165 
v 333.717 32.9057 165 
v 335 25 165 
v 333.717 17.0943 165 
v 330.801 11.1325 165 
v 327.678 7.32233 165 
v 327.678 7.32233 165 
v 323.867 4.19874 165 
v 317.906 1.28292 165 
v 310 0 165 
v 302.094 1.28292 165 
v 296.133 4.19874 165 
v 292.322 7.32233 165 
v 292.322 7.32233 165 
v 289.199 11.1325 165 
v 286.283 17.0943 165 
v 285 25 165 
v 286.283 32.9057 165 
v 289.199 38.8675 165 
v 292.322 42.6777 165 
v 292.322 42.6777 165 
v 296.133 45.8013 165 
v 302.094 48.7171 165 
v 310 50 165 
v 317.906 48.7171 165 
v 323.867 45.8013 165 
v 327.678 42.6777 165 
v 292.322 7.32233 165 
v 292.322 7.32233 115 
v 296.133 4.19874 165 
v 296.133 4.19874 115 
v 302.094 1.28292 165 
v 302.094 1.28292 115 
v 310 0 165 
v 310 0 115 
v 317.906 1.28292 165 
v 317.906 1.28292 115 
v 323.867 4.19874 165 
v 323.867 4.19874 115 
v 327.678 7.32233 165 
v 327.678 7.32233 115 
v 292.322 42.6777 165 
v 292.322 42.6777 115 
v 289.199 38.8675 165 
v 289.199 38.8675 115 
v 286.283 32.9057 165 
v 286.283 32.9057 115 
v 285 25 165 
v 285 25 115 
v 286.283 17.0943 165 
v 286.283 17.0943 115 
v 289.199 11.1325 165 
v 289.199 11.1325 115 
v 292.322 7.32233 165 
v 292.322 7.32233 115 

vn 0 0 -1 
vn 0 0 -1 
vn 0 0 -1 
vn 0 0 -1 
vn 0 0 -1 
vn 0 0 -1 
vn 0 0 -1 
vn 0 0 -1 
vn 0 0 -1 
vn 0 0 -1 
vn 0 0 -1 
vn 0 0 -1 
vn 0 0 -1 
vn 0 0 -1 
vn 0 0 -1 
vn 0 0 -1 
vn 0 0 -1 
vn 0 0 -1 
vn 0 0 -1 
vn 0 0 -1 
vn 0 0 -1 
vn 0 0 -1 
vn 0 0 -1 
vn 0 0 -1 
vn 0 0 -1 
vn 0 0 -1 
vn 0 0 -1 
vn 0 0 -1 
vn 0 0 -1 
vn 0.708661 0.708661 0 
vn 0.708661 0.708661 0 
vn 0.551181 0.834646 0 
vn 0.551181 0.834646 0 
vn 0.314961 0.944882 0 
vn 0.314961 0.944882 0 
vn 0 1 0 
vn 0 1 0 
vn -0.314961 0.944882 0 
vn -0.314961 0.944882 0 
vn -0.551181 0.834646 0 
vn -0.551181 0.834646 0 
vn -0.708661 0.708661 0 
vn -0.708661 0.708661 0 
vn 0.708661 0.708661 0 
vn 0.708661 0.708661 0 
vn 0.834646 0.551181 0 
vn 0.834646 0.551181 0 
vn 0.944882 0.314961 0 
vn 0.944882 0.314961 0 
vn 1 0 0 
vn 1 0 0 
vn 0.944882 -0.314961 0 
vn 0.944882 -0.314961 0 
vn 0.834646 -0.551181 0 
vn 0.834646 -0.551181 0 
vn 0.708661 -0.708661 0 
vn 0.708661 -0.708661 0 
vn 0 0 1 
vn 0 0 1 
vn 0 0 1 
vn 0 0 1 
vn 0 0 1 
vn 0 0 1 
vn 0 0 1 
vn 0 0 1 
vn 0 0 1 
vn 0 0 1 
vn 0 0 1 
vn 0 0 1 
vn 0 0 1 
vn 0 0 1 
vn 0 0 1 
vn 0 0 1 
vn 0 0 1 
vn 0 0 1 
vn 0 0 1 
vn 0 0 1 
vn 0 0 1 
vn 0 0 1 
vn 0 0 1 
vn 0 0 1 
vn 0 0 1 
vn 0 0 1 
vn 0 0 1 
vn 0 0 1 
vn 0 0 1 
vn -0.708661 -0.708661 0 
vn -0.708661 -0.708661 0 
vn -0.551181 -0.834646 0 
vn -0.551181 -0.834646 0 
vn -0.314961 -0.944882 0 
vn -0.314961 -0.944882 0 
vn 0 -1 0 
vn 0 -1 0 
vn 0.314961 -0.944882 0 
vn 0.314961 -0.944882 0 
vn 0.551181 -0.834646 0 
vn 0.551181 -0.834646 0 
vn 0.708661 -0.708661 0 
vn 0.708661 -0.708661 0 
vn -0.708661 0.708661 0 
vn -0.708661 0.708661 0 
vn -0.834646 0.551181 0 
vn -0.834646 0.551181 0 
vn -0.944882 0.314961 0 
vn -0.944882 0.314961 0 
vn -1 0 0 
vn -1 0 0 
vn -0.944882 -0.314961 0 
vn -0.944882 -0.314961 0 
vn -0.834646 -0.551181 0 
vn -0.834646 -0.551181 0 
vn -0.708661 -0.708661 0 
vn -0.708661 -0.708661 0 

vt 6.875 -6.875 
vt 9.08471 -4.66529 
vt 9.47516 -5.14156 
vt 9.83964 -5.88679 
vt 10 -6.875 
vt 9.83964 -7.86321 
vt 9.47516 -8.60844 
vt 9.08471 -9.08471 
vt 9.08471 -9.08471 
vt 8.60844 -9.47516 
vt 7.86321 -9.83964 
vt 6.875 -10 
vt 5.88679 -9.83964 
vt 5.14156 -9.47516 
vt 4.66529 -9.08471 
vt 4.66529 -9.08471 
vt 4.27484 -8.60844 
vt 3.91036 -7.86321 
vt 3.75 -6.875 
vt 3.91036 -5.88679 
vt 4.27484 -5.14156 
vt 4.66529 -4.66529 
vt 4.66529 -4.66529 
vt 5.14156 -4.27484 
vt 5.88679 -3.91036 
vt 6.875 -3.75 
vt 7.86321 -3.91036 
vt 8.60844 -4.27484 
vt 9.08471 -4.66529 
vt 13.75 -8.5 
vt 7.5 -8.5 
vt 13.75 -9.54167 
vt 7.5 -9.54167 
vt 13.75 -10.5833 
vt 7.5 -10.5833 
vt 13.75 -11.625 
vt 7.5 -11.625 
vt 13.75 -12.6667 
vt 7.5 -12.6667 
vt 13.75 -13.7083 
vt 7.5 -13.7083 
vt 13.75 -14.75 
vt 7.5 -14.75 
vt 13.75 -8.5 
vt 7.5 -8.5 
vt 13.75 -9.54167 
vt 7.5 -9.54167 
vt 13.75 -10.5833 
vt 7.5 -10.5833 
vt 13.75 -11.625 
vt 7.5 -11.625 
vt 13.75 -12.6667 
vt 7.5 -12.6667 
vt 13.75 -13.7083 
vt 7.5 -13.7083 
vt 13.75 -14.75 
vt 7.5 -14.75 
vt 6.875 -6.875 
vt 9.08471 -4.66529 
vt 9.47516 -5.14156 
vt 9.83964 -5.88679 
vt 10 -6.875 
vt 9.83964 -7.86321 
vt 9.47516 -8.60844 
vt 9.08471 -9.08471 
vt 9.08471 -9.08471 
vt 8.60844 -9.47516 
vt 7.86321 -9.83964 
vt 6.875 -10 
vt 5.88679 -9.83964 
vt 5.14156 -9.47516 
vt 4.66529 -9.08471 
vt 4.66529 -9.08471 
vt 4.27484 -8.60844 
vt 3.91036 -7.86321 
vt 3.75 -6.875 
vt 3.91036 -5.88679 
vt 4.27484 -5.14156 
vt 4.66529 -4.66529 
vt 4.66529 -4.66529 
vt 5.14156 -4.27484 
vt 5.88679 -3.91036 
vt 6.875 -3.75 
vt 7.86321 -3.91036 
vt 8.60844 -4.27484 
vt 9.08471 -4.66529 
vt 13.75 -8.5 
vt 7.5 -8.5 
vt 13.75 -9.54167 
vt 7.5 -9.54167 
vt 13.75 -10.5833 
vt 7.5 -10.5833 
vt 13.75 -11.625 
vt 7.5 -11.625 
vt 13.75 -12.6667 
vt 7.5 -12.6667 
vt 13.75 -13.7083 
vt 7.5 -13.7083 
vt 13.75 -14.75 
vt 7.5 -14.75 
vt 13.75 -8.5 
vt 7.5 -8.5 
vt 13.75 -9.54167 
vt 7.5 -9.54167 
vt 13.75 -10.5833 
vt 7.5 -10.5833 
vt 13.75 -11.625 
vt 7.5 -11.625 
vt 13.75 -12.6667 
vt 7.5 -12.6667 
vt 13.75 -13.7083 
vt 7.5 -13.7083 
vt 13.75 -14.75 
vt 7.5 -14.75 

usemtl Solarscoop1Mtl

f 1/1/1 3/3/3 2/2/2 
f 1/1/1 4/4/4 3/3/3 
f 1/1/1 5/5/5 4/4/4 
f 1/1/1 6/6/6 5/5/5 
f 1/1/1 7/7/7 6/6/6 
f 1/1/1 8/8/8 7/7/7 
f 1/1/1 10/10/10 9/9/9 
f 1/1/1 11/11/11 10/10/10 
f 1/1/1 12/12/12 11/11/11 
f 1/1/1 13/13/13 12/12/12 
f 1/1/1 14/14/14 13/13/13 
f 1/1/1 15/15/15 14/14/14 
f 1/1/1 17/17/17 16/16/16 
f 1/1/1 18/18/18 17/17/17 
f 1/1/1 19/19/19 18/18/18 
f 1/1/1 20/20/20 19/19/19 
f 1/1/1 21/21/21 20/20/20 
f 1/1/1 22/22/22 21/21/21 
f 1/1/1 24/24/24 23/23/23 
f 1/1/1 25/25/25 24/24/24 
f 1/1/1 26/26/26 25/25/25 
f 1/1/1 27/27/27 26/26/26 
f 1/1/1 28/28/28 27/27/27 
f 1/1/1 29/29/29 28/28/28 
f 30/30/30 31/31/31 32/32/32 
f 32/32/32 31/31/31 33/33/33 
f 32/32/32 33/33/33 34/34/34 
f 34/34/34 33/33/33 35/35/35 
f 34/34/34 35/35/35 36/36/36 
f 36/36/36 35/35/35 37/37/37 
f 36/36/36 37/37/37 38/38/38 
f 38/38/38 37/37/37 39/39/39 
f 38/38/38 39/39/39 40/40/40 
f 40/40/40 39/39/39 41/41/41 
f 40/40/40 41/41/41 42/42/42 
f 42/42/42 41/41/41 43/43/43 
f 44/44/44 45/45/45 46/46/46 
f 46/46/46 45/45/45 47/47/47 
f 46/46/46 47/47/47 48/48/48 
f 48/48/48 47/47/47 49/49/49 
f 48/48/48 49/49/49 50/50/50 
f 50/50/50 49/49/49 51/51/51 
f 50/50/50 51/51/51 52/52/52 
f 52/52/52 51/51/51 53/53/53 
f 52/52/52 53/53/53 54/54/54 
f 54/54/54 53/53/53 55/55/55 
f 54/54/54 55/55/55 56/56/56 
f 56/56/56 55/55/55 57/57/57 
f 58/58/58 60/60/60 59/59/59 
f 58/58/58 61/61/61 60/60/60 
f 58/58/58 62/62/62 61/61/61 
f 58/58/58 63/63/63 62/62/62 
f 58/58/58 64/64/64 63/63/63 
f 58/58/58 65/65/65 64/64/64 
f 58/58/58 67/67/67 66/66/66 
f 58/58/58 68/68/68 67/67/67 
f 58/58/58 69/69/69 68/68/68 
f 58/58/58 70/70/70 69/69/69 
f 58/58/58 71/71/71 70/70/70 
f 58/58/58 72/72/72 71/71/71 
f 58/58/58 74/74/74 73/73/73 
f 58/58/58 75/75/75 74/74/74 
f 58/58/58 76/76/76 75/75/75 
f 58/58/58 77/77/77 76/76/76 
f 58/58/58 78/78/78 77/77/77 
f 58/58/58 79/79/79 78/78/78 
f 58/58/58 81/81/81 80/80/80 
f 58/58/58 82/82/82 81/81/81 
f 58/58/58 83/83/83 82/82/82 
f 58/58/58 84/84/84 83/83/83 
f 58/58/58 85/85/85 84/84/84 
f 58/58/58 86/86/86 85/85/85 
f 87/87/87 88/88/88 89/89/89 
f 89/89/89 88/88/88 90/90/90 
f 89/89/89 90/90/90 91/91/91 
f 91/91/91 90/90/90 92/92/92 
f 91/91/91 92/92/92 93/93/93 
f 93/93/93 92/92/92 94/94/94 
f 93/93/93 94/94/94 95/95/95 
f 95/95/95 94/94/94 96/96/96 
f 95/95/95 96/96/96 97/97/97 
f 97/97/97 96/96/96 98/98/98 
f 97/97/97 98/98/98 99/99/99 
f 99/99/99 98/98/98 100/100/100 
f 101/101/101 102/102/102 103/103/103 
f 103/103/103 102/102/102 104/104/104 
f 103/103/103 104/104/104 105/105/105 
f 105/105/105 104/104/104 106/106/106 
f 105/105/105 106/106/106 107/107/107 
f 107/107/107 106/106/106 108/108/108 
f 107/107/107 108/108/108 109/109/109 
f 109/109/109 108/108/108 110/110/110 
f 109/109/109 110/110/110 111/111/111 
f 111/111/111 110/110/110 112/112/112 
f 111/111/111 112/112/112 113/113/113 
f 113/113/113 112/112/112 114/114/114 

g Solarscoop2

v 310 25 114.98 
v 292.322 42.6777 114.98 
v 289.199 38.8675 114.98 
v 286.283 32.9057 114.98 
v 285 25 114.98 
v 286.283 17.0943 114.98 
v 289.199 11.1325 114.98 
v 292.322 7.32233 114.98 
v 292.322 7.32233 114.98 
v 296.133 4.19874 114.98 
v 302.094 1.28292 114.98 
v 310 0 114.98 
v 317.906 1.28292 114.98 
v 323.867 4.19874 114.98 
v 327.678 7.32233 114.98 
v 327.678 7.32233 114.98 
v 330.801 11.1325 114.98 
v 333.717 17.0943 114.98 
v 335 25 114.98 
v 333.717 32.9057 114.98 
v 330.801 38.8675 114.98 
v 327.678 42.6777 114.98 
v 327.678 42.6777 114.98 
v 323.867 45.8013 114.98 
v 317.906 48.7171 114.98 
v 310 50 114.98 
v 302.094 48.7171 114.98 
v 296.133 45.8013 114.98 
v 292.322 42.6777 114.98 

vn 0 0 -1 
vn 0 0 -1 
vn 0 0 -1 
vn 0 0 -1 
vn 0 0 -1 
vn 0 0 -1 
vn 0 0 -1 
vn 0 0 -1 
vn 0 0 -1 
vn 0 0 -1 
vn 0 0 -1 
vn 0 0 -1 
vn 0 0 -1 
vn 0 0 -1 
vn 0 0 -1 
vn 0 0 -1 
vn 0 0 -1 
vn 0 0 -1 
vn 0 0 -1 
vn 0 0 -1 
vn 0 0 -1 
vn 0 0 -1 
vn 0 0 -1 
vn 0 0 -1 
vn 0 0 -1 
vn 0 0 -1 
vn 0 0 -1 
vn 0 0 -1 
vn 0 0 -1 

vt 0.5 0.5 
vt 0.853553 0.853553 
vt 0.916025 0.77735 
vt 0.974342 0.658114 
vt 1 0.5 
vt 0.974342 0.341886 
vt 0.916025 0.22265 
vt 0.853553 0.146447 
vt 0.853553 0.146447 
vt 0.77735 0.0839748 
vt 0.658114 0.0256584 
vt 0.5 0 
vt 0.341886 0.0256584 
vt 0.22265 0.0839748 
vt 0.146447 0.146447 
vt 0.146447 0.146447 
vt 0.0839748 0.22265 
vt 0.0256583 0.341886 
vt 0 0.5 
vt 0.0256583 0.658114 
vt 0.0839748 0.77735 
vt 0.146447 0.853553 
vt 0.146447 0.853553 
vt 0.22265 0.916025 
vt 0.341886 0.974342 
vt 0.5 1 
vt 0.658114 0.974342 
vt 0.77735 0.916025 
vt 0.853553 0.853553 

usemtl Solarscoop2Mtl

f 115/115/115 117/117/117 116/116/116 
f 115/115/115 118/118/118 117/117/117 
f 115/115/115 119/119/119 118/118/118 
f 115/115/115 120/120/120 119/119/119 
f 115/115/115 121/121/121 120/120/120 
f 115/115/115 122/122/122 121/121/121 
f 115/115/115 124/124/124 123/123/123 
f 115/115/115 125/125/125 124/124/124 
f 115/115/115 126/126/126 125/125/125 
f 115/115/115 127/127/127 126/126/126 
f 115/115/115 128/128/128 127/127/127 
f 115/115/115 129/129/129 128/128/128 
f 115/115/115 131/131/131 130/130/130 
f 115/115/115 132/132/132 131/131/131 
f 115/115/115 133/133/133 132/132/132 
f 115/115/115 134/134/134 133/133/133 
f 115/115/115 135/135/135 134/134/134 
f 115/115/115 136/136/136 135/135/135 
f 115/115/115 138/138/138 137/137/137 
f 115/115/115 139/139/139 138/138/138 
f 115/115/115 140/140/140 139/139/139 
f 115/115/115 141/141/141 140/140/140 
f 115/115/115 142/142/142 141/141/141 
f 115/115/115 143/143/143 142/142/142 

g Solarscoop3

v 327.692 42.6918 165 
v 327.692 42.6918 115 
v 323.879 45.818 165 
v 323.879 45.818 115 
v 317.912 48.736 165 
v 317.912 48.736 115 
v 310 50.02 165 
v 310 50.02 115 
v 302.088 48.736 165 
v 302.088 48.736 115 
v 296.121 45.818 165 
v 296.121 45.818 115 
v 292.308 42.6918 165 
v 292.308 42.6918 115 

vn 0.708661 0.708661 0 
vn 0.708661 0.708661 0 
vn 0.551181 0.834646 0 
vn 0.551181 0.834646 0 
vn 0.314961 0.944882 0 
vn 0.314961 0.944882 0 
vn 0 1 0 
vn 0 1 0 
vn -0.314961 0.944882 0 
vn -0.314961 0.944882 0 
vn -0.551181 0.834646 0 
vn -0.551181 0.834646 0 
vn -0.708661 0.708661 0 
vn -0.708661 0.708661 0 

vt 1 1 
vt 0 1 
vt 1 0.833333 
vt 0 0.833333 
vt 1 0.666667 
vt 0 0.666667 
vt 1 0.5 
vt 0 0.5 
vt 1 0.333333 
vt 0 0.333333 
vt 1 0.166667 
vt 0 0.166667 
vt 1 0 
vt 0 0 

usemtl Solarscoop3Mtl

f 144/144/144 145/145/145 146/146/146 
f 146/146/146 145/145/145 147/147/147 
f 146/146/146 147/147/147 148/148/148 
f 148/148/148 147/147/147 149/149/149 
f 148/148/148 149/149/149 150/150/150 
f 150/150/150 149/149/149 151/151/151 
f 150/150/150 151/151/151 152/152/152 
f 152/152/152 151/151/151 153/153/153 
f 152/152/152 153/153/153 154/154/154 
f 154/154/154 153/153/153 155/155/155 
f 154/154/154 155/155/155 156/156/156 
f 156/156/156 155/155/155 157/157/157 

g Solarscoop4

v 292.308 42.6918 165 
v 292.308 42.6918 115 
v 289.182 38.8785 165 
v 289.182 38.8785 115 
v 286.264 32.912 165 
v 286.264 32.912 115 
v 284.98 25 165 
v 284.98 25 115 
v 286.264 17.088 165 
v 286.264 17.088 115 
v 289.182 11.1215 165 
v 289.182 11.1215 115 
v 292.308 7.30816 165 
v 292.308 7.30816 115 

vn -0.708661 0.708661 0 
vn -0.708661 0.708661 0 
vn -0.834646 0.551181 0 
vn -0.834646 0.551181 0 
vn -0.944882 0.314961 0 
vn -0.944882 0.314961 0 
vn -1 0 0 
vn -1 0 0 
vn -0.944882 -0.314961 0 
vn -0.944882 -0.314961 0 
vn -0.834646 -0.551181 0 
vn -0.834646 -0.551181 0 
vn -0.708661 -0.708661 0 
vn -0.708661 -0.708661 0 

vt 1 1 
vt 0 1 
vt 1 0.833333 
vt 0 0.833333 
vt 1 0.666667 
vt 0 0.666667 
vt 1 0.5 
vt 0 0.5 
vt 1 0.333333 
vt 0 0.333333 
vt 1 0.166667 
vt 0 0.166667 
vt 1 0 
vt 0 0 

usemtl Solarscoop4Mtl

f 158/158/158 159/159/159 160/160/160 
f 160/160/160 159/159/159 161/161/161 
f 160/160/160 161/161/161 162/162/162 
f 162/162/162 161/161/161 163/163/163 
f 162/162/162 163/163/163 164/164/164 
f 164/164/164 163/163/163 165/165/165 
f 164/164/164 165/165/165 166/166/166 
f 166/166/166 165/165/165 167/167/167 
f 166/166/166 167/167/167 168/168/168 
f 168/168/168 167/167/167 169/169/169 
f 168/168/168 169/169/169 170/170/170 
f 170/170/170 169/169/169 171/171/171 

g Solarscoop5

v 327.692 42.6918 115 
v 327.692 42.6918 165 
v 330.818 38.8785 115 
v 330.818 38.8785 165 
v 333.736 32.912 115 
v 333.736 32.912 165 
v 335.02 25 115 
v 335.02 25 165 
v 333.736 17.088 115 
v 333.736 17.088 165 
v 330.818 11.1215 115 
v 330.818 11.1215 165 
v 327.692 7.30816 115 
v 327.692 7.30816 165 

vn 0.708661 0.708661 0 
vn 0.708661 0.708661 0 
vn 0.834646 0.551181 0 
vn 0.834646 0.551181 0 
vn 0.944882 0.314961 0 
vn 0.944882 0.314961 0 
vn 1 0 0 
vn 1 0 0 
vn 0.944882 -0.314961 0 
vn 0.944882 -0.314961 0 
vn 0.834646 -0.551181 0 
vn 0.834646 -0.551181 0 
vn 0.708661 -0.708661 0 
vn 0.708661 -0.708661 0 

vt 1 1 
vt 0 1 
vt 1 0.833333 
vt 0 0.833333 
vt 1 0.666667 
vt 0 0.666667 
vt 1 0.5 
vt 0 0.5 
vt 1 0.333333 
vt 0 0.333333 
vt 1 0.166667 
vt 0 0.166667 
vt 1 0 
vt 0 0 

usemtl Solarscoop4Mtl

f 172/172/172 173/173/173 174/174/174 
f 174/174/174 173/173/173 175/175/175 
f 174/174/174 175/175/175 176/176/176 
f 176/176/176 175/175/175 177/177/177 
f 176/176/176 177/177/177 178/178/178 
f 178/178/178 177/177/177 179/179/179 
f 178/178/178 179/179/179 180/180/180 
f 180/180/180 179/179/179 181/181/181 
f 180/180/180 181/181/181 182/182/182 
f 182/182/182 181/181/181 183/183/183 
f 182/182/182 183/183/183 184/184/184 
f 184/184/184 183/183/183 185/185/185 

g Solarscoop6

v 292.308 7.30816 165 
v 292.308 7.30816 115 
v 296.121 4.18205 165 
v 296.121 4.18205 115 
v 302.088 1.26402 165 
v 302.088 1.26402 115 
v 310 -0.02 165 
v 310 -0.02 115 
v 317.912 1.26402 165 
v 317.912 1.26402 115 
v 323.879 4.18205 165 
v 323.879 4.18205 115 
v 327.692 7.30816 165 
v 327.692 7.30816 115 

vn -0.708661 -0.708661 0 
vn -0.708661 -0.708661 0 
vn -0.551181 -0.834646 0 
vn -0.551181 -0.834646 0 
vn -0.314961 -0.944882 0 
vn -0.314961 -0.944882 0 
vn 0 -1 0 
vn 0 -1 0 
vn 0.314961 -0.944882 0 
vn 0.314961 -0.944882 0 
vn 0.551181 -0.834646 0 
vn 0.551181 -0.834646 0 
vn 0.708661 -0.708661 0 
vn 0.708661 -0.708661 0 

vt 1 1 
vt 0 1 
vt 1 0.833333 
vt 0 0.833333 
vt 1 0.666667 
vt 0 0.666667 
vt 1 0.5 
vt 0 0.5 
vt 1 0.333333 
vt 0 0.333333 
vt 1 0.166667 
vt 0 0.166667 
vt 1 0 
vt 0 0 

usemtl Solarscoop3Mtl

f 186/186/186 187/187/187 188/188/188 
f 188/188/188 187/187/187 189/189/189 
f 188/188/188 189/189/189 190/190/190 
f 190/190/190 189/189/189 191/191/191 
f 190/190/190 191/191/191 192/192/192 
f 192/192/192 191/191/191 193/193/193 
f 192/192/192 193/193/193 194/194/194 
f 194/194/194 193/193/193 195/195/195 
f 194/194/194 195/195/195 196/196/196 
f 196/196/196 195/195/195 197/197/197 
f 196/196/196 197/197/197 198/198/198 
f 198/198/198 197/197/197 199/199/199 

g Solarscoop7

v 310 25 165.02 
v 327.678 42.6777 165.02 
v 330.801 38.8675 165.02 
v 333.717 32.9057 165.02 
v 335 25 165.02 
v 333.717 17.0943 165.02 
v 330.801 11.1325 165.02 
v 327.678 7.32233 165.02 
v 327.678 7.32233 165.02 
v 323.867 4.19874 165.02 
v 317.906 1.28292 165.02 
v 310 0 165.02 
v 302.094 1.28292 165.02 
v 296.133 4.19874 165.02 
v 292.322 7.32233 165.02 
v 292.322 7.32233 165.02 
v 289.199 11.1325 165.02 
v 286.283 17.0943 165.02 
v 285 25 165.02 
v 286.283 32.9057 165.02 
v 289.199 38.8675 165.02 
v 292.322 42.6777 165.02 
v 292.322 42.6777 165.02 
v 296.133 45.8013 165.02 
v 302.094 48.7171 165.02 
v 310 50 165.02 
v 317.906 48.7171 165.02 
v 323.867 45.8013 165.02 
v 327.678 42.6777 165.02 

vn 0 0 1 
vn 0 0 1 
vn 0 0 1 
vn 0 0 1 
vn 0 0 1 
vn 0 0 1 
vn 0 0 1 
vn 0 0 1 
vn 0 0 1 
vn 0 0 1 
vn 0 0 1 
vn 0 0 1 
vn 0 0 1 
vn 0 0 1 
vn 0 0 1 
vn 0 0 1 
vn 0 0 1 
vn 0 0 1 
vn 0 0 1 
vn 0 0 1 
vn 0 0 1 
vn 0 0 1 
vn 0 0 1 
vn 0 0 1 
vn 0 0 1 
vn 0 0 1 
vn 0 0 1 
vn 0 0 1 
vn 0 0 1 

vt 0.5 0.5 
vt 0.853553 0.853553 
vt 0.916025 0.77735 
vt 0.974342 0.658114 
vt 1 0.5 
vt 0.974342 0.341886 
vt 0.916025 0.22265 
vt 0.853553 0.146447 
vt 0.853553 0.146447 
vt 0.77735 0.0839748 
vt 0.658114 0.0256584 
vt 0.5 0 
vt 0.341886 0.0256584 
vt 0.22265 0.0839748 
vt 0.146447 0.146447 
vt 0.146447 0.146447 
vt 0.0839748 0.22265 
vt 0.0256583 0.341886 
vt 0 0.5 
vt 0.0256583 0.658114 
vt 0.0839748 0.77735 
vt 0.146447 0.853553 
vt 0.146447 0.853553 
vt 0.22265 0.916025 
vt 0.341886 0.974342 
vt 0.5 1 
vt 0.658114 0.974342 
vt 0.77735 0.916025 
vt 0.853553 0.853553 

usemtl Solarscoop7Mtl

f 200/200/200 202/202/202 201/201/201 
f 200/200/200 203/203/203 202/202/202 
f 200/200/200 204/204/204 203/203/203 
f 200/200/200 205/205/205 204/204/204 
f 200/200/200 206/206/206 205/205/205 
f 200/200/200 207/207/207 206/206/206 
f 200/200/200 209/209/209 208/208/208 
f 200/200/200 210/210/210 209/209/209 
f 200/200/200 211/211/211 210/210/210 
f 200/200/200 212/212/212 211/211/211 
f 200/200/200 213/213/213 212/212/212 
f 200/200/200 214/214/214 213/213/213 
f 200/200/200 216/216/216 215/215/215 
f 200/200/200 217/217/217 216/216/216 
f 200/200/200 218/218/218 217/217/217 
f 200/200/200 219/219/219 218/218/218 
f 200/200/200 220/220/220 219/219/219 
f 200/200/200 221/221/221 220/220/220 
f 200/200/200 223/223/223 222/222/222 
f 200/200/200 224/224/224 223/223/223 
f 200/200/200 225/225/225 224/224/224 
f 200/200/200 226/226/226 225/225/225 
f 200/200/200 227/227/227 226/226/226 
f 200/200/200 228/228/228 227/227/227 

