# This file is brought to you by Roblox Corporation
# Generated by Roblox Studio

mtllib hyperdrive.mtl

g Hyperdrive1

v 372 4.00001 75 
v 372 4.00001 85 
v 372 1.19209e-05 75 
v 372 1.19209e-05 85 
v 368 4.00001 85 
v 372 4.00001 85 
v 368 4.00001 75 
v 372 4.00001 75 
v 372 4.00001 85 
v 368 4.00001 85 
v 372 1.19209e-05 85 
v 368 1.19209e-05 85 
v 368 4.00001 85 
v 368 4.00001 75 
v 368 1.19209e-05 85 
v 368 1.19209e-05 75 
v 368 1.19209e-05 75 
v 372 1.19209e-05 75 
v 368 1.19209e-05 85 
v 372 1.19209e-05 85 
v 368 4.00001 75 
v 372 4.00001 75 
v 368 1.19209e-05 75 
v 372 1.19209e-05 75 

vn 1 0 0 
vn 1 0 0 
vn 1 0 0 
vn 1 0 0 
vn 0 1 0 
vn 0 1 0 
vn 0 1 0 
vn 0 1 0 
vn 0 0 1 
vn 0 0 1 
vn 0 0 1 
vn 0 0 1 
vn -1 0 0 
vn -1 0 0 
vn -1 0 0 
vn -1 0 0 
vn 0 -1 0 
vn 0 -1 0 
vn 0 -1 0 
vn 0 -1 0 
vn 0 0 -1 
vn 0 0 -1 
vn 0 0 -1 
vn 0 0 -1 

vt 8 -5 
vt 6.75 -5 
vt 8 -5.5 
vt 6.75 -5.5 
vt 7.25 -5 
vt 6.75 -5 
vt 7.25 -6.25 
vt 6.75 -6.25 
vt 7.25 -5 
vt 6.75 -5 
vt 7.25 -5.5 
vt 6.75 -5.5 
vt 8 -5 
vt 6.75 -5 
vt 8 -5.5 
vt 6.75 -5.5 
vt 7.25 -5 
vt 6.75 -5 
vt 7.25 -6.25 
vt 6.75 -6.25 
vt 7.25 -5 
vt 6.75 -5 
vt 7.25 -5.5 
vt 6.75 -5.5 

usemtl Hyperdrive1Mtl

f 1/1/1 2/2/2 3/3/3 
f 3/3/3 2/2/2 4/4/4 
f 5/5/5 6/6/6 7/7/7 
f 7/7/7 6/6/6 8/8/8 
f 9/9/9 10/10/10 11/11/11 
f 11/11/11 10/10/10 12/12/12 
f 13/13/13 14/14/14 15/15/15 
f 15/15/15 14/14/14 16/16/16 
f 17/17/17 18/18/18 19/19/19 
f 19/19/19 18/18/18 20/20/20 
f 21/21/21 22/22/22 23/23/23 
f 23/23/23 22/22/22 24/24/24 

g Hyperdrive2

v 368 4.00001 74.98 
v 372 4.00001 74.98 
v 368 1.19209e-05 74.98 
v 372 1.19209e-05 74.98 

vn 0 0 -1 
vn 0 0 -1 
vn 0 0 -1 
vn 0 0 -1 

vt 1 1 
vt 0 1 
vt 1 0 
vt 0 0 

usemtl Hyperdrive2Mtl

f 25/25/25 26/26/26 27/27/27 
f 27/27/27 26/26/26 28/28/28 

g Hyperdrive3

v 372 4.00001 85.02 
v 368 4.00001 85.02 
v 372 1.19209e-05 85.02 
v 368 1.19209e-05 85.02 

vn 0 0 1 
vn 0 0 1 
vn 0 0 1 
vn 0 0 1 

vt 1 1 
vt 0 1 
vt 1 0 
vt 0 0 

usemtl Hyperdrive2Mtl

f 29/29/29 30/30/30 31/31/31 
f 31/31/31 30/30/30 32/32/32 

g Hyperdrive4

v 372 -0.0199881 85 
v 368 -0.0199881 85 
v 372 -0.0199881 75 
v 368 -0.0199881 75 

vn 0 -1 0 
vn 0 -1 0 
vn 0 -1 0 
vn 0 -1 0 

vt 1 1 
vt 0 1 
vt 1 -1 
vt 0 -1 

usemtl Hyperdrive4Mtl

f 33/33/33 34/34/34 35/35/35 
f 35/35/35 34/34/34 36/36/36 

g Hyperdrive5

v 367.98 4.00001 85 
v 367.98 4.00001 75 
v 367.98 1.19209e-05 85 
v 367.98 1.19209e-05 75 

vn -1 0 0 
vn -1 0 0 
vn -1 0 0 
vn -1 0 0 

vt 2 1 
vt 0 1 
vt 2 0 
vt 0 0 

usemtl Hyperdrive5Mtl

f 37/37/37 38/38/38 39/39/39 
f 39/39/39 38/38/38 40/40/40 

g Hyperdrive6

v 372.02 4.00001 75 
v 372.02 4.00001 85 
v 372.02 1.19209e-05 75 
v 372.02 1.19209e-05 85 

vn 1 0 0 
vn 1 0 0 
vn 1 0 0 
vn 1 0 0 

vt 2 1 
vt 0 1 
vt 2 0 
vt 0 0 

usemtl Hyperdrive5Mtl

f 41/41/41 42/42/42 43/43/43 
f 43/43/43 42/42/42 44/44/44 

g Hyperdrive7

v 368 4.02001 85 
v 372 4.02001 85 
v 368 4.02001 75 
v 372 4.02001 75 

vn 0 1 0 
vn 0 1 0 
vn 0 1 0 
vn 0 1 0 

vt 2 1 
vt 0 1 
vt 2 -3 
vt 0 -3 

usemtl Hyperdrive4Mtl

f 45/45/45 46/46/46 47/47/47 
f 47/47/47 46/46/46 48/48/48 

