# This file is brought to you by Roblox Corporation
# Generated by Roblox Studio

mtllib cone.mtl

g Cone1

v 402.175 2 -120.05 
v 402.882 0 -120.757 
v 403.041 0 -120.55 
v 403.041 0 -119.55 
v 402.882 0 -119.343 
v 403.141 0 -119.791 
v 403.041 0 -119.55 
v 403.175 0 -120.05 
v 403.141 0 -120.309 
v 403.041 0 -120.55 
v 402.175 2 -120.05 
v 402.175 0 -119.05 
v 401.916 0 -119.084 
v 402.434 0 -119.084 
v 402.175 0 -119.05 
v 402.675 0 -119.184 
v 402.434 0 -119.084 
v 402.882 0 -119.343 
v 402.675 0 -119.184 
v 401.916 0 -119.084 
v 401.675 0 -119.184 
v 401.675 0 -119.184 
v 401.468 0 -119.343 
v 401.309 0 -120.55 
v 402.175 2 -120.05 
v 401.468 0 -120.757 
v 401.468 0 -119.343 
v 401.309 0 -119.55 
v 401.209 0 -120.309 
v 401.309 0 -120.55 
v 401.175 0 -120.05 
v 401.209 0 -119.791 
v 401.309 0 -119.55 
v 401.916 0 -121.016 
v 402.882 0 -120.757 
v 402.434 0 -119.084 
v 402.434 0 -121.016 
v 402.675 0 -120.916 
v 402.175 0 -121.05 
v 403.041 0 -120.55 
v 403.141 0 -120.309 
v 403.141 0 -119.791 
v 403.175 0 -120.05 
v 402.882 0 -119.343 
v 403.041 0 -119.55 
v 402.675 0 -119.184 
v 401.468 0 -120.757 
v 401.675 0 -120.916 
v 401.209 0 -120.309 
v 401.309 0 -120.55 
v 401.468 0 -119.343 
v 402.175 0 -119.05 
v 401.916 0 -119.084 
v 401.675 0 -119.184 
v 401.209 0 -119.791 
v 401.175 0 -120.05 
v 401.309 0 -119.55 
v 402.175 2 -120.05 
v 402.675 0 -120.916 
v 402.882 0 -120.757 
v 402.434 0 -121.016 
v 402.675 0 -120.916 
v 402.175 0 -121.05 
v 402.434 0 -121.016 
v 401.916 0 -121.016 
v 402.175 0 -121.05 
v 401.675 0 -120.916 
v 401.916 0 -121.016 
v 401.468 0 -120.757 
v 401.675 0 -120.916 

vn 0 1 0 
vn 0.629921 0.448819 -0.629921 
vn 0.771654 0.448819 -0.448819 
vn 0.771654 0.448819 0.448819 
vn 0.629921 0.448819 0.629921 
vn 0.866142 0.448819 0.228346 
vn 0.771654 0.448819 0.448819 
vn 0.897638 0.448819 0 
vn 0.866142 0.448819 -0.228346 
vn 0.771654 0.448819 -0.448819 
vn 0 1 0 
vn 0 0.448819 0.897638 
vn -0.228346 0.448819 0.866142 
vn 0.228346 0.448819 0.866142 
vn 0 0.448819 0.897638 
vn 0.448819 0.448819 0.771654 
vn 0.228346 0.448819 0.866142 
vn 0.629921 0.448819 0.629921 
vn 0.448819 0.448819 0.771654 
vn -0.228346 0.448819 0.866142 
vn -0.448819 0.448819 0.771654 
vn -0.448819 0.448819 0.771654 
vn -0.629921 0.448819 0.629921 
vn -0.771654 0.448819 -0.448819 
vn 0 1 0 
vn -0.629921 0.448819 -0.629921 
vn -0.629921 0.448819 0.629921 
vn -0.771654 0.448819 0.448819 
vn -0.866142 0.448819 -0.228346 
vn -0.771654 0.448819 -0.448819 
vn -0.897638 0.448819 0 
vn -0.866142 0.448819 0.228346 
vn -0.771654 0.448819 0.448819 
vn 0 -1 0 
vn 0 -1 0 
vn 0 -1 0 
vn 0 -1 0 
vn 0 -1 0 
vn 0 -1 0 
vn 0 -1 0 
vn 0 -1 0 
vn 0 -1 0 
vn 0 -1 0 
vn 0 -1 0 
vn 0 -1 0 
vn 0 -1 0 
vn 0 -1 0 
vn 0 -1 0 
vn 0 -1 0 
vn 0 -1 0 
vn 0 -1 0 
vn 0 -1 0 
vn 0 -1 0 
vn 0 -1 0 
vn 0 -1 0 
vn 0 -1 0 
vn 0 -1 0 
vn 0 1 0 
vn 0.448819 0.448819 -0.771654 
vn 0.629921 0.448819 -0.629921 
vn 0.228346 0.448819 -0.866142 
vn 0.448819 0.448819 -0.771654 
vn 0 0.448819 -0.897638 
vn 0.228346 0.448819 -0.866142 
vn -0.228346 0.448819 -0.866142 
vn 0 0.448819 -0.897638 
vn -0.448819 0.448819 -0.771654 
vn -0.228346 0.448819 -0.866142 
vn -0.629921 0.448819 -0.629921 
vn -0.448819 0.448819 -0.771654 

vt -1.1451 -1.37059 
vt -1.05671 -1.62059 
vt -1.0826 -1.62059 
vt -1.2076 -1.62059 
vt -1.23349 -1.62059 
vt -1.17745 -1.62059 
vt -1.2076 -1.62059 
vt -1.1451 -1.62059 
vt -1.11275 -1.62059 
vt -1.0826 -1.62059 
vt -1.1451 -1.37059 
vt -1.1451 -1.62059 
vt -1.17745 -1.62059 
vt -1.11275 -1.62059 
vt -1.1451 -1.62059 
vt -1.0826 -1.62059 
vt -1.11275 -1.62059 
vt -1.05671 -1.62059 
vt -1.0826 -1.62059 
vt -1.17745 -1.62059 
vt -1.2076 -1.62059 
vt -1.2076 -1.62059 
vt -1.23349 -1.62059 
vt -1.2076 -1.62059 
vt -1.1451 -1.37059 
vt -1.23349 -1.62059 
vt -1.05671 -1.62059 
vt -1.0826 -1.62059 
vt -1.17745 -1.62059 
vt -1.2076 -1.62059 
vt -1.1451 -1.62059 
vt -1.11275 -1.62059 
vt -1.0826 -1.62059 
vt -1.17745 -1.61633 
vt -1.05671 -1.58398 
vt -1.11275 -1.37485 
vt -1.11275 -1.61633 
vt -1.0826 -1.60385 
vt -1.1451 -1.62059 
vt -1.03685 -1.55809 
vt -1.02436 -1.52794 
vt -1.02436 -1.46324 
vt -1.0201 -1.49559 
vt -1.05671 -1.4072 
vt -1.03685 -1.43309 
vt -1.0826 -1.38734 
vt -1.23349 -1.58398 
vt -1.2076 -1.60385 
vt -1.26584 -1.52794 
vt -1.25335 -1.55809 
vt -1.23349 -1.4072 
vt -1.1451 -1.37059 
vt -1.17745 -1.37485 
vt -1.2076 -1.38734 
vt -1.26584 -1.46324 
vt -1.2701 -1.49559 
vt -1.25335 -1.43309 
vt -1.1451 -1.37059 
vt -1.2076 -1.62059 
vt -1.23349 -1.62059 
vt -1.17745 -1.62059 
vt -1.2076 -1.62059 
vt -1.1451 -1.62059 
vt -1.17745 -1.62059 
vt -1.11275 -1.62059 
vt -1.1451 -1.62059 
vt -1.0826 -1.62059 
vt -1.11275 -1.62059 
vt -1.05671 -1.62059 
vt -1.0826 -1.62059 

usemtl Cone1Mtl

f 2/2/2 1/1/1 3/3/3 
f 4/4/4 1/1/1 5/5/5 
f 6/6/6 1/1/1 7/7/7 
f 8/8/8 1/1/1 6/6/6 
f 9/9/9 1/1/1 8/8/8 
f 10/10/10 1/1/1 9/9/9 
f 12/12/12 11/11/11 13/13/13 
f 14/14/14 11/11/11 15/15/15 
f 16/16/16 11/11/11 17/17/17 
f 18/18/18 11/11/11 19/19/19 
f 20/20/20 11/11/11 21/21/21 
f 22/22/22 11/11/11 23/23/23 
f 24/24/24 25/25/25 26/26/26 
f 27/27/27 25/25/25 28/28/28 
f 29/29/29 25/25/25 30/30/30 
f 31/31/31 25/25/25 29/29/29 
f 32/32/32 25/25/25 31/31/31 
f 33/33/33 25/25/25 32/32/32 
f 34/34/34 35/35/35 36/36/36 
f 37/37/37 38/38/38 35/35/35 
f 34/34/34 37/37/37 35/35/35 
f 34/34/34 39/39/39 37/37/37 
f 35/35/35 40/40/40 41/41/41 
f 35/35/35 41/41/41 36/36/36 
f 41/41/41 42/42/42 36/36/36 
f 41/41/41 43/43/43 42/42/42 
f 42/42/42 44/44/44 36/36/36 
f 42/42/42 45/45/45 44/44/44 
f 44/44/44 46/46/46 36/36/36 
f 47/47/47 48/48/48 34/34/34 
f 49/49/49 47/47/47 34/34/34 
f 49/49/49 34/34/34 36/36/36 
f 49/49/49 50/50/50 47/47/47 
f 36/36/36 51/51/51 49/49/49 
f 36/36/36 52/52/52 51/51/51 
f 52/52/52 53/53/53 51/51/51 
f 53/53/53 54/54/54 51/51/51 
f 51/51/51 55/55/55 49/49/49 
f 55/55/55 56/56/56 49/49/49 
f 51/51/51 57/57/57 55/55/55 
f 59/59/59 58/58/58 60/60/60 
f 61/61/61 58/58/58 62/62/62 
f 63/63/63 58/58/58 64/64/64 
f 65/65/65 58/58/58 66/66/66 
f 67/67/67 58/58/58 68/68/68 
f 69/69/69 58/58/58 70/70/70 

