# This file is brought to you by Roblox Corporation
# Generated by Roblox Studio

mtllib battery.mtl

g Battery1

v 271 20.5 -100 
v 271 20.8536 -100.354 
v 271 20.7773 -100.416 
v 271 20.6581 -100.474 
v 271 20.5 -100.5 
v 271 20.3419 -100.474 
v 271 20.2227 -100.416 
v 271 20.1464 -100.354 
v 271 20.1464 -100.354 
v 271 20.084 -100.277 
v 271 20.0257 -100.158 
v 271 20 -100 
v 271 20.0257 -99.8419 
v 271 20.084 -99.7226 
v 271 20.1464 -99.6464 
v 271 20.1464 -99.6464 
v 271 20.2227 -99.584 
v 271 20.3419 -99.5257 
v 271 20.5 -99.5 
v 271 20.6581 -99.5257 
v 271 20.7773 -99.584 
v 271 20.8536 -99.6464 
v 271 20.8536 -99.6464 
v 271 20.916 -99.7226 
v 271 20.9743 -99.8419 
v 271 21 -100 
v 271 20.9743 -100.158 
v 271 20.916 -100.277 
v 271 20.8536 -100.354 
v 269 20.8536 -99.6464 
v 271 20.8536 -99.6464 
v 269 20.916 -99.7226 
v 271 20.916 -99.7226 
v 269 20.9743 -99.8419 
v 271 20.9743 -99.8419 
v 269 21 -100 
v 271 21 -100 
v 269 20.9743 -100.158 
v 271 20.9743 -100.158 
v 269 20.916 -100.277 
v 271 20.916 -100.277 
v 269 20.8536 -100.354 
v 271 20.8536 -100.354 
v 271 20.8536 -99.6464 
v 269 20.8536 -99.6464 
v 271 20.7773 -99.584 
v 269 20.7773 -99.584 
v 271 20.6581 -99.5257 
v 269 20.6581 -99.5257 
v 271 20.5 -99.5 
v 269 20.5 -99.5 
v 271 20.3419 -99.5257 
v 269 20.3419 -99.5257 
v 271 20.2227 -99.584 
v 269 20.2227 -99.584 
v 271 20.1464 -99.6464 
v 269 20.1464 -99.6464 
v 269 20.5 -100 
v 269 20.8536 -99.6464 
v 269 20.7773 -99.584 
v 269 20.6581 -99.5257 
v 269 20.5 -99.5 
v 269 20.3419 -99.5257 
v 269 20.2227 -99.584 
v 269 20.1464 -99.6464 
v 269 20.1464 -99.6464 
v 269 20.084 -99.7226 
v 269 20.0257 -99.8419 
v 269 20 -100 
v 269 20.0257 -100.158 
v 269 20.084 -100.277 
v 269 20.1464 -100.354 
v 269 20.1464 -100.354 
v 269 20.2227 -100.416 
v 269 20.3419 -100.474 
v 269 20.5 -100.5 
v 269 20.6581 -100.474 
v 269 20.7773 -100.416 
v 269 20.8536 -100.354 
v 269 20.8536 -100.354 
v 269 20.916 -100.277 
v 269 20.9743 -100.158 
v 269 21 -100 
v 269 20.9743 -99.8419 
v 269 20.916 -99.7226 
v 269 20.8536 -99.6464 
v 269 20.1464 -100.354 
v 271 20.1464 -100.354 
v 269 20.084 -100.277 
v 271 20.084 -100.277 
v 269 20.0257 -100.158 
v 271 20.0257 -100.158 
v 269 20 -100 
v 271 20 -100 
v 269 20.0257 -99.8419 
v 271 20.0257 -99.8419 
v 269 20.084 -99.7226 
v 271 20.084 -99.7226 
v 269 20.1464 -99.6464 
v 271 20.1464 -99.6464 
v 269 20.8536 -100.354 
v 271 20.8536 -100.354 
v 269 20.7773 -100.416 
v 271 20.7773 -100.416 
v 269 20.6581 -100.474 
v 271 20.6581 -100.474 
v 269 20.5 -100.5 
v 271 20.5 -100.5 
v 269 20.3419 -100.474 
v 271 20.3419 -100.474 
v 269 20.2227 -100.416 
v 271 20.2227 -100.416 
v 269 20.1464 -100.354 
v 271 20.1464 -100.354 

vn 1 0 0 
vn 1 0 0 
vn 1 0 0 
vn 1 0 0 
vn 1 0 0 
vn 1 0 0 
vn 1 0 0 
vn 1 0 0 
vn 1 0 0 
vn 1 0 0 
vn 1 0 0 
vn 1 0 0 
vn 1 0 0 
vn 1 0 0 
vn 1 0 0 
vn 1 0 0 
vn 1 0 0 
vn 1 0 0 
vn 1 0 0 
vn 1 0 0 
vn 1 0 0 
vn 1 0 0 
vn 1 0 0 
vn 1 0 0 
vn 1 0 0 
vn 1 0 0 
vn 1 0 0 
vn 1 0 0 
vn 1 0 0 
vn 0 0.708661 0.708661 
vn 0 0.708661 0.708661 
vn 0 0.834646 0.551181 
vn 0 0.834646 0.551181 
vn 0 0.944882 0.314961 
vn 0 0.944882 0.314961 
vn 0 1 0 
vn 0 1 0 
vn 0 0.944882 -0.314961 
vn 0 0.944882 -0.314961 
vn 0 0.834646 -0.551181 
vn 0 0.834646 -0.551181 
vn 0 0.708661 -0.708661 
vn 0 0.708661 -0.708661 
vn 0 0.708661 0.708661 
vn 0 0.708661 0.708661 
vn 0 0.551181 0.834646 
vn 0 0.551181 0.834646 
vn 0 0.314961 0.944882 
vn 0 0.314961 0.944882 
vn 0 0 1 
vn 0 0 1 
vn 0 -0.314961 0.944882 
vn 0 -0.314961 0.944882 
vn 0 -0.551181 0.834646 
vn 0 -0.551181 0.834646 
vn 0 -0.708661 0.708661 
vn 0 -0.708661 0.708661 
vn -1 0 0 
vn -1 0 0 
vn -1 0 0 
vn -1 0 0 
vn -1 0 0 
vn -1 0 0 
vn -1 0 0 
vn -1 0 0 
vn -1 0 0 
vn -1 0 0 
vn -1 0 0 
vn -1 0 0 
vn -1 0 0 
vn -1 0 0 
vn -1 0 0 
vn -1 0 0 
vn -1 0 0 
vn -1 0 0 
vn -1 0 0 
vn -1 0 0 
vn -1 0 0 
vn -1 0 0 
vn -1 0 0 
vn -1 0 0 
vn -1 0 0 
vn -1 0 0 
vn -1 0 0 
vn -1 0 0 
vn -1 0 0 
vn 0 -0.708661 -0.708661 
vn 0 -0.708661 -0.708661 
vn 0 -0.834646 -0.551181 
vn 0 -0.834646 -0.551181 
vn 0 -0.944882 -0.314961 
vn 0 -0.944882 -0.314961 
vn 0 -1 0 
vn 0 -1 0 
vn 0 -0.944882 0.314961 
vn 0 -0.944882 0.314961 
vn 0 -0.834646 0.551181 
vn 0 -0.834646 0.551181 
vn 0 -0.708661 0.708661 
vn 0 -0.708661 0.708661 
vn 0 0.708661 -0.708661 
vn 0 0.708661 -0.708661 
vn 0 0.551181 -0.834646 
vn 0 0.551181 -0.834646 
vn 0 0.314961 -0.944882 
vn 0 0.314961 -0.944882 
vn 0 0 -1 
vn 0 0 -1 
vn 0 -0.314961 -0.944882 
vn 0 -0.314961 -0.944882 
vn 0 -0.551181 -0.834646 
vn 0 -0.551181 -0.834646 
vn 0 -0.708661 -0.708661 
vn 0 -0.708661 -0.708661 

vt 2.3125 -0.0625 
vt 2.35669 -0.0183058 
vt 2.3645 -0.0278312 
vt 2.37179 -0.0427358 
vt 2.375 -0.0625 
vt 2.37179 -0.0822642 
vt 2.3645 -0.0971688 
vt 2.35669 -0.106694 
vt 2.35669 -0.106694 
vt 2.34717 -0.114503 
vt 2.33226 -0.121793 
vt 2.3125 -0.125 
vt 2.29274 -0.121793 
vt 2.27783 -0.114503 
vt 2.26831 -0.106694 
vt 2.26831 -0.106694 
vt 2.2605 -0.0971688 
vt 2.25321 -0.0822642 
vt 2.25 -0.0625 
vt 2.25321 -0.0427358 
vt 2.2605 -0.0278312 
vt 2.26831 -0.0183058 
vt 2.26831 -0.0183058 
vt 2.27783 -0.0104969 
vt 2.29274 -0.00320733 
vt 2.3125 0 
vt 2.33226 -0.00320733 
vt 2.34717 -0.0104969 
vt 2.35669 -0.0183058 
vt 4.75 -1 
vt 4.5 -1 
vt 4.75 -1.02083 
vt 4.5 -1.02083 
vt 4.75 -1.04167 
vt 4.5 -1.04167 
vt 4.75 -1.0625 
vt 4.5 -1.0625 
vt 4.75 -1.08333 
vt 4.5 -1.08333 
vt 4.75 -1.10417 
vt 4.5 -1.10417 
vt 4.75 -1.125 
vt 4.5 -1.125 
vt 4.75 -1 
vt 4.5 -1 
vt 4.75 -1.02083 
vt 4.5 -1.02083 
vt 4.75 -1.04167 
vt 4.5 -1.04167 
vt 4.75 -1.0625 
vt 4.5 -1.0625 
vt 4.75 -1.08333 
vt 4.5 -1.08333 
vt 4.75 -1.10417 
vt 4.5 -1.10417 
vt 4.75 -1.125 
vt 4.5 -1.125 
vt 2.3125 -0.0625 
vt 2.35669 -0.0183058 
vt 2.3645 -0.0278312 
vt 2.37179 -0.0427358 
vt 2.375 -0.0625 
vt 2.37179 -0.0822642 
vt 2.3645 -0.0971688 
vt 2.35669 -0.106694 
vt 2.35669 -0.106694 
vt 2.34717 -0.114503 
vt 2.33226 -0.121793 
vt 2.3125 -0.125 
vt 2.29274 -0.121793 
vt 2.27783 -0.114503 
vt 2.26831 -0.106694 
vt 2.26831 -0.106694 
vt 2.2605 -0.0971688 
vt 2.25321 -0.0822642 
vt 2.25 -0.0625 
vt 2.25321 -0.0427358 
vt 2.2605 -0.0278312 
vt 2.26831 -0.0183058 
vt 2.26831 -0.0183058 
vt 2.27783 -0.0104969 
vt 2.29274 -0.00320733 
vt 2.3125 0 
vt 2.33226 -0.00320733 
vt 2.34717 -0.0104969 
vt 2.35669 -0.0183058 
vt 4.75 -1 
vt 4.5 -1 
vt 4.75 -1.02083 
vt 4.5 -1.02083 
vt 4.75 -1.04167 
vt 4.5 -1.04167 
vt 4.75 -1.0625 
vt 4.5 -1.0625 
vt 4.75 -1.08333 
vt 4.5 -1.08333 
vt 4.75 -1.10417 
vt 4.5 -1.10417 
vt 4.75 -1.125 
vt 4.5 -1.125 
vt 4.75 -1 
vt 4.5 -1 
vt 4.75 -1.02083 
vt 4.5 -1.02083 
vt 4.75 -1.04167 
vt 4.5 -1.04167 
vt 4.75 -1.0625 
vt 4.5 -1.0625 
vt 4.75 -1.08333 
vt 4.5 -1.08333 
vt 4.75 -1.10417 
vt 4.5 -1.10417 
vt 4.75 -1.125 
vt 4.5 -1.125 

usemtl Battery1Mtl

f 1/1/1 3/3/3 2/2/2 
f 1/1/1 4/4/4 3/3/3 
f 1/1/1 5/5/5 4/4/4 
f 1/1/1 6/6/6 5/5/5 
f 1/1/1 7/7/7 6/6/6 
f 1/1/1 8/8/8 7/7/7 
f 1/1/1 10/10/10 9/9/9 
f 1/1/1 11/11/11 10/10/10 
f 1/1/1 12/12/12 11/11/11 
f 1/1/1 13/13/13 12/12/12 
f 1/1/1 14/14/14 13/13/13 
f 1/1/1 15/15/15 14/14/14 
f 1/1/1 17/17/17 16/16/16 
f 1/1/1 18/18/18 17/17/17 
f 1/1/1 19/19/19 18/18/18 
f 1/1/1 20/20/20 19/19/19 
f 1/1/1 21/21/21 20/20/20 
f 1/1/1 22/22/22 21/21/21 
f 1/1/1 24/24/24 23/23/23 
f 1/1/1 25/25/25 24/24/24 
f 1/1/1 26/26/26 25/25/25 
f 1/1/1 27/27/27 26/26/26 
f 1/1/1 28/28/28 27/27/27 
f 1/1/1 29/29/29 28/28/28 
f 30/30/30 31/31/31 32/32/32 
f 32/32/32 31/31/31 33/33/33 
f 32/32/32 33/33/33 34/34/34 
f 34/34/34 33/33/33 35/35/35 
f 34/34/34 35/35/35 36/36/36 
f 36/36/36 35/35/35 37/37/37 
f 36/36/36 37/37/37 38/38/38 
f 38/38/38 37/37/37 39/39/39 
f 38/38/38 39/39/39 40/40/40 
f 40/40/40 39/39/39 41/41/41 
f 40/40/40 41/41/41 42/42/42 
f 42/42/42 41/41/41 43/43/43 
f 44/44/44 45/45/45 46/46/46 
f 46/46/46 45/45/45 47/47/47 
f 46/46/46 47/47/47 48/48/48 
f 48/48/48 47/47/47 49/49/49 
f 48/48/48 49/49/49 50/50/50 
f 50/50/50 49/49/49 51/51/51 
f 50/50/50 51/51/51 52/52/52 
f 52/52/52 51/51/51 53/53/53 
f 52/52/52 53/53/53 54/54/54 
f 54/54/54 53/53/53 55/55/55 
f 54/54/54 55/55/55 56/56/56 
f 56/56/56 55/55/55 57/57/57 
f 58/58/58 60/60/60 59/59/59 
f 58/58/58 61/61/61 60/60/60 
f 58/58/58 62/62/62 61/61/61 
f 58/58/58 63/63/63 62/62/62 
f 58/58/58 64/64/64 63/63/63 
f 58/58/58 65/65/65 64/64/64 
f 58/58/58 67/67/67 66/66/66 
f 58/58/58 68/68/68 67/67/67 
f 58/58/58 69/69/69 68/68/68 
f 58/58/58 70/70/70 69/69/69 
f 58/58/58 71/71/71 70/70/70 
f 58/58/58 72/72/72 71/71/71 
f 58/58/58 74/74/74 73/73/73 
f 58/58/58 75/75/75 74/74/74 
f 58/58/58 76/76/76 75/75/75 
f 58/58/58 77/77/77 76/76/76 
f 58/58/58 78/78/78 77/77/77 
f 58/58/58 79/79/79 78/78/78 
f 58/58/58 81/81/81 80/80/80 
f 58/58/58 82/82/82 81/81/81 
f 58/58/58 83/83/83 82/82/82 
f 58/58/58 84/84/84 83/83/83 
f 58/58/58 85/85/85 84/84/84 
f 58/58/58 86/86/86 85/85/85 
f 87/87/87 88/88/88 89/89/89 
f 89/89/89 88/88/88 90/90/90 
f 89/89/89 90/90/90 91/91/91 
f 91/91/91 90/90/90 92/92/92 
f 91/91/91 92/92/92 93/93/93 
f 93/93/93 92/92/92 94/94/94 
f 93/93/93 94/94/94 95/95/95 
f 95/95/95 94/94/94 96/96/96 
f 95/95/95 96/96/96 97/97/97 
f 97/97/97 96/96/96 98/98/98 
f 97/97/97 98/98/98 99/99/99 
f 99/99/99 98/98/98 100/100/100 
f 101/101/101 102/102/102 103/103/103 
f 103/103/103 102/102/102 104/104/104 
f 103/103/103 104/104/104 105/105/105 
f 105/105/105 104/104/104 106/106/106 
f 105/105/105 106/106/106 107/107/107 
f 107/107/107 106/106/106 108/108/108 
f 107/107/107 108/108/108 109/109/109 
f 109/109/109 108/108/108 110/110/110 
f 109/109/109 110/110/110 111/111/111 
f 111/111/111 110/110/110 112/112/112 
f 111/111/111 112/112/112 113/113/113 
f 113/113/113 112/112/112 114/114/114 

g Battery2

v 269 20.8677 -99.6323 
v 271 20.8677 -99.6323 
v 269 20.9327 -99.7116 
v 271 20.9327 -99.7116 
v 269 20.9932 -99.8356 
v 271 20.9932 -99.8356 
v 269 21.02 -100 
v 271 21.02 -100 
v 269 20.9932 -100.164 
v 271 20.9932 -100.164 
v 269 20.9327 -100.288 
v 271 20.9327 -100.288 
v 269 20.8677 -100.368 
v 271 20.8677 -100.368 

vn 0 0.708661 0.708661 
vn 0 0.708661 0.708661 
vn 0 0.834646 0.551181 
vn 0 0.834646 0.551181 
vn 0 0.944882 0.314961 
vn 0 0.944882 0.314961 
vn 0 1 0 
vn 0 1 0 
vn 0 0.944882 -0.314961 
vn 0 0.944882 -0.314961 
vn 0 0.834646 -0.551181 
vn 0 0.834646 -0.551181 
vn 0 0.708661 -0.708661 
vn 0 0.708661 -0.708661 

vt 1 1 
vt 0 1 
vt 1 0.833333 
vt 0 0.833333 
vt 1 0.666667 
vt 0 0.666667 
vt 1 0.5 
vt 0 0.5 
vt 1 0.333333 
vt 0 0.333333 
vt 1 0.166667 
vt 0 0.166667 
vt 1 0 
vt 0 0 

usemtl Battery2Mtl

f 115/115/115 116/116/116 117/117/117 
f 117/117/117 116/116/116 118/118/118 
f 117/117/117 118/118/118 119/119/119 
f 119/119/119 118/118/118 120/120/120 
f 119/119/119 120/120/120 121/121/121 
f 121/121/121 120/120/120 122/122/122 
f 121/121/121 122/122/122 123/123/123 
f 123/123/123 122/122/122 124/124/124 
f 123/123/123 124/124/124 125/125/125 
f 125/125/125 124/124/124 126/126/126 
f 125/125/125 126/126/126 127/127/127 
f 127/127/127 126/126/126 128/128/128 

g Battery3

v 269 20.8677 -100.368 
v 271 20.8677 -100.368 
v 269 20.7884 -100.433 
v 271 20.7884 -100.433 
v 269 20.6644 -100.493 
v 271 20.6644 -100.493 
v 269 20.5 -100.52 
v 271 20.5 -100.52 
v 269 20.3356 -100.493 
v 271 20.3356 -100.493 
v 269 20.2116 -100.433 
v 271 20.2116 -100.433 
v 269 20.1323 -100.368 
v 271 20.1323 -100.368 

vn 0 0.708661 -0.708661 
vn 0 0.708661 -0.708661 
vn 0 0.551181 -0.834646 
vn 0 0.551181 -0.834646 
vn 0 0.314961 -0.944882 
vn 0 0.314961 -0.944882 
vn 0 0 -1 
vn 0 0 -1 
vn 0 -0.314961 -0.944882 
vn 0 -0.314961 -0.944882 
vn 0 -0.551181 -0.834646 
vn 0 -0.551181 -0.834646 
vn 0 -0.708661 -0.708661 
vn 0 -0.708661 -0.708661 

vt 1 1 
vt 0 1 
vt 1 0.833333 
vt 0 0.833333 
vt 1 0.666667 
vt 0 0.666667 
vt 1 0.5 
vt 0 0.5 
vt 1 0.333333 
vt 0 0.333333 
vt 1 0.166667 
vt 0 0.166667 
vt 1 0 
vt 0 0 

usemtl Battery2Mtl

f 129/129/129 130/130/130 131/131/131 
f 131/131/131 130/130/130 132/132/132 
f 131/131/131 132/132/132 133/133/133 
f 133/133/133 132/132/132 134/134/134 
f 133/133/133 134/134/134 135/135/135 
f 135/135/135 134/134/134 136/136/136 
f 135/135/135 136/136/136 137/137/137 
f 137/137/137 136/136/136 138/138/138 
f 137/137/137 138/138/138 139/139/139 
f 139/139/139 138/138/138 140/140/140 
f 139/139/139 140/140/140 141/141/141 
f 141/141/141 140/140/140 142/142/142 

g Battery4

v 269 20.1323 -100.368 
v 271 20.1323 -100.368 
v 269 20.0673 -100.288 
v 271 20.0673 -100.288 
v 269 20.0068 -100.164 
v 271 20.0068 -100.164 
v 269 19.98 -100 
v 271 19.98 -100 
v 269 20.0068 -99.8356 
v 271 20.0068 -99.8356 
v 269 20.0673 -99.7116 
v 271 20.0673 -99.7116 
v 269 20.1323 -99.6323 
v 271 20.1323 -99.6323 

vn 0 -0.708661 -0.708661 
vn 0 -0.708661 -0.708661 
vn 0 -0.834646 -0.551181 
vn 0 -0.834646 -0.551181 
vn 0 -0.944882 -0.314961 
vn 0 -0.944882 -0.314961 
vn 0 -1 0 
vn 0 -1 0 
vn 0 -0.944882 0.314961 
vn 0 -0.944882 0.314961 
vn 0 -0.834646 0.551181 
vn 0 -0.834646 0.551181 
vn 0 -0.708661 0.708661 
vn 0 -0.708661 0.708661 

vt 1 1 
vt 0 1 
vt 1 0.833333 
vt 0 0.833333 
vt 1 0.666667 
vt 0 0.666667 
vt 1 0.5 
vt 0 0.5 
vt 1 0.333333 
vt 0 0.333333 
vt 1 0.166667 
vt 0 0.166667 
vt 1 0 
vt 0 0 

usemtl Battery2Mtl

f 143/143/143 144/144/144 145/145/145 
f 145/145/145 144/144/144 146/146/146 
f 145/145/145 146/146/146 147/147/147 
f 147/147/147 146/146/146 148/148/148 
f 147/147/147 148/148/148 149/149/149 
f 149/149/149 148/148/148 150/150/150 
f 149/149/149 150/150/150 151/151/151 
f 151/151/151 150/150/150 152/152/152 
f 151/151/151 152/152/152 153/153/153 
f 153/153/153 152/152/152 154/154/154 
f 153/153/153 154/154/154 155/155/155 
f 155/155/155 154/154/154 156/156/156 

g Battery5

v 271 20.8677 -99.6323 
v 269 20.8677 -99.6323 
v 271 20.7884 -99.5673 
v 269 20.7884 -99.5673 
v 271 20.6644 -99.5068 
v 269 20.6644 -99.5068 
v 271 20.5 -99.48 
v 269 20.5 -99.48 
v 271 20.3356 -99.5068 
v 269 20.3356 -99.5068 
v 271 20.2116 -99.5673 
v 269 20.2116 -99.5673 
v 271 20.1323 -99.6323 
v 269 20.1323 -99.6323 

vn 0 0.708661 0.708661 
vn 0 0.708661 0.708661 
vn 0 0.551181 0.834646 
vn 0 0.551181 0.834646 
vn 0 0.314961 0.944882 
vn 0 0.314961 0.944882 
vn 0 0 1 
vn 0 0 1 
vn 0 -0.314961 0.944882 
vn 0 -0.314961 0.944882 
vn 0 -0.551181 0.834646 
vn 0 -0.551181 0.834646 
vn 0 -0.708661 0.708661 
vn 0 -0.708661 0.708661 

vt 1 1 
vt 0 1 
vt 1 0.833333 
vt 0 0.833333 
vt 1 0.666667 
vt 0 0.666667 
vt 1 0.5 
vt 0 0.5 
vt 1 0.333333 
vt 0 0.333333 
vt 1 0.166667 
vt 0 0.166667 
vt 1 0 
vt 0 0 

usemtl Battery2Mtl

f 157/157/157 158/158/158 159/159/159 
f 159/159/159 158/158/158 160/160/160 
f 159/159/159 160/160/160 161/161/161 
f 161/161/161 160/160/160 162/162/162 
f 161/161/161 162/162/162 163/163/163 
f 163/163/163 162/162/162 164/164/164 
f 163/163/163 164/164/164 165/165/165 
f 165/165/165 164/164/164 166/166/166 
f 165/165/165 166/166/166 167/167/167 
f 167/167/167 166/166/166 168/168/168 
f 167/167/167 168/168/168 169/169/169 
f 169/169/169 168/168/168 170/170/170 

g Battery6

v 271.02 20.5 -100 
v 271.02 20.8536 -100.354 
v 271.02 20.7773 -100.416 
v 271.02 20.6581 -100.474 
v 271.02 20.5 -100.5 
v 271.02 20.3419 -100.474 
v 271.02 20.2227 -100.416 
v 271.02 20.1464 -100.354 
v 271.02 20.1464 -100.354 
v 271.02 20.084 -100.277 
v 271.02 20.0257 -100.158 
v 271.02 20 -100 
v 271.02 20.0257 -99.8419 
v 271.02 20.084 -99.7226 
v 271.02 20.1464 -99.6464 
v 271.02 20.1464 -99.6464 
v 271.02 20.2227 -99.584 
v 271.02 20.3419 -99.5257 
v 271.02 20.5 -99.5 
v 271.02 20.6581 -99.5257 
v 271.02 20.7773 -99.584 
v 271.02 20.8536 -99.6464 
v 271.02 20.8536 -99.6464 
v 271.02 20.916 -99.7226 
v 271.02 20.9743 -99.8419 
v 271.02 21 -100 
v 271.02 20.9743 -100.158 
v 271.02 20.916 -100.277 
v 271.02 20.8536 -100.354 

vn 1 0 0 
vn 1 0 0 
vn 1 0 0 
vn 1 0 0 
vn 1 0 0 
vn 1 0 0 
vn 1 0 0 
vn 1 0 0 
vn 1 0 0 
vn 1 0 0 
vn 1 0 0 
vn 1 0 0 
vn 1 0 0 
vn 1 0 0 
vn 1 0 0 
vn 1 0 0 
vn 1 0 0 
vn 1 0 0 
vn 1 0 0 
vn 1 0 0 
vn 1 0 0 
vn 1 0 0 
vn 1 0 0 
vn 1 0 0 
vn 1 0 0 
vn 1 0 0 
vn 1 0 0 
vn 1 0 0 
vn 1 0 0 

vt 0.25 0.75 
vt 0.426777 0.926777 
vt 0.458013 0.888675 
vt 0.487171 0.829057 
vt 0.5 0.75 
vt 0.487171 0.670943 
vt 0.458013 0.611325 
vt 0.426777 0.573223 
vt 0.426777 0.573223 
vt 0.388675 0.541987 
vt 0.329057 0.512829 
vt 0.25 0.5 
vt 0.170943 0.512829 
vt 0.111325 0.541987 
vt 0.0732233 0.573223 
vt 0.0732233 0.573223 
vt 0.0419874 0.611325 
vt 0.0128292 0.670943 
vt 0 0.75 
vt 0.0128292 0.829057 
vt 0.0419874 0.888675 
vt 0.0732233 0.926777 
vt 0.0732233 0.926777 
vt 0.111325 0.958013 
vt 0.170943 0.987171 
vt 0.25 1 
vt 0.329057 0.987171 
vt 0.388675 0.958013 
vt 0.426777 0.926777 

usemtl Battery6Mtl

f 171/171/171 173/173/173 172/172/172 
f 171/171/171 174/174/174 173/173/173 
f 171/171/171 175/175/175 174/174/174 
f 171/171/171 176/176/176 175/175/175 
f 171/171/171 177/177/177 176/176/176 
f 171/171/171 178/178/178 177/177/177 
f 171/171/171 180/180/180 179/179/179 
f 171/171/171 181/181/181 180/180/180 
f 171/171/171 182/182/182 181/181/181 
f 171/171/171 183/183/183 182/182/182 
f 171/171/171 184/184/184 183/183/183 
f 171/171/171 185/185/185 184/184/184 
f 171/171/171 187/187/187 186/186/186 
f 171/171/171 188/188/188 187/187/187 
f 171/171/171 189/189/189 188/188/188 
f 171/171/171 190/190/190 189/189/189 
f 171/171/171 191/191/191 190/190/190 
f 171/171/171 192/192/192 191/191/191 
f 171/171/171 194/194/194 193/193/193 
f 171/171/171 195/195/195 194/194/194 
f 171/171/171 196/196/196 195/195/195 
f 171/171/171 197/197/197 196/196/196 
f 171/171/171 198/198/198 197/197/197 
f 171/171/171 199/199/199 198/198/198 

