# This file is brought to you by Roblox Corporation
# Generated by Roblox Studio

mtllib roundwedge.mtl

g Roundwedge1

v 411 2 -121 
v 411 0 -121 
v 409 2 -121 
v 409 0 -121 
v 409 0 -121 
v 409.632 0 -119.103 
v 409 0 -119 
v 410.109 0 -119.336 
v 410.414 0 -119.586 
v 410.664 0 -119.891 
v 410.897 0 -120.368 
v 411 0 -121 
v 409 2 -119 
v 409 2 -121 
v 409 0 -121 
v 409 2 -119 
v 409 0 -121 
v 409 0 -119 
v 409 2 -119 
v 409 0 -119 
v 409.632 2 -119.103 
v 409.632 0 -119.103 
v 410.109 2 -119.336 
v 410.109 0 -119.336 
v 410.414 2 -119.586 
v 410.414 0 -119.586 
v 409 2 -121 
v 410.897 2 -120.368 
v 411 2 -121 
v 410.664 2 -119.891 
v 410.414 2 -119.586 
v 410.109 2 -119.336 
v 409.632 2 -119.103 
v 409 2 -119 
v 410.414 2 -119.586 
v 410.414 0 -119.586 
v 410.664 2 -119.891 
v 410.664 0 -119.891 
v 410.897 2 -120.368 
v 410.897 0 -120.368 
v 411 2 -121 
v 411 0 -121 

vn 0 0 -1 
vn 0 0 -1 
vn 0 0 -1 
vn 0 0 -1 
vn 0 -1 0 
vn 0 -1 0 
vn 0 -1 0 
vn 0 -1 0 
vn 0 -1 0 
vn 0 -1 0 
vn 0 -1 0 
vn 0 -1 0 
vn -1 0 0 
vn -1 0 0 
vn -1 0 0 
vn -1 0 0 
vn -1 0 0 
vn -1 0 0 
vn 0.15748 0 0.984252 
vn 0.15748 0 0.984252 
vn 0.299213 0 0.952756 
vn 0.299213 0 0.952756 
vn 0.543307 0 0.84252 
vn 0.543307 0 0.84252 
vn 0.708661 0 0.708661 
vn 0.708661 0 0.708661 
vn 0 1 0 
vn 0 1 0 
vn 0 1 0 
vn 0 1 0 
vn 0 1 0 
vn 0 1 0 
vn 0 1 0 
vn 0 1 0 
vn 0.708661 0 0.708661 
vn 0.708661 0 0.708661 
vn 0.84252 0 0.543307 
vn 0.84252 0 0.543307 
vn 0.952756 0 0.299213 
vn 0.952756 0 0.299213 
vn 0.984252 0 0.15748 
vn 0.984252 0 0.15748 

vt -1.52244 1.30711 
vt -1.52244 1.55711 
vt -1.77244 1.30711 
vt -1.77244 1.55711 
vt -1.77244 1.55711 
vt -1.53527 1.47805 
vt -1.52244 1.55711 
vt -1.56443 1.41843 
vt -1.59567 1.38033 
vt -1.63377 1.3491 
vt -1.69339 1.31994 
vt -1.77244 1.30711 
vt -1.77244 1.30711 
vt -1.52244 1.30711 
vt -1.52244 1.55711 
vt -1.77244 1.30711 
vt -1.52244 1.55711 
vt -1.77244 1.55711 
vt -1.52244 1.30711 
vt -1.52244 1.55711 
vt -1.6015 1.30711 
vt -1.6015 1.55711 
vt -1.66112 1.30711 
vt -1.66112 1.55711 
vt -1.69922 1.30711 
vt -1.69922 1.55711 
vt -1.52244 1.55711 
vt -1.6015 1.31994 
vt -1.52244 1.30711 
vt -1.66112 1.3491 
vt -1.69922 1.38033 
vt -1.73046 1.41843 
vt -1.75962 1.47805 
vt -1.77244 1.55711 
vt -1.59567 1.30711 
vt -1.59567 1.55711 
vt -1.63377 1.30711 
vt -1.63377 1.55711 
vt -1.69339 1.30711 
vt -1.69339 1.55711 
vt -1.77244 1.30711 
vt -1.77244 1.55711 

usemtl Roundwedge1Mtl

f 1/1/1 2/2/2 3/3/3 
f 2/2/2 4/4/4 3/3/3 
f 5/5/5 6/6/6 7/7/7 
f 5/5/5 8/8/8 6/6/6 
f 5/5/5 9/9/9 8/8/8 
f 5/5/5 10/10/10 9/9/9 
f 5/5/5 11/11/11 10/10/10 
f 5/5/5 12/12/12 11/11/11 
f 13/13/13 14/14/14 15/15/15 
f 16/16/16 17/17/17 18/18/18 
f 19/19/19 20/20/20 21/21/21 
f 21/21/21 20/20/20 22/22/22 
f 21/21/21 22/22/22 23/23/23 
f 23/23/23 22/22/22 24/24/24 
f 23/23/23 24/24/24 25/25/25 
f 25/25/25 24/24/24 26/26/26 
f 27/27/27 28/28/28 29/29/29 
f 27/27/27 30/30/30 28/28/28 
f 27/27/27 31/31/31 30/30/30 
f 27/27/27 32/32/32 31/31/31 
f 27/27/27 33/33/33 32/32/32 
f 27/27/27 34/34/34 33/33/33 
f 35/35/35 36/36/36 37/37/37 
f 37/37/37 36/36/36 38/38/38 
f 37/37/37 38/38/38 39/39/39 
f 39/39/39 38/38/38 40/40/40 
f 39/39/39 40/40/40 41/41/41 
f 41/41/41 40/40/40 42/42/42 

