# This file is brought to you by Roblox Corporation
# Generated by Roblox Studio

mtllib blackbox.mtl

g Blackbox1

v 331 2 98 
v 331 2 102 
v 331 0 98 
v 331 0 102 
v 329 2 102 
v 331 2 102 
v 329 2 98 
v 331 2 98 
v 331 2 102 
v 329 2 102 
v 331 0 102 
v 329 0 102 
v 329 2 102 
v 329 2 98 
v 329 0 102 
v 329 0 98 
v 329 0 98 
v 331 0 98 
v 329 0 102 
v 331 0 102 
v 329 2 98 
v 331 2 98 
v 329 0 98 
v 331 0 98 

vn 1 0 0 
vn 1 0 0 
vn 1 0 0 
vn 1 0 0 
vn 0 1 0 
vn 0 1 0 
vn 0 1 0 
vn 0 1 0 
vn 0 0 1 
vn 0 0 1 
vn 0 0 1 
vn 0 0 1 
vn -1 0 0 
vn -1 0 0 
vn -1 0 0 
vn -1 0 0 
vn 0 -1 0 
vn 0 -1 0 
vn 0 -1 0 
vn 0 -1 0 
vn 0 0 -1 
vn 0 0 -1 
vn 0 0 -1 
vn 0 0 -1 

vt 0.707109 0.930788 
vt 0.207109 0.930788 
vt 0.707109 0.680788 
vt 0.207109 0.680788 
vt 0.457109 0.930788 
vt 0.207109 0.930788 
vt 0.457109 0.430788 
vt 0.207109 0.430788 
vt 0.457109 0.930788 
vt 0.207109 0.930788 
vt 0.457109 0.680788 
vt 0.207109 0.680788 
vt 0.707109 0.930788 
vt 0.207109 0.930788 
vt 0.707109 0.680788 
vt 0.207109 0.680788 
vt 0.457109 0.930788 
vt 0.207109 0.930788 
vt 0.457109 0.430788 
vt 0.207109 0.430788 
vt 0.457109 0.930788 
vt 0.207109 0.930788 
vt 0.457109 0.680788 
vt 0.207109 0.680788 

usemtl Blackbox1Mtl

f 1/1/1 2/2/2 3/3/3 
f 3/3/3 2/2/2 4/4/4 
f 5/5/5 6/6/6 7/7/7 
f 7/7/7 6/6/6 8/8/8 
f 9/9/9 10/10/10 11/11/11 
f 11/11/11 10/10/10 12/12/12 
f 13/13/13 14/14/14 15/15/15 
f 15/15/15 14/14/14 16/16/16 
f 17/17/17 18/18/18 19/19/19 
f 19/19/19 18/18/18 20/20/20 
f 21/21/21 22/22/22 23/23/23 
f 23/23/23 22/22/22 24/24/24 

g Blackbox2

v 329 2.02 102 
v 331 2.02 102 
v 329 2.02 98 
v 331 2.02 98 

vn 0 1 0 
vn 0 1 0 
vn 0 1 0 
vn 0 1 0 

vt 1 1 
vt 0 1 
vt 1 0 
vt 0 0 

usemtl Blackbox2Mtl

f 25/25/25 26/26/26 27/27/27 
f 27/27/27 26/26/26 28/28/28 

g Blackbox3

v 328.98 2 102 
v 328.98 2 98 
v 328.98 0 102 
v 328.98 0 98 

vn -1 0 0 
vn -1 0 0 
vn -1 0 0 
vn -1 0 0 

vt 1 1 
vt 0 1 
vt 1 0 
vt 0 0 

usemtl Blackbox2Mtl

f 29/29/29 30/30/30 31/31/31 
f 31/31/31 30/30/30 32/32/32 

g Blackbox4

v 331 2 102.02 
v 329 2 102.02 
v 331 0 102.02 
v 329 0 102.02 

vn 0 0 1 
vn 0 0 1 
vn 0 0 1 
vn 0 0 1 

vt 1 1 
vt 0 1 
vt 1 0 
vt 0 0 

usemtl Blackbox2Mtl

f 33/33/33 34/34/34 35/35/35 
f 35/35/35 34/34/34 36/36/36 

g Blackbox5

v 331.02 2 98 
v 331.02 2 102 
v 331.02 0 98 
v 331.02 0 102 

vn 1 0 0 
vn 1 0 0 
vn 1 0 0 
vn 1 0 0 

vt 1 1 
vt 0 1 
vt 1 0 
vt 0 0 

usemtl Blackbox2Mtl

f 37/37/37 38/38/38 39/39/39 
f 39/39/39 38/38/38 40/40/40 

g Blackbox6

v 331 -0.02 102 
v 329 -0.02 102 
v 331 -0.02 98 
v 329 -0.02 98 

vn 0 -1 0 
vn 0 -1 0 
vn 0 -1 0 
vn 0 -1 0 

vt 1 1 
vt 0 1 
vt 1 0 
vt 0 0 

usemtl Blackbox2Mtl

f 41/41/41 42/42/42 43/43/43 
f 43/43/43 42/42/42 44/44/44 

