# This file is brought to you by Roblox Corporation
# Generated by Roblox Studio

mtllib cylinder.mtl

g Cylinder1

v 271 1.00001 80 
v 271 1.70712 79.2929 
v 271 1.55471 79.168 
v 271 1.31624 79.0513 
v 271 1.00001 79 
v 271 0.683784 79.0513 
v 271 0.445312 79.168 
v 271 0.292905 79.2929 
v 271 0.292905 79.2929 
v 271 0.167962 79.4453 
v 271 0.0513286 79.6838 
v 271 1.19209e-05 80 
v 271 0.0513286 80.3162 
v 271 0.167962 80.5547 
v 271 0.292905 80.7071 
v 271 0.292905 80.7071 
v 271 0.445312 80.832 
v 271 0.683784 80.9487 
v 271 1.00001 81 
v 271 1.31624 80.9487 
v 271 1.55471 80.832 
v 271 1.70712 80.7071 
v 271 1.70712 80.7071 
v 271 1.83206 80.5547 
v 271 1.9487 80.3162 
v 271 2.00001 80 
v 271 1.9487 79.6838 
v 271 1.83206 79.4453 
v 271 1.70712 79.2929 
v 269 1.70712 80.7071 
v 271 1.70712 80.7071 
v 269 1.83206 80.5547 
v 271 1.83206 80.5547 
v 269 1.9487 80.3162 
v 271 1.9487 80.3162 
v 269 2.00001 80 
v 271 2.00001 80 
v 269 1.9487 79.6838 
v 271 1.9487 79.6838 
v 269 1.83206 79.4453 
v 271 1.83206 79.4453 
v 269 1.70712 79.2929 
v 271 1.70712 79.2929 
v 271 1.70712 80.7071 
v 269 1.70712 80.7071 
v 271 1.55471 80.832 
v 269 1.55471 80.832 
v 271 1.31624 80.9487 
v 269 1.31624 80.9487 
v 271 1.00001 81 
v 269 1.00001 81 
v 271 0.683784 80.9487 
v 269 0.683784 80.9487 
v 271 0.445312 80.832 
v 269 0.445312 80.832 
v 271 0.292905 80.7071 
v 269 0.292905 80.7071 
v 269 1.00001 80 
v 269 1.70712 80.7071 
v 269 1.55471 80.832 
v 269 1.31624 80.9487 
v 269 1.00001 81 
v 269 0.683784 80.9487 
v 269 0.445312 80.832 
v 269 0.292905 80.7071 
v 269 0.292905 80.7071 
v 269 0.167962 80.5547 
v 269 0.0513286 80.3162 
v 269 1.19209e-05 80 
v 269 0.0513286 79.6838 
v 269 0.167962 79.4453 
v 269 0.292905 79.2929 
v 269 0.292905 79.2929 
v 269 0.445312 79.168 
v 269 0.683784 79.0513 
v 269 1.00001 79 
v 269 1.31624 79.0513 
v 269 1.55471 79.168 
v 269 1.70712 79.2929 
v 269 1.70712 79.2929 
v 269 1.83206 79.4453 
v 269 1.9487 79.6838 
v 269 2.00001 80 
v 269 1.9487 80.3162 
v 269 1.83206 80.5547 
v 269 1.70712 80.7071 
v 269 0.292905 79.2929 
v 271 0.292905 79.2929 
v 269 0.167962 79.4453 
v 271 0.167962 79.4453 
v 269 0.0513286 79.6838 
v 271 0.0513286 79.6838 
v 269 1.19209e-05 80 
v 271 1.19209e-05 80 
v 269 0.0513286 80.3162 
v 271 0.0513286 80.3162 
v 269 0.167962 80.5547 
v 271 0.167962 80.5547 
v 269 0.292905 80.7071 
v 271 0.292905 80.7071 
v 269 1.70712 79.2929 
v 271 1.70712 79.2929 
v 269 1.55471 79.168 
v 271 1.55471 79.168 
v 269 1.31624 79.0513 
v 271 1.31624 79.0513 
v 269 1.00001 79 
v 271 1.00001 79 
v 269 0.683784 79.0513 
v 271 0.683784 79.0513 
v 269 0.445312 79.168 
v 271 0.445312 79.168 
v 269 0.292905 79.2929 
v 271 0.292905 79.2929 

vn 1 0 0 
vn 1 0 0 
vn 1 0 0 
vn 1 0 0 
vn 1 0 0 
vn 1 0 0 
vn 1 0 0 
vn 1 0 0 
vn 1 0 0 
vn 1 0 0 
vn 1 0 0 
vn 1 0 0 
vn 1 0 0 
vn 1 0 0 
vn 1 0 0 
vn 1 0 0 
vn 1 0 0 
vn 1 0 0 
vn 1 0 0 
vn 1 0 0 
vn 1 0 0 
vn 1 0 0 
vn 1 0 0 
vn 1 0 0 
vn 1 0 0 
vn 1 0 0 
vn 1 0 0 
vn 1 0 0 
vn 1 0 0 
vn 0 0.708661 0.708661 
vn 0 0.708661 0.708661 
vn 0 0.834646 0.551181 
vn 0 0.834646 0.551181 
vn 0 0.944882 0.314961 
vn 0 0.944882 0.314961 
vn 0 1 0 
vn 0 1 0 
vn 0 0.944882 -0.314961 
vn 0 0.944882 -0.314961 
vn 0 0.834646 -0.551181 
vn 0 0.834646 -0.551181 
vn 0 0.708661 -0.708661 
vn 0 0.708661 -0.708661 
vn 0 0.708661 0.708661 
vn 0 0.708661 0.708661 
vn 0 0.551181 0.834646 
vn 0 0.551181 0.834646 
vn 0 0.314961 0.944882 
vn 0 0.314961 0.944882 
vn 0 0 1 
vn 0 0 1 
vn 0 -0.314961 0.944882 
vn 0 -0.314961 0.944882 
vn 0 -0.551181 0.834646 
vn 0 -0.551181 0.834646 
vn 0 -0.708661 0.708661 
vn 0 -0.708661 0.708661 
vn -1 0 0 
vn -1 0 0 
vn -1 0 0 
vn -1 0 0 
vn -1 0 0 
vn -1 0 0 
vn -1 0 0 
vn -1 0 0 
vn -1 0 0 
vn -1 0 0 
vn -1 0 0 
vn -1 0 0 
vn -1 0 0 
vn -1 0 0 
vn -1 0 0 
vn -1 0 0 
vn -1 0 0 
vn -1 0 0 
vn -1 0 0 
vn -1 0 0 
vn -1 0 0 
vn -1 0 0 
vn -1 0 0 
vn -1 0 0 
vn -1 0 0 
vn -1 0 0 
vn -1 0 0 
vn -1 0 0 
vn -1 0 0 
vn 0 -0.708661 -0.708661 
vn 0 -0.708661 -0.708661 
vn 0 -0.834646 -0.551181 
vn 0 -0.834646 -0.551181 
vn 0 -0.944882 -0.314961 
vn 0 -0.944882 -0.314961 
vn 0 -1 0 
vn 0 -1 0 
vn 0 -0.944882 0.314961 
vn 0 -0.944882 0.314961 
vn 0 -0.834646 0.551181 
vn 0 -0.834646 0.551181 
vn 0 -0.708661 0.708661 
vn 0 -0.708661 0.708661 
vn 0 0.708661 -0.708661 
vn 0 0.708661 -0.708661 
vn 0 0.551181 -0.834646 
vn 0 0.551181 -0.834646 
vn 0 0.314961 -0.944882 
vn 0 0.314961 -0.944882 
vn 0 0 -1 
vn 0 0 -1 
vn 0 -0.314961 -0.944882 
vn 0 -0.314961 -0.944882 
vn 0 -0.551181 -0.834646 
vn 0 -0.551181 -0.834646 
vn 0 -0.708661 -0.708661 
vn 0 -0.708661 -0.708661 

vt 0.305502 0.855136 
vt 0.39389 0.943525 
vt 0.409508 0.924474 
vt 0.424087 0.894665 
vt 0.430502 0.855136 
vt 0.424087 0.815608 
vt 0.409508 0.785799 
vt 0.39389 0.766748 
vt 0.39389 0.766748 
vt 0.374839 0.75113 
vt 0.34503 0.736551 
vt 0.305502 0.730136 
vt 0.265973 0.736551 
vt 0.236164 0.75113 
vt 0.217113 0.766748 
vt 0.217113 0.766748 
vt 0.201495 0.785799 
vt 0.186916 0.815608 
vt 0.180502 0.855136 
vt 0.186916 0.894665 
vt 0.201495 0.924474 
vt 0.217113 0.943525 
vt 0.217113 0.943525 
vt 0.236164 0.959143 
vt 0.265973 0.973722 
vt 0.305502 0.980136 
vt 0.34503 0.973722 
vt 0.374839 0.959143 
vt 0.39389 0.943525 
vt 0.611004 0.960272 
vt 0.361004 0.960272 
vt 0.611004 0.918606 
vt 0.361004 0.918606 
vt 0.611004 0.876939 
vt 0.361004 0.876939 
vt 0.611004 0.835272 
vt 0.361004 0.835272 
vt 0.611004 0.793606 
vt 0.361004 0.793606 
vt 0.611004 0.751939 
vt 0.361004 0.751939 
vt 0.611004 0.710272 
vt 0.361004 0.710272 
vt 0.611004 0.960272 
vt 0.361004 0.960272 
vt 0.611004 0.918606 
vt 0.361004 0.918606 
vt 0.611004 0.876939 
vt 0.361004 0.876939 
vt 0.611004 0.835272 
vt 0.361004 0.835272 
vt 0.611004 0.793606 
vt 0.361004 0.793606 
vt 0.611004 0.751939 
vt 0.361004 0.751939 
vt 0.611004 0.710272 
vt 0.361004 0.710272 
vt 0.305502 0.855136 
vt 0.39389 0.943525 
vt 0.409508 0.924474 
vt 0.424087 0.894665 
vt 0.430502 0.855136 
vt 0.424087 0.815608 
vt 0.409508 0.785799 
vt 0.39389 0.766748 
vt 0.39389 0.766748 
vt 0.374839 0.75113 
vt 0.34503 0.736551 
vt 0.305502 0.730136 
vt 0.265973 0.736551 
vt 0.236164 0.75113 
vt 0.217113 0.766748 
vt 0.217113 0.766748 
vt 0.201495 0.785799 
vt 0.186916 0.815608 
vt 0.180502 0.855136 
vt 0.186916 0.894665 
vt 0.201495 0.924474 
vt 0.217113 0.943525 
vt 0.217113 0.943525 
vt 0.236164 0.959143 
vt 0.265973 0.973722 
vt 0.305502 0.980136 
vt 0.34503 0.973722 
vt 0.374839 0.959143 
vt 0.39389 0.943525 
vt 0.611004 0.960272 
vt 0.361004 0.960272 
vt 0.611004 0.918606 
vt 0.361004 0.918606 
vt 0.611004 0.876939 
vt 0.361004 0.876939 
vt 0.611004 0.835272 
vt 0.361004 0.835272 
vt 0.611004 0.793606 
vt 0.361004 0.793606 
vt 0.611004 0.751939 
vt 0.361004 0.751939 
vt 0.611004 0.710272 
vt 0.361004 0.710272 
vt 0.611004 0.960272 
vt 0.361004 0.960272 
vt 0.611004 0.918606 
vt 0.361004 0.918606 
vt 0.611004 0.876939 
vt 0.361004 0.876939 
vt 0.611004 0.835272 
vt 0.361004 0.835272 
vt 0.611004 0.793606 
vt 0.361004 0.793606 
vt 0.611004 0.751939 
vt 0.361004 0.751939 
vt 0.611004 0.710272 
vt 0.361004 0.710272 

usemtl Cylinder1Mtl

f 1/1/1 3/3/3 2/2/2 
f 1/1/1 4/4/4 3/3/3 
f 1/1/1 5/5/5 4/4/4 
f 1/1/1 6/6/6 5/5/5 
f 1/1/1 7/7/7 6/6/6 
f 1/1/1 8/8/8 7/7/7 
f 1/1/1 10/10/10 9/9/9 
f 1/1/1 11/11/11 10/10/10 
f 1/1/1 12/12/12 11/11/11 
f 1/1/1 13/13/13 12/12/12 
f 1/1/1 14/14/14 13/13/13 
f 1/1/1 15/15/15 14/14/14 
f 1/1/1 17/17/17 16/16/16 
f 1/1/1 18/18/18 17/17/17 
f 1/1/1 19/19/19 18/18/18 
f 1/1/1 20/20/20 19/19/19 
f 1/1/1 21/21/21 20/20/20 
f 1/1/1 22/22/22 21/21/21 
f 1/1/1 24/24/24 23/23/23 
f 1/1/1 25/25/25 24/24/24 
f 1/1/1 26/26/26 25/25/25 
f 1/1/1 27/27/27 26/26/26 
f 1/1/1 28/28/28 27/27/27 
f 1/1/1 29/29/29 28/28/28 
f 30/30/30 31/31/31 32/32/32 
f 32/32/32 31/31/31 33/33/33 
f 32/32/32 33/33/33 34/34/34 
f 34/34/34 33/33/33 35/35/35 
f 34/34/34 35/35/35 36/36/36 
f 36/36/36 35/35/35 37/37/37 
f 36/36/36 37/37/37 38/38/38 
f 38/38/38 37/37/37 39/39/39 
f 38/38/38 39/39/39 40/40/40 
f 40/40/40 39/39/39 41/41/41 
f 40/40/40 41/41/41 42/42/42 
f 42/42/42 41/41/41 43/43/43 
f 44/44/44 45/45/45 46/46/46 
f 46/46/46 45/45/45 47/47/47 
f 46/46/46 47/47/47 48/48/48 
f 48/48/48 47/47/47 49/49/49 
f 48/48/48 49/49/49 50/50/50 
f 50/50/50 49/49/49 51/51/51 
f 50/50/50 51/51/51 52/52/52 
f 52/52/52 51/51/51 53/53/53 
f 52/52/52 53/53/53 54/54/54 
f 54/54/54 53/53/53 55/55/55 
f 54/54/54 55/55/55 56/56/56 
f 56/56/56 55/55/55 57/57/57 
f 58/58/58 60/60/60 59/59/59 
f 58/58/58 61/61/61 60/60/60 
f 58/58/58 62/62/62 61/61/61 
f 58/58/58 63/63/63 62/62/62 
f 58/58/58 64/64/64 63/63/63 
f 58/58/58 65/65/65 64/64/64 
f 58/58/58 67/67/67 66/66/66 
f 58/58/58 68/68/68 67/67/67 
f 58/58/58 69/69/69 68/68/68 
f 58/58/58 70/70/70 69/69/69 
f 58/58/58 71/71/71 70/70/70 
f 58/58/58 72/72/72 71/71/71 
f 58/58/58 74/74/74 73/73/73 
f 58/58/58 75/75/75 74/74/74 
f 58/58/58 76/76/76 75/75/75 
f 58/58/58 77/77/77 76/76/76 
f 58/58/58 78/78/78 77/77/77 
f 58/58/58 79/79/79 78/78/78 
f 58/58/58 81/81/81 80/80/80 
f 58/58/58 82/82/82 81/81/81 
f 58/58/58 83/83/83 82/82/82 
f 58/58/58 84/84/84 83/83/83 
f 58/58/58 85/85/85 84/84/84 
f 58/58/58 86/86/86 85/85/85 
f 87/87/87 88/88/88 89/89/89 
f 89/89/89 88/88/88 90/90/90 
f 89/89/89 90/90/90 91/91/91 
f 91/91/91 90/90/90 92/92/92 
f 91/91/91 92/92/92 93/93/93 
f 93/93/93 92/92/92 94/94/94 
f 93/93/93 94/94/94 95/95/95 
f 95/95/95 94/94/94 96/96/96 
f 95/95/95 96/96/96 97/97/97 
f 97/97/97 96/96/96 98/98/98 
f 97/97/97 98/98/98 99/99/99 
f 99/99/99 98/98/98 100/100/100 
f 101/101/101 102/102/102 103/103/103 
f 103/103/103 102/102/102 104/104/104 
f 103/103/103 104/104/104 105/105/105 
f 105/105/105 104/104/104 106/106/106 
f 105/105/105 106/106/106 107/107/107 
f 107/107/107 106/106/106 108/108/108 
f 107/107/107 108/108/108 109/109/109 
f 109/109/109 108/108/108 110/110/110 
f 109/109/109 110/110/110 111/111/111 
f 111/111/111 110/110/110 112/112/112 
f 111/111/111 112/112/112 113/113/113 
f 113/113/113 112/112/112 114/114/114 

